<svg xmlns="http://www.w3.org/2000/svg" width="584.581" height="531.692" viewBox="0 0 584.581 531.692">
  <g id="egypt-map-stroke" transform="translate(-2233.364 -281.969)">
    <path id="Path_3117" data-name="Path 3117" d="M262.427,19.855v.1l.107.06-.022.075h-.061l-.042-.127h-.086l-.222.169.021.16.138.032-.106.182.117.061-.276.061.01.1.117.074-.1.3.223.308-.01.234.127.223.277.169.052.511.128.106-.022,2.37-1.179,1.924-1.265,3.337-4.846,2.8-3.4,2.8,2.444,2.157-.744,2.933-1.243,2.221,2.423,3.975,5.97,6.848-5.377,8.034-5.218,2.475-4.144,1.353-1.9.276-1.509,2.211-1.523,4.484-.964-32.485.022-3.273.191-.127.107-.183.319-.074.116-.183.234-.1.853-.712.17-.043.393-.308.085-.265h.061v.06l.117-.06.426-.415.415-.3.372-.446.712-.585.106-.01.061-.127.372-.128.574-.467.287-.107.159-.243.447-.3.053-.138.255-.075.031-.138.2-.106.6-.723.159-.382-.021-.276.183-.061.159-.17.223-.011-.117.17-.223.061.011.127h.127l.043.107.117-.061.106-.234.16.061-.022.16-.159.182-.053.277.1-.043.053-.2.2-.244.074.107-.043.329.266.032.061-.2.1-.043v.383l.277-.17.182.032.139-.16.148-.032.223-.182.149-.308.1.06.117-.06.223-.351.329-.183.183-.265.085-.478h.117V28.9l.075-.011.319-.3-.011-.1.061-.01.074.1.277-.414-.061-.16-.127.032.01.1-.074.032-.138-.183.222-.35.266-.183-.043-.061-.042.1-.053-.011-.1-.182h-.161l-.127.243-.1.043-.01.127-.212-.01-.053.234-.128-.107.061.213-.234-.16.5-.521.021-.127-.061-.061.277-.061.053-.127.414-.074v-.183l-.106-.159.117-.075.233.011.139-.128.053.075-.149.1-.021.2.182.277.213.127.393-.053.33-.414L253.9,26.4l.17.01.255.234.372-.2.265-.276.436-.266.16-.234.234-.106.2-.3h.159l.053-.17.149.032-.021-.16.074-.1.255.01.117-.16.1-.01.053-.17.138-.031.053-.183.159-.183.223-.106.16-.244.276-.17.011-.138-.061-.1.061-.159.531-.032.2-.2.032-.213.276-.031.107-.234-.138-.17.061-.1.138.01-.01-.138.182-.032.223.183.043-.139-.128.032-.021-.061.107-.265.074.17.149.106.212-.01.34-.183.255-.329.01-.107.319-.34-.01-.138-.234-.17.2-.127-.031-.1.52-.138.287-.382.234-.1.021-.074.106.032.427-.107Z" transform="translate(2229 282)" fill="none" stroke="#3d3e40" stroke-miterlimit="10" stroke-width="2"/>
    <path id="Path_3118" data-name="Path 3118" d="M402.333,398.928l-1.084,3.775-.01,6.408.839,1.966.34,3.178.978,1.211,1.244,2.264.212,1.966.351,1.509,1.041,1.881,1.732.988,1.531,1.732.212,4.814,1.137.435-.17,1.955-.765.776-.627,1.052-.415,2.338.075,2.487L410,443.276l1.668.382.882,2.03.819,1.54-.244,1.456-.84,1.2-.69,2.337-1.116,2.179-1.657,1.721-1.18,1.435-1.328,2.167-1.381,1.509-.075,1.275,1.042.9,2.635,2.625,3.22.255,1.084,1.041,3.528,2.5,2.37,3.74.223,3.517-1.265,2.147-2.88-.426-2.933-3.125-1.54-2.029-3.061.456-2.731-.828-1.945-1.244-2.784-1.955-3.358.351-3.177,1.742.276,5.877-1.254,3.634-2.454,2.74-2.9,1.69-3.953,2.6-3.337,2.923-2.784.829-3.124.935-3.646-1.614-2.5-2.423-1.562-2.019-2.242-1.413-2.923.7-1.254,4.729-.414,2.5-1.254,3.061-1.105,2.082-1.477,1.849-2.88,1.232-4.548-.711-1.53,3.337-2.083,2.082-2.923,1.53-8.618,2.923-1.264,4.941-5.494-.01-.061-.255.1-.744.637-1.807.447-.935,1.434-2.264.436-.5.691-.552.3-.5.563-.67.276-.616-.021-.3-.183-.277-.552-.286-.638-1.116-.435-.3-.276.117-.946.808-4.049,2.475-1.53-.138-2.837.277-1.6-2.359.828-2.923,4.591-2.37,3.2-.967,4.25.127,3.145-2.9,2.041-2.3.882-1.668.51-1.679-.244-1.7v-4.6l-.222-2.359.892-1.945,1.562-1.849,1.244-.531,2.943-.021,2.179.243,1.711-.243,2.4-.787,9.182-2.571,5.834-1.721,1.041.4,2.752.277,2.731.542L373.3,476l1.6.7,1.742-.978,1.807-3.528,1.01-2.137,1.306-2.313.84-2.519,1.328-2.975,1.8-2.869,1.4-2.412,1.637-3.443,1.8-2.688,1.509-2.508.318-1.02-.51-2.1-2.2.117-1.826.415L384,445.357l-5.505-1.306-1.477-1.753.382-3.486,1.817-6.3,1.5-2.136,1.657-1.084,2.436-1.444,2.327-.967,2.136-.6,2.253-1.827-.339-1.34-1.584-1.286-2.242-2.168-.182-3.336,1.477-1.478,1.36-.52,1.954-.981,3.974-4.154.415-6.854v-3.146l.627-4.463L397,391.1l.8-3.7.7-3.709v-3.06l.6-3.528-1.913-3.7-.6-2.327-1.243-3.784-.061-2.306.032-2.762-.415-1.966-1.7-2.136-2.848-2.679-3.708-1.722,1.02-3.729-.075-3.794,2.03,1.839,2.54,1.572,1.944,1.881,4.62,3.209,3.5,5.845.5,3.55.148,10.18,2.041,4.813,3.252,5.43.243,1.644-.415,4.262-3.4,2.827-2.115,3.156-.138,2.519Z" transform="translate(2229 282)" fill="none" stroke="#3d3e40" stroke-miterlimit="10" stroke-width="2"/>
    <path id="Path_3119" data-name="Path 3119" d="M336.142,264.59l-2.359-.021-.9-1.966-1.1-1.041-.946-2.1-.913-1.222-1.891-.2-.606,1.157-1.222,1.766-.914.68-1.827,1.02-1.264,1.041-.691.212-2.38-3.942-1.955-4.559-1.913-3.942-1.817-2.984-2.858-1.644-1.753-.414-2.295-.255-1.053-.564-2.242-2-4.187-4.091-1.477-.829-1.2-1.753-.552-2.274-1.477-1.966-1.01-2.167-.478-2.71-1.1-.5-.182-2.062-.829-.829.1-2.38,1.106-.107h3.22l1.945.521,2.582.415,1.657-1.456,2.954.2-.712,3.613.617,5,.648,1.644,1.561,1.87,1,.487,3.613,1.265,1.477,1.137,4.134,1.615,1.222.107,2.232,1.116,1.423.8,1.456,4.7,3.018,2.314,2.72,2.314,1.361.957,1.487,3.273L334,257.85l1.584,4.08Z" transform="translate(2229 282)" fill="none" stroke="#3d3e40" stroke-miterlimit="10" stroke-width="2"/>
    <path id="Path_3120" data-name="Path 3120" d="M536.033,420.968l.086.69.117.351-.1.2-.2.032-.183-.075-.01-.117.043-.052.06.031.011-.106.212-.17-.042-.616-.061-.117.061-.053ZM448.249,267.374l.17.149.043.183.212.074.043.16.531-.043.1.085.032.224-.149.881.1.255.182.16.128.351v.159l-.106.138.053.6-.075.075.053.074-.053.085-.1-.031-.372-.542-.139-.4-.138-.107-.074.011-.266-.4.1-.3-.053-.265-.255-.117-.149-.3-.127-.01v-.192l-.243-.255.01-.233.1-.117.2-.075.159-.276h.1ZM445.22,241.3l.183.16.043-.117.212.074.308.372.139.3.116.074.061.415-.085.212.01.213.149.191.061.287.234.106.085.563.117.074.053.287-.061.117-.276-.074-.043.061-.244.031-.053-.106-.276-.148-.276-.638-.478-.4-.277-.031.053-.16-.085-.042-.021-.149-.234-.183-.139-.233.061-.183.372.159.213-.1-.01-.192-.2-.487.053-.191.1-.061.053-.159.085-.032Zm1.074-14.473.085.107.532.031.212-.06.68.074.117.255.319.117.426.521.574.265.17.01.426.3.053.16.487.01.138.061.266.4.01.212.265.563.043.361.2.213.223.829-.159.34-.33.074-.34-.011v-.116l.16-.032V231.4l-.446-.487-.16-.383-.265-.182-.383.031-.042-.265-.351-.382-.16-.086-.074-.148-.244-.106-.159-.224-.436.043-.169-.107-.256.011-.021-.106-.318-.308-.183.01-.234-.183-.234.117-.265.032-.16-.061-.606-.7-.1-.372.011-.085h.148l.117.138.1-.06.106-.511Zm-6.928-1.148.117.061.042.117-.117.191.043.372-.16-.074v-.117l-.138-.061-.106-.233.117-.213Zm-1.679-.456.223.085.021.149.138.031.053.138.287.256.117.286-.074.032-.415-.329-.393-.564.042-.085Zm.754-3.188.223.213.053.182.277.149-.1.7-.149.234.149.042v.149l.106.183.183.031.584.383.287.031.117.256-.149.361-.436.265-.085.183-.372.042-.223.117.043.532.223.3-.061.138-.127-.117-.277-.532-.01.256-.372-.564.074-.255.542-.01.043-.223-.139-.01-.255-.192-.234.011-.276-.085v-.075l-.138-.061-.086-.138-.487-.074-.138-.061-.053-.107.3-.52.1-.33.16-.148v-.213l.319-.892.053-.086.34-.053Zm.723-.308.061.032.085.372.149.117.01.222-.17-.074-.159-.287-.061-.329Zm.819-1.732.148.138.17.361.415.183.17.711-.032.383-.287.4-.085.33-.16-.032-.487-.436-.032-.159-.159-.139-.183-.658-.117-.075-.085-.212-.01-.138.148-.043-.061-.234.1-.159.244-.043.1-.117.213-.061Zm.414-.957.053.149-.061.06-.138-.042-.159.106-.2.329-.053.234-.222-.043-.256.075-.053.074v-.085l-.1-.061.061-.191.1.06.1-.159.2-.043.021-.329.309.032.148-.075.085.043.17-.138Zm-9.489-4.633.031.074-.116.074-.032-.085.117-.061Zm-.563-.914.276.107.183.183.01.106-.1.117.16.138.061.234-.16-.138-.106.255.085.032.053.138.043.51-.394-.138-.085-.3-.648-.51.255-.308.061-.255.169-.032.043-.138h.085Zm-99.272-68.522,4.718.67,4.749,1.87,6.886,1.679h1.317l1.157,2.236,5.48-1.042,7.045-.106,8.533-5.25,4.548-1.243,4.187-2.487,5.717-.2.138-.011.1.256-.053.17.2.138.149.255-.043.382.1.213-.032.287-.255.616.031.074-.191.117-.159.276-.075-.042-.6.5v.107l.117.061-.01.117-.085-.107-.427.074-.372.457-.074.212v.061l.01.075.351.435.053.606-.3.393-.116.5-.107,1.211.053.382.542.871.308.3.446.606.394.33.3.361.183.584.255.372.139.723.182.51.138.075-.085.552.436.478.085.3-.061.106.542.4.266.4.148.01.061.106.287.107.383.3.382.8.149.606.361.446.212.085.053.17.138.032.213.223.818.074.574.191.234.149.487.426.265.574.128.138.35.829.086.467.182.447.106.223.149.042.2.244-.16.531.022.574.276.563.213.085-.032.287.308.755-.106.061.01.711.149.17.01.255.372.192v.393l.139.117.053.183.01.319.255.8.043.7.17.935-.011.394-.17.287.17.286.061.086.649.255.127.183h.308l.446.222.415-.031.149.106.531.107.183.148h.106l.032.117.138.107-.043.148.319.139.106.286.149.149v.138l.117.086.074.3.212.244.309.212.308-.01.031-.085.053.01v.085l-.138.107-.043.319.1.183.149.085.021.159.2.32.1.01.031.01.043.061.183-.032.061.117.446-.031.276.085.061.138-.061.074.032.34.149.213,1.031.7.265.882.521.8.148.478v.244l.308.648.1.074-.01.213.191.106.182.266.011.149h.149l.053.116.16-.042.105.478.468.68.287.191.329.011.383.212.372.106.148.191.1.223-.053.319.085.8-.01.213.021.552.3.213.276.339.043.521-.053.223.33.148.222.3.277.17.4.061-.011.255.361.255.043.468.138.265.053.478.149.075.223.414.222.107.319.3.17.648.382.107.106.148.308.149.277.243.436.731.478.319.382.6.308.255.107.255-.1.266.16,1.062.2-.021.287.17h.361l.159-.117h.117l.2.149.415.074.053.223-.061.265.552.511.213.372.117.17.329.329h.106l.223.183.061.212.329.032.032.106.255.086.372.393.011.107-.107.116.021.731.351.8.393-.01.117.191.106-.043.138.107.427-.032.117.488.106-.011.149.085-.061.17.255.234h.34l1.052-.212.468.106.085.223.061.149.212.243h.383l.182.117.319.552.061-.01.542.487.467.085.487.266.139.148.234.075.393.52.159.415.128.107.308.6.6.744.159.074.17.563.138.043.213.372.148.106.022.287.255.478.074.191v.159l.085.011.149.212h.085l.011-.159.085.01.074.085-.061.183h.213l.117.106.117.3-.032.383.061.487.148.287.117.06.255.33.117.361.553.266.021.169H429.8l-.043.107.086.361h-.17l-.053.266.2.478-.17.52.1.138v.372l.265.372-.031.192-.043.031-.183.075-.212-.16-.17.16-.021.117-.117.01-.043-.436-.061-.138-.17-.117.043-.361-.053-.139-.183-.106-.182-.234-.2.01-.117.266-.487-.061-.5-.468-.1-.01-.148-.265-.478-.032-.183-.287-.69-.01-.266-.223-.308-.107-.212.183h-.1l-.213.637-.117.107-.116.415.01.265.446.447.478.042v.138l.149.234.183.085.052.183.183.213.053.7.277.183.148-.011.383.914.478.01.276-.159.106.01.786-.585.2.362.061-.011.011.117-.16.255-.01.234-.139.106-.031.223-.183.308-.01.138.085.117-.308.308-.106.415-.183.191v.3l.1.01.117.191.17-.074.1.032.011.074-.1.043.043.393-.1.138.213.361,1.275.139.06.159v.552l.16.032.061.213h.17l-.106.286.478.309.061-.011.021.117-.061.415-.106.106-.042-.061-.183.032-.117-.394-.255-.308.032-.308-.521-.563-.2-.086-.244-.255h-.054l-.085.149-.16.061.061.191.372.457.043.148h-.1l-.265-.34-.234-.06-.1-.183-.2-.043-.021-.265-.223-.191.021-.117-.393-.139-.9.67-.319.436-.2.138-.159.3-.032.266-.053.01-.043-.085-.159.074.053.382.361.043.159.117h.139l.053.117.233-.032.149.33.265.085.1.265.5.436.542.808.3.818.255.106.032.978.149.191-.032.511-.223.6.043.6.117.372.222.086.478-.086.712.234.075-.031.06.085-.021.212.33.33.255.52.1.061.521-.031.234.182.01.234.183.16.085.446.061.074.032.659.1.107.011.138.116.061.149.414.16.183h.138l.212.191.287.139.16.159.138.457.1.031.011-.116.117-.032.061.287.573.531.021.487.183.224.061.223.16.01-.043.16.149.414-.061.061-.011.3-.138.329-.117-.01-.053.183-.061.021.086-.4v-.074l-.061-.01-.032.191-.183.061-.021.265.106.117h.106l.213-.148.085.967.255.031.053.117.17.074-.053.457-.1.106.159.4.447.182.106.106.319.7.042.042.183-.042.159.085.043.287,1.435.329.074.149.032.329.159.061.138-.061.427.457h.148l.043.183.361.117.042.212.2.117.148-.01.075.085.467.074.1.149.17.031.061.234.487.011.17-.075.106.191.276-.042.16.061.426.648.2.043.17.159-.032.511-.053.106-.308.213-.061.191.117.234v.351l.308.35.138.351-.138.16-.148-.061v.148l-.139-.042-.159.074-.277.287.053.159-.074.107-.159.031-.17.213.106.149-.1.1.053.149-.107.308.117.107.149.074.042.5-.053.487-.032.183.061,1.02-.138.043-.061.117.043.478h.1l.106.116-.011.3.053.086.138.06.213-.031.148.031-.01.139.223.031.053.149.2.106.043.266.329.159h.061l.01-.074.255.01.053.117.128.086.117.061.169-.043.2.061.573.637.043.192.159.085.1.351.149.148.021.191-.1.149.075.138-.427-.191h-.127l-.329.3-.053.191.01.34.2.329.351.382.074.183.3.277.287.116.01.16.085.043-.085.276-.478.183-.074.138.329.276.308.086.1-.032.106.224.2.06.234.7-.234.085.043.032.234.031.584,1.775.244.061.414.616.277.149.351.871-.106.138.182.117.149.276.191-.105-.01-.149.117-.01.061-.16.276-.138.329-.085.309.074-.383.946.01.308.415.861.33.2-.011.351-.1.233-.2.139-.1-.061-.183.061-.182-.117-.106.031-.213-.308-.021-.182-.266-.086-.159-.3-.277-.043-.233.212-.373.882-.052.34-.309.149-.159.276-.021.183.095.426.053.106.138.042.061.3-.223.574-.361.234-.085.159.16.16-.043.4.234.681.212.106.138.223v.074l-.148.086.053.276.34.043-.319.339-.117-.031-.106.106.043.149-.043.159-.106.086v.138l.148.074-.074.16-.1-.138-.06.042.042.16-.17.3.075.521-.053.478.042.117.106.043-.042.255-.2.34-.011.308-.138.191.16.265-.032.3.183.223.159.074.061.33.061.138.074.106.521.16.234.183.414.085-.1-.2.053-.032.106.2.382.34.021.149.427.061.287.148v.191l-.011.139.213.159v.149l.159.106.427.085.042.149h.106l.138.183h.1l-.011.73.382.521.128.3.1.351-.117.159.234.01.1.117-.1.351.16.3-.117.061v.074l.2-.032.085.149.043.085.2.266.255.191.117.573.287.183.159.191.149.383.117-.011.021.139.074.074-.042.183-.213.074v.074h.213l.074.074-.01.427.329.669.107.383.01.754.106.277.043.117.182.265.075.234.329.255.213.712.169.138-.085.16.17.319.1.52.786.488.021.116.117.043.01.085-.085.011.043.234.276.223-.01.255.061.16.584.637.061.308.277.183.031.3.234.308.361.117.277.436.148.074.17.426.17.149.053.393.183.394-.149.616.074.68.33.659.414.351.1.182-.021.086.1.148-.2.16-.032.117.287.182.011.117.1.01.117.266.213,1.5.818,1.371.223.191.159.691.061.074v.244l.447.308.182.308.308.16.139.255.1.648.2.3.383.319.212.042.117.117v.139l.1.105-.1.277.043.255-.085-.074-.106.01-.061.223.159.2.255.011.4.3.223.3.223.764.149.032.085.149.127.606.01.414.436,1.148.256.659.446.731.085.5.149.265.318.415.861.393.085.128.256.117.329.861-.276.127.2.106.053.191.382-.183.16.032.053.074-.053.106.095.075-.053.265.1.127-.032.086.213-.011.308.69.021.234.223.382-.061.457.1.67.159.107.085.222.213.223-.021.191-.255-.074-.111.123.032.138.2-.031.011-.053.1.031.287.925.116.148h.17l.106.234-.148.2h.276l.277.183.669-.032.521.361.265.542.032.244.287.616.17.223v.266l.159.243-.106.117.01.117.2-.16h.117l.468.585.372.061.117.148.183.086.35.584.383.34.2.032.159.148.061.128-.1.06-.011.149.266.244-.032.191.107.382-.255.277-.022.159.213-.106.148.042.308.819.5.148.053.223-.053.457.1.074-.2.3-.042.191.053.106.182-.01.011.339.2.16.487.183.061.085-.022.117-.117.085v.191l.043.223.16.266.074.573.17.16-.053.223.17.265h.1l.086.106.182.468,1.127.881.182.351.447.532.053.69.17.361-.011.478-.085.191.106.086.053.393-.1.16.011.053.106.106.138.457.287.318-.138.244.117.2.382.106.213.149.361.584.223.223-.043.361.149.319-.053.5.223.3.149.361.138-.032.106.074.061.308-.053.16.043.318.053.075h.106l.021.106-.021.074h-.086l.043.776.382.892.117.011.7.893.4.308.256.351.436,1.222-.061.01-.011.2-.138.222.223.032.1.426.127.032-.149.616.213.585.234.382.159-.011.117.074.84.989.7,1.105.043.34.223.223-.061.182.011.351.287.468.148.542.16.106.182.308-.01.117-.255.233.234-.117h.159l.183.244.117.351.318.223.223.308.16.053.382.361.021.17.213.234.265.627-.042.149.053.223.372.467.138.351.117.106.265.5-.01.447.361.712-.042.446.106.053.06.223.361.467.277.075.053.191.148.127-.053.117.149.2.01.308.542.914.061.627.427.361.105.382.213.287.606.478.01.447.127.446-.372.563-.182.5.021.244.16.117-.086.074v.149l.149-.043.061.308.1.011.043.127.061.01.085.17.234.16.34.318.106.223.148-.053.061.074.085.427.17.361.2.191.106.265.4.351.043.4-.117.234.117.467-.022.542.373.266-.086,1.031.107.754.223.149.106.286.182.128.011.085.436.478.531.318.117.17.383.287.286.426.106.436h.2l.117.106.488.638.06.191.061.053h.234l.183.446.212.244.022.329.446,1.1-.032.542-.106.319-.148.2.042.117-.138.468.1.053-.011.074.308.552.393.127.426-.031.117.117-.031.17-.234.127-.2.637-.011.277.053.329.319.117.042.16.542.552v.127l-.339.308.01.107.276.074-.085-.148.053-.106.627.021.213.243.117.755.34.68.169.074.183.234h.138l.149.149.255.085.16.17.021.318-.277-.053-.105.16-.351.085-.223.2.148.765-.2.319-.182.085-.223.234-.085.318.042.234.223.351.542.35.16.244.159.053.17.329.308.309.074.052.606.043.487.372.1.16v.276l.074.16.106.148.223.043.074.085v.16l.061.01-.182.287-.075-.01v.074l.308.234.061.286.223.192.255.487.117.487.487.69.628.468.68.149.053.436.182.286.436.234.139.149.531.17.1.17.319.191.265-.032.2.053.022-.085-.1-.01.021-.117.649.074.01.446-.053.011.2.276.117.521.17.042.061.17.17.032.372.51.16.1h.06v-.1l.16.01.319.2.159.243.183.032.085.308-.117.043.308.563.765.84.16.276.116.043.606.828.532.893.085.776.319.106.053.17.117.117-.086.213.319.265v.085l-.2.128-.128.361.053.17.17.2.043.212.095.011.17.286.266.244-.011.085.256.478.265.149.117.212.183.043.085.244.265.2.043.117h.149l.138.117.042.159.319.149.2.127.031.149.16.031.255.191.021.075h-.074l-.117.17.138.286-.074.149.1.117v.149l.276.191.149-.043.265.043.234-.149.021-.234-.148-.127-.1-.446-.213-.117-.255-.266-.2-.117-.159.053-.139-.159.787-.149.276.394.149.074.042.191.17.053.277.33h.116l.16.191.731.01.329.319.2-.011.192.1.169.308.532.255.446.51.022.2.222.17.061.394.255.361.061.4.139.318-.032.51.106.287-.1.319.061.308-.138.148.01.213.117.074.532.074.487.33.159.01.17.213.2-.032.116.149.319-.011.436-.2.744-.032.415.234.414-.011.427.128.595.169,1.222.606.764.511.16.212.138.043.223.243.308.468-.061.16.223.265.061.244-.011.318.117.255.053.372.329.319.1.243.393.16.149.159v.394l-.106.318-.074.011-.16-.521-.223-.266-.2-.116L533.8,417l-.318-.234-.5-.149-.308-.01-.117.148-.277.128-.053.1h-.255l-.234-.042-.286.234-.17.243-.585.244-.393.435-.17.032-.606-.106-.149-.234-1.179-.457-.319-.308-.52.127-1.052.086-1-.287-.2-.17-.061-.191-.255-.075.01-.191-.191-.191-.074-.2-.183-.085-.043-.117-.17-.053-.637.117-.712.456-.532.234-.042-.053.061-.085.329-.17.16-.17.318-.085.468-.255.319-.043.1-.1-.1-.16-.234-.149-.2-.031-.223-.2-.468-.128-.169.011-.585-.287-.361-.043-.426.086-.244.191.053.212-.053.053.138.17-.1.117.01.149-.01.117-.032.148.2.043.032.276h-.077l-.223-.042-.074.319.042.053-.148.053.031.106-.095.191-.128.01-.031.16-.1-.043-.138.308-.138-.011-.139-.351-.138.117.1.117-.106.17.361.244-.043.191-.127.074.17.128-.043.169.149-.042-.01.117-.086.042.043.128v.127l.117.191-.138.191.061.4-.086.255.086.244-.086.042-.021.361.149.213.106.351.095-.011.011-.6-.107-.308.074-.053.085.075.043.243.032.553-.223.573-.061.032-.149-.127v.319l-.159.053v.286l.117.308v.373l.061.191-.053.148.053.117-.139.1-.031.127-.107.01-.138.394-.053.659.085.243.117.043-.117.287.266.159.085.2-.01.2.106.159.372.117.106-.107-.085-.169.085-.032.223-.6.234-.117.308.043.255.73-.106.362.021.436-.234.233-.138.011-.01-.3.095-.319-.117-.074-.255.031-.106.149.1.1-.542-.011-.117.127.01.128.16.234.265.085.011.127.361.17-.043.329.149.606-.032.17.17.393-.061.16.1.287-.061.372.031.637.149-.1.149.212-.234.808-.032,1.392.085.436-.339.01v-.085l-.2-.2-.169-.68-.213.074-.127.212.1.33-.117.191.086.043.042.148v.351l.117.1.1-.011-.011-.351-.06-.1.222.085.043.638.213.764-.061.277.095.106v.213l.308.212.011.139-.061.117-.159,1.253-.107.234v.457l-.169.318.042.117.117-.191.043.234-.532.967.01.276-.095.011v-.255l-.127.169.01.149.223.01-.085.277-.308.148-.1-.042-.01.074.169.435.086-.074-.061-.191.127.074.085.7.149.446.043.446.478.319-.053.085.233.17-.01.127.085.138.086.075.159-.011.183.394.361.456.308.256.053.3.351.84-.1.255.17.277.138.042-.085.255.1.2.031.362.106.031-.085.16.17.319.053-.213.117.17.061.394-.106,1.6.106.372-.117.085-.053.4.17.691.042.73.2.086.053.286.468,1.053-.16.73.011.256.148.361-.01,1.031.265.116.33.34.276.085.011.287.183.383.106.487.765.818.138.532.183-.011-.043.192.212.286-17.214,16.259-2.314,2.189-11.2-3.326-1.254-.3-12.39,28.776-5.856,1.084-1.073.117-.106.085-1.456.266-.84.085-.35.117-4.379.807-1.03.128-.277.1-10,1.87-3.506,10.393-43.964-.1-29.837.1-20.764.031-.957-.042-3.029.074-3.846-.183-2.784.043-.542-.053-16.514-.053.564-2.444.672-2.462,8.618-2.923,2.923-1.53,2.082-2.083,1.53-3.336,4.538.722,2.88-1.243,1.477-1.838,1.115-2.083,1.254-3.06.415-2.508,1.254-4.729,2.922-.69L366,487.4l1.552,2.019,2.5,2.423,3.653,1.616,3.124-.936,2.787-.841,3.337-2.923,3.953-2.6,2.9-1.69,2.454-2.74,1.254-3.623-.276-5.887,3.177-1.743,3.358-.34,2.784,1.945,1.944,1.254,2.731.818,3.061-.457,1.551,2.041,2.933,3.124,2.88.426,1.265-2.146-.223-3.517-2.37-3.741L412.8,467.4l-1.084-1.042-3.209-.265-2.635-2.625-1.042-.9.075-1.275,1.392-1.5,1.317-2.178,1.18-1.424,1.668-1.732,1.116-2.179.69-2.327.829-1.2.255-1.456-.828-1.551-.881-2.033-1.668-.383-1.042-3.612-.074-2.487.415-2.338.627-1.052.765-.776.17-1.955-1.142-.433-.212-4.814-1.53-1.732-1.728-.98-1.042-1.892-.35-1.508-.213-1.966-1.257-2.264-.978-1.211-.351-3.177-.829-1.966v-6.408l1.084-3.776.138-2.518,2.115-3.156,3.39-2.816.415-4.263-.244-1.657-3.251-5.43-2.03-4.8-.16-10.18.1.223-.1-.223-.487-3.55-3.506-5.845-4.612-3.209-1.945-1.881-2.539-1.583-2.784-2.529-1.645-2.614-.852-2.689v-5.717l.852-1.945,1.827-1.945,2.01-3.294,6.131-4,2.093-3.349,1.849-5.845.2-1.157-.032-3.847-.372-3.645-1.2-2.635-.659-2.314-1.522-2.436-3.6-2.435-4.76-1.02-6.461.061-2.624.881-3.114,2.168-2.2,1.626-1.523.807-1.8.128-2.083-.936.2-1.742-.361-.139-2.178-2.975-1.1-2.752-1.924-1.413-4.282-1.286-2.9-1.827-.861-.9-1.232-1.881-1.286-3.825-.457-3.167-1.743-.563-1.041-1.36-.487-1.7-2.136-2.721-6.185-5.164-2.74-1.009-.532-.351-.552-2.657-1.583-4.08-2.445-4.018-1.492-3.262-1.371-.967-2.72-2.306-3.018-2.314-1.456-4.7-1.421-.8-2.221-1.115-1.222-.106-4.134-1.616-1.477-1.137-3.612-1.263-1-.487-1.572-1.859-.649-1.658-.616-5.008.712-3.6.393-3.56-.265-5.037-1.191-3.857-.531-6.238-3.563-8.181L298.4,188.4l-.127-2.38.8-2.984,1.317-2.391,1.191-1.945,1.243-1.817.043-2.635.074-4.559,1.361-3.943.487-1.721-3.961-.533,2.922-.946.659-3.889,3.167-5.4,2.242-.9,1.456-2.253.924-1.8,1.583-2.253,2.37-3.008.8-.754.127-3.454,1.849-1.509.127-3.3.128-1.509,2.869,2.679,2.168,2.242,3.315,5.047,3.55,2.487Z" transform="translate(2229 282)" fill="none" stroke="#3d3e40" stroke-miterlimit="10" stroke-width="2"/>
    <path id="Path_3121" data-name="Path 3121" d="M277.325,11.375l.106.183-.043.061-.319-.075-.138.1-.361.042-.085.075-.075.606.011.061.17.06.01.107h.149l.06-.1-.06-.106.169-.183.234-.032.436.244.061.107.17.01.01-.107-.138-.1-.053-.2-.17-.17.022-.061.478.542.414.106.043-.061-.117-.06-.01-.1-.266-.138.043-.138-.277-.234-.042.074-.061-.043.031-.1h.061l.34.074.032.127.531-.127.022.107.446.138.255.243.436.1.988.446.436,5.207,2.965,3.422v7.334l3.893-.37,5.706,5.377-.01,3.007.829.478.828.8-.138,2.8.893.319v2.795l-.616.723,1.031.478.414.478.061.723.829.956-.552.957-.891.881v1.753l.691.244-.138,1.753-.34,1.2.34,1.36.935-.117-.277,4.949.139.427,1.137.074-.488,1.934,1.254.935-.276,1.838.616,1.637.106,4.282-.085,1.966-1.477.17-.149,1.934-7.353,7.523-2.826.372-7.864,7.938-5.037,6.941-.786,1.392-.8.478L272.2,96.9l-1.786-1.127-3.007-.584-8.034-5.951-2.082-1.02-6.769-5.359-4.527-.148-3.358-1.636-1.349-2.158V72.837l1.522-4.484,1.509-2.211,1.9-.276,4.145-1.349,5.217-2.476,5.377-8.034-5.972-6.843-2.427-3.974,1.243-2.221.744-2.933L252.1,35.879l3.4-2.806,4.843-2.792,1.265-3.337,1.179-1.924.022-2.37.435.17L264.4,23l.1.183.871-.061.138.074.308.032.053-.139.16-.031-.086.1h.149l.074.128h.106l.061-.128.061.234.308-.138.351-.032.053.139.043-.213.744-.1.021-.074,1.169-.435,1.318-.712.223-.277.649-.435,1.1-1.02.372-.435.061-.213.17-.061.042-.159.17-.138.043-.16.223-.234.308-.542-.01-.127.085-.032.086-.243.17-.213.116-.382.362-.68.053-.308.2-.34.286-.808v-.159l.106-.149.309-1.157.148-.35.1-.075-.043-.095.106-.532.053-.17.149-.159-.032-.075.487-.51.818-.2Z" transform="translate(2229 282)" fill="none" stroke="#3d3e40" stroke-miterlimit="10" stroke-width="2"/>
    <path id="Path_3122" data-name="Path 3122" d="M246.456,161.525l1.934-2.518.415-3.337.627-5.951,1.256-5.281.074.01.183-1.147,3.039.446,6.068.754,11.349,2.1,2.242,1.2-.183,1.8,1.063.426,1.522-.1,23.9-6.673,6.014-9.425,3.688-5.568,3-2.168.061.372.564-.829,2.454,1.031,2.412.553,1.01.669v1.753l.138,2.859-.138,1.509-.128,3.3-1.848,1.5-.128,3.464-.8.744-2.37,3.007-1.583,2.253-.924,1.8-1.456,2.253-2.242.893-3.166,5.4-.659,3.889-2.923.946-3.071-2.136-2.582-1.5-35.5,1.18-1.616-.032-9.021.308Z" transform="translate(2229 282)" fill="none" stroke="#3d3e40" stroke-miterlimit="10" stroke-width="2"/>
    <path id="Path_3123" data-name="Path 3123" d="M348.423,79.745l.16,3.783,1.306,4.527.691,5.185,1.36,9.129-.043,4.622-2.327,27.065-.829,15.132h-1.306l-6.886-1.679-4.76-1.87-4.718-.67-3.443-2.486-3.316-5.059-2.168-2.242-2.869-2.679-.138-2.858v-1.753l-1.01-.67-.563-.127-.223-1.616.192-1.573.318-.8.807-.573.319-.712.061-1.722.308-.648.563-.861v-1.934l.127-2.157.192-1.212.818-.648.117-1.01v-1.073l-1.127-1.01-.127-2.082.061-.8,1.3-.149.043-.807.107-8.16-2.817-.967-.182-1.934-.989-1.743.967-.754-.169-6.11,2.05.213,1.977-1.8,4.676-1.881,4.792-.319H336.6l3.35-2.019,6.684-4.676.01.309.3.106Z" transform="translate(2229 282)" fill="none" stroke="#3d3e40" stroke-miterlimit="10" stroke-width="2"/>
    <path id="Path_3124" data-name="Path 3124" d="M323.411,8.962l.265.107.061.106.319.138.043.086.9.35.574.468,1.157.606,1.052.69,1.212.564.775.487.266.031.17.139.182-.032.319.223.542.183.531.3.457.107.183-.043.191.107.308-.053.127.021.183.107.223-.1v1.922l-1.658.872-1.657.67v1.644l2.582-.043,1.892-.255.106,2.146,1.052.213,1.275.67,1.02.978-.361,2.635-.808,4.144,4.357-2.125,3.326-1.848,1.827-.415,1.966.287.532-.277.222-.51.1-.67.446-.032-.031.287-.319.731-.031.5,2.953-.053.223-.446.351.382.755.436,1.466.287.467.764.192.819-.383,1.211.574.542.415.852.52.468-.265.329-.192.511.061.786.415.223-.191.061-3.56,1.37-4.421.6-.988.2-3.815-.074-1.157,1.924-.157,2.109-3.061,3.167-.148,3.071-2.412.191-.17,1.732-1.4.765-.223,1.562-9.372.255-1.4,1.243v6.9l.893.818-.984,2.52-2.146,2.115-1.244-.074-1.137-1.9-.967-.628.011-.127,1.318-1.349-.138-3.667-.712-.3.094-1.073-1.042-1.116-.329-3.549.255-2.679.659-2.88.329-2.4,1.074-1.243.829-.478,1.031-2.507-2.314.3-2.03.139-.243-.117.339-1.626.67-1.137-.106-3.166,1.743.329.744-.574-.255-1.806-.076-11.29-.487-1.062-.085-3.082-1.157.1-.085-2.221,1.073-.967,1.307.107-.021-2.87.573.2.5.362.676.3Z" transform="translate(2229 282)" fill="none" stroke="#3d3e40" stroke-miterlimit="10" stroke-width="2"/>
    <path id="Path_3125" data-name="Path 3125" d="M353.516,14.117l.309.276.042.234.542.945.574.415.382.446.1.011.223.265.426.277.223.276.318.17.255.308.383.213.223.234.329.159.061.107.4.182.223.213.138-.011.606.266.339.276.086-.01.329.244.17.031.468.34h.138l.159.2.5.3.053.138.308.138.042.1h.1l.213.234.116.061.107-.061.17.043.308.51-.7.117-2.349-1.488-1.424-.7L357.636,19l-1.019-.957-.829-.669-.957-.447-.924-.255-.67.127.16.351.861.383.1.286-.51-.031-.606-.255-.51-.638.861-.765.1-1.2-.573.032.1-.542.308-.3Zm-4.452-2.944.16.8-.17-.1-.106-.244-.011-.361Zm-.2-1.06-.106.106L348.4,9.89l-.074-.16.085-.095.415.319Zm1.318.061.127.467.223.309-.308.487-.382-.117-.1-.415-.287-.637-.52-.415-.1-.183.032-.182.234-.075.5.914.266.265.074-.074-.266-.468-.138-.723.053-.148.244.117.085.52.255.351Zm.255-1.127.308.107.053.095.148.011.086.106.308.16.042.085.183.061.786.946.436.382.712.436.17.265.159.351.106.68-.182.308-.17.061.17-.308-.022-.1h-.106l.117-.095.043-.234h-.053l-.053.17-.1-.011.1-.329-.2-.3h-.085l-.061-.351-.106.061-.053-.243-.085-.043.095.67-.061.616.011-.712-.182-.67-.043.061.117.34v.213l-.1-.011v-.308l-.17-.435-.17-.17-.212-.061-.223-.34-.17.061.043.266h.053l.042.2.086.074.106.478.148.3.085.467.183.234.061.213.138.095.061.33.138-.552-.053.573.117.34.234.34-.053.061-.426-.691-.266-.223-.17-.414-.265-.183-.329-.882-.427-.183-.159-.339-.032-.3.061-.138-.783-.8-.223-.107-.223-.456-.191-.191.5-.043Zm-2.593,11.859-.487.521.138-.053.351-.468.17.085-.487.638-.256.659-.148.053-.487-.183-.174.377.117.457-.085.329-.138.053-.436-.361v.329l.372.427.487.01.061.159-.148.107-.521.032-.061.265.053.213.308.182-1.891.427-3.326,1.848L336.9,29.148l.808-4.154.361-2.636-1.02-.967-1.275-.67-1.052-.212-.107-2.146-1.891.255-2.572.031V17.007l1.658-.68,1.657-.871V13.533l.51.031.213-.074.16.043,2.07-.468.318-.01.16-.107.085.032,2.253-.649.487-.074.638-.244.436-.061.223-.127.361-.061.138-.106.637-.213.053-.074.1.01.17-.542-.106.978-.183.616.149.107.17-.1.552.638.16.043.01-.139-.277-.243.117-.436-.276-.074-.043-.106-.1-.032-.107-.34.138-.243.2-.075-.1-.35.053.106.318-.032.755-.435.913-.4.7-.552.786-.468.372-.372.1.032.053.149.139.031.573.1.255-.1.266.061-.446.138-.521.511-.213.764.266.043.308-.223.01.255-.361.659.361.426.043.34.487.532-.021,1.126.243.394.032.361-.183-.043-.255-.606-.9-1.062-.351.061-.031-.468.074-.183-.085-.127-.277.17-.382.5-.085.914.053.182.924-.552.107.061.031.127-.106.17.436.053.139.34-.234.426.276.3.183.467h.255l.138-.085.552.075-.594.531-.436-.021-.755-.234-.243.426.191.446-.128.383.17.032.234-.16.1.2-.213.266-.754.106-.223.16.595.319.4-.074.106.456.584.191.234.17.361.1.308-.234.183.308-.183.2-.637,2.094Z" transform="translate(2229 282)" fill="none" stroke="#3d3e40" stroke-miterlimit="10" stroke-width="2"/>
    <path id="Path_3126" data-name="Path 3126" d="M250.94,143.3l6.737-7.661,2.242-1.063,7.386-8.725,1.583-.148,6.588-7.545,3.964-1.052,4.217-2.72,4.219-2.869,1.721-.3,2.667-1.6,1.541-1.318.138-1.157L308.82,107l-.191,1.487-.107,2.954.819,1.02,1.413,2.976.819,5.345.807,3.645.255,1.668-3,2.168-3.688,5.568-6.014,9.426-23.9,6.672-1.523.1-1.062-.426.182-1.8-2.242-1.2-11.349-2.1-6.068-.754Z" transform="translate(2229 282)" fill="none" stroke="#3d3e40" stroke-miterlimit="10" stroke-width="2"/>
    <path id="Path_3127" data-name="Path 3127" d="M311.425,57.015l-.5-1.286-4.708.053-.4-.861-1.232-.053-.074-.957h-2.572l-.159,1.053-3.741.467-.935.117L296.75,54.2,297.1,53l.127-1.753-.68-.244V49.247l.893-.882.552-.956-.829-.957-.061-.723-.414-.478-1.042-.478.628-.722V41.256l-.9-.319.138-2.8-.819-.808-.828-.478.01-3,.6.552,2.04,3.708,1.307.011.319,1.115H303.1l.17-1.073.243-.946,5.547.1v-5.96l1.01.074,5.525-.456,1.6.074,1.286-.032.106,3.273-.67,1.137-.34,1.626.244.117,2.029-.138,2.314-.3-1.031,2.507-.829.478-1.073,1.244-.33,2.4-.658,2.88-.256,2.679.33,3.55,1.041,1.115-.1,1.074.712.3.139,3.667-1.316,1.348-4.019-1.849-3.283-.022-.061-1.1Z" transform="translate(2229 282)" fill="none" stroke="#3d3e40" stroke-miterlimit="10" stroke-width="2"/>
    <path id="Path_3128" data-name="Path 3128" d="M318.236,86.046l.17,6.11-.965.754.988,1.743.183,1.934,2.816.967-.106,8.159-.043.808-1.3.149-.061.8.127,2.082,1.127,1.01v1.073l-.117,1.01-.818.648-.192,1.211-.127,2.158v1.934l-.563.861-.308.648-.061,1.722-.319.712-.807.573-.319.8-.191,1.573.223,1.615-1.849-.426-2.455-1.031-.563.829-.318-2.04-.808-3.645-.818-5.346-1.414-2.975-.818-1.02.107-2.953.191-1.488-14.877.138-.139,1.157-1.54,1.318-2.667,1.6-1.722.3-4.218,2.869-4.219,2.72-3.963,1.053L268.9,125.7l-1.583.149-7.386,8.724-2.242,1.062L250.95,143.3l-.182,1.147-.075-.01-1.253,5.281-.628,5.951L248.4,159l-1.934,2.519-1.211,4.612-1.679,3.081-1.254,3.56-1.679,5.7-1.253,5.919-2.519,2.369-2.728,2.139-5.026,3.3-3.985,3.549-2.72.712-2.731,2.125L215.7,200l-4.4,3.3-3.358,1.644-5.654,1.19-1.678.935-1.679,1.18-.829,1.891-.426,2.359-.627,1.881L196,216.735l-1.467,2.933-60.336.148h-2.082l21.667-48.275,44.512-10.69,34.3-33.738,6.864-8.809,7.035-1.733,24.1-15.94,3.262-.426.808-.478.775-1.392,5.037-6.92.946.042-.946-.042,7.865-7.94,2.827-.373,7.353-7.523,1.53-.127.723-.616,2.221.148.1,3.379,1.509-.074.965.947.074,1.913.961.944,1.732.319.853-.957.945.553.808.2,2.07-.7v-.085l1.753,2.954,2.561,1.573Z" transform="translate(2229 282)" fill="none" stroke="#3d3e40" stroke-miterlimit="10" stroke-width="2"/>
    <path id="Path_3129" data-name="Path 3129" d="M363.983,32.171l.061.213,2.848-.521.764-.807,1.053.2.595,1.711,2.337.183,2.061,1.031,3.39,1.232,3.188,2.062,3.277.86.255,7.246,1.116,18.682,3.41,5.366,1.774,3.155,1.5,4.092.818,2.964-6.1-.286-4.9.553-1.839,1.5-6.524-.457-2.8-.861-19.787.117-2.029.192-.032-.84L346.949,76l-.3-.107-.021-.308-1.063-5.207-.446-4.845-1.785-.925-.183-1.753,2.412.107.446.924,4.019.2.627-.924,5.359-.308.276-1,5.037-7.162-.085-2.879-.97-4.1,1.924-4.367.244-1.956,1.806-.053-.212-5.993-2.083-.1-.712-1.286-.711-.914-.043-.308.308-.319.818-.426-.031-.33-.244-.265.032-.532,1.36-.01-.01-1.966.426-.531.51-.043.244.415.032.723.148.456-.3.468.053.213.427.053.17.2-.086.637-.361.68Zm2.115-7.1.4.521.606-.351-.032.319.192.277.339,1.211-.148.393-.329-.191-.468-.061-.563-.4-.277-.061-.17.447-.446.3L364.812,27l-.5.085-.552-.243-.6.286-.723.061-.329-.243-.138-.394-.564-.52.086-.372.51.085.021-.468.426-.159,2.051.053.415.319.457-.277.722-.138Zm-1.541-2.816.061.1.159.042.6.1.383.138.393.032.287.17.68.01.426.183-.339.393-.564-.234-1.073-.234L364.4,22.29l.159-.031Z" transform="translate(2229 282)" fill="none" stroke="#3d3e40" stroke-miterlimit="10" stroke-width="2"/>
    <path id="Path_3130" data-name="Path 3130" d="M490.712,122.694l.022.117-.086.061-.042-.148ZM395.173,98.158l1.987.074.255-.3.021.127,7.024-.457,10.382.308,8.884,1.254,1.084.308,4.526-.074,8.714,2.04,1.881.914.053.117,8.469,5.323,3.55,2.349,3.825,1.254,4.1.935,6.418,3.911.086-.032.967.3,2.8.935,2.783,1.137,1.523-.128.329.287,4.1.627,3.688.309,3.963.775,3.974-.159,2.54.616-.329.351-.213.106-.212-.075h-.319l-.478.277-.414.138-.17.426-.351.17-.061.4-.117.183.061.393-.17.5-.531.67-.266.032-.1.17-.277-.149.213.287.021.191-.16.117-.265.074-.16.139v.074l-.1.01-.011.17h-.1l-.043.319.1.319-.149-.01-.085-.085-.212.061.106.573-.061.33-.223.243-.1.223-.127.043-.319-.043-.212.074-.128.213-.085.182v.33l-.106.138.032.457-.16.361-.182.117.01.042.16-.031-.107.085-.213-.032-.414.106-.2.319-.043.192-.234.148-.061.468-.446.2-.061.106.01.435.2.394-.011.243-.223.457.085.9-.117.276-.319.3-.032.138.106.223.086.691.095.1.1.361-.053.183.061.277-.1.074-.043.287.061.138-.061.117-.105.031-.106.532-.183.3-.4.287-.17.818-.807.138-.255.138-.183.223-.1.427.106.191.011.212-.138.244.042.191-.159.255v.223l-.117.107.106.255-.183.117-.183.68-.182.17.265.435v.107l-.061.286-.182.17-.022.139-.1.074v.191l-.106.117.042.276-.085.061v.107l.149.3.021.382-.149.3-.286.3-.043.212.053.061-.085.01.042.075.1-.061.106.286.138.061.011.086.074-.011-.021.17.106.043.01.138-.053.287.488.5.042.436.053.06-.1.213.1,1.009-.212.244-.649.183v.17l-.255-.075-.468.139-.2.382-.372.212.032.183-.138.33.053.531.372.426.01.33-.265.276.1.457.138.255-.053.277.149.426-.106.212.021.33-.17.287.106.169-.074.244.149.372.01.287-.149.276-.637.149-.17.287-.287.255-.053.191-.031.51.169.361-.138.351.223.244-.085.372.053.191-.053.478.061.074-.061.319.053.139-.085.329.169.4.011.212-.074.213-.1.042-.032.244-.127.117.021.426-.053.117.255.436.086.3-.213.223-.265.722-.183.192v.148l-.223.319-.074.351-.287.287-.085.265-.287.244-.117.287-.3.212.117.351-.042.223-.149.148-.3.117-.1.138-.032.256.255.286.011.192-.117-.032-.16.319-.011.212.1.3-.255.075-.183.222h-.149l-.138.086-.1.255-.3.061-.234.711-.061.043-.053.935-.234.33-.182.085-.043.149-.17.106-.287.468-.329.319-.053.329-.1.117-.021.731-.138.765.339.5.086.436-.183.106.01.244-.2.731-.265.478-.436-.149.308-.032.053-.061-.043-.169-.212.06-.149-.138h-.212l-.4.138-.074.361-.234.139-.053.255-.106.032-.16.3-.01.511-.1.255-.265.223-.234.031-.138.17-.043.446.117.213v.183l-.287.573-.061.511-.182.243v.5l.1.139.011.182-.061.213-.223.265-.085.415.031.223-.222.212-.309.139-.117.286-.2.086-.1.117-.107.552-.329.4-.138.3.116.3-.138.149-.042.435.074.117-.16.436.086.191v1.031l.074.191v.34l.148.191.149.468-.053.319-.183.255.011.415.139.446.286.478-.106.213.149.106.043-.106.106-.011.223.191-.2.075-.061.287.329.116.183.223.032-.255.414.478-.06.17h.212l.17.627-.032.7-.061.182.053.33-.061.138-.222.117-.011.17-.149.191v.213l.1.222-.022.287.106.117-.1.33.061.138-.1.17-.149.061-.042.265.01.213-.053.138-.042.393-.2.183-.011.138-.169.17.06.6.1.106v.117l.234.117.2.255.01.287-.117.33-.042.627.234.329.042.213-.487,2.253-.34.148-.1.3.17.213-.075.148-.148.032-.011.106-.255.287-.2-.01-.2.138h-.415l-.1.149.01.117-.149.085-.06.148-.415.043-.01.287.1.361-.148.074-.061.17-.149.085-.183.075-.233-.011-.086.075-.1.148.106.223-.011.234-.138.223-.243.074-.183-.138H466.5l-.276.159-.032.183-.074.074-.2-.042-.2-.16-.243-.043-.255.117-.022.117.183.17-.213.67.032.234.117.212-.415.223-.053.234.149.212.061.3-.234.244-.16.84-.3-.117h-.1l-.106.138-.149-.011-.183-.222-.138-.553-.2-.074-.149.106.032.149h.17l.053.085-.17.148-.106.287-.127-.074.061-.3-.1-.085-.117.138-.468.074.061.287.107.043.021.467-.255.383-.085.3-.33.074.011.117.138-.011.1.107.031.255-.212.213-.1.637-.2.487-.183.043-.276.01-.394.192-.255-.436-.1-.011-.255.255-.17.075-.308-.149-.183-.223-.061.043.01.191-.17.061-.159-.032-.032.3.106.287.351.34.061.255.234.191.117.01.106-.106.648.106.287-.159.487.074-.061.191-.127.106.074.223-.061.117.16.287.061.552.212.393-.053.075-.085.138-.183-.01-.329-.468-.032.223.213.117.061.212-.139.149h-.148l-.255-.16.053-.34-.107-.159.011-.117-.2-.061-.383-.329-.286-.34-.223-.478-.2-.16-.061-.255-.33-.287-.085-.222-.148-.106h-.213l-.117-.183-1.211-.34-.266.138-.031.139-.649-.34-.223-.011-.265-.222-.372.031-.638-.117-.669.075-.5.361-.138-.4-.521-.17-.148-.148-.277-.011-.754-.446-.053-.107-.308-.159-.17-.447-.17-.212-.426-.287-.223-.446-.234-.107-.074-.148-.17-.032-.277-.234-.01-.148-.329-.511-.183-.085-.183-.234-.085-.234-.074-.255-.149-.435-1-.138-.053-.223-.106-.032-.487-.042-.043.138-.061-.011v-.148l-.213-.372-.658-.691-.532-.67-.01-.339-.234-.255-.372-.107-.7.329-.435-.138-.16.061-.053.138-.2-.074-.106-.34-.223-.223-.2-.372-.286-.339-.712-.309-.521-.361-.2-.061-.117-.138-.183-.01-.487-.818-.148.01-.117-.107-.107.011-.021-.308-.6-.766-.329-.061-.149.075-.061-.183-.637-.33-.17-.01-.106-.446.339-.521-.169-.255-.149-.4-.061-.061-.212.011-.223-.149-.277.061v-.212l-.382-.183-.106-.106-.117-.149-.382-.243-.468.085-.2-.34.2-.308-.01-.159-.16-.192-.01-.191-.266-.182-.234-.362-.319-.308-.106-.329-.222-.234-.139-.6-.117-.148-.329-.086-.149-.117-.1-.807.042-.521-.138-.3-.2-.117-.5-.032-.138.266-.022-.415-.308-.043-.183-.106-.308-.213-.223-.3-.06-.393.042-1.074-.117-.552-.011-.435-.276-.319-.043-.17-.223-.183h-.106l-.182.074.138.266-.01.085h-.086l-.361-.361-.117-.212-.2-.17.043-.415-.277-.107-.053-.159v-.616l-.5-.17-.106-.468-.33-.731-.308-.148-.521-.061-.818-.807-.552-.149-.255-.149-.287-.042-.372-.191-.33-.362-.276-.436-.33-.222-.329-.106-.085-.183-.574-.149-.117-.169-.255-.17-.255-.043-.786-.426-.011-.138-.138-.075-.061-.182-.182-.149-.117-.074-.266-.223.011-.107-.106-.191-.33-.243-.148.042-.17-.7-.213-.043-.011-.191-.182-.074-.574-.574-.318-.446-.086-.266-.212-.3.042-.584-.116-.319-.107-.107h-.183l-.17-.287-.255-.243-.729-.137-.032-.085-.277-.212-.2-.011-.053-.286-.212-.213-.2-.061-.117-.191-.149-.032-.393-.329-.34-.616-.468-.223-.182-.649-.1-.106-.053-.351-.913-.616-.053-.255.318.01.1.223.212-.032.032-.117-.107-.148.128-.086v-.138l-.075-.061-.031-.552-.254-.4-.074-.361-.255-.255-.659.043-.329.085-.043.243.2.107.1.266.106-.011.011.117-.075.043.1.148-.085.086.148.06.061.139-.061.106h-.162l-.085-.117-.159-.191-.234-.723-.308-.393-.117-.265.061-.585-.075-.223.043-.243-.234-.511.021-.17.086-.106.053-.4-.075-.223-.542-.584.061-.107-.212-.265-.085-.32-.139-.372-.06-.3-.117-.107.117-.446.138-.213-.053-.148.212-.436.1-.286-.043-.468.053-.468.361-.361.053-.223.117-.106-.061-.266.16-.148.021-.33.308-.627.011-.244.182-.5-.17-.265-.487-.447-.117-.542-.1-.212-.128-.085-.085-.532-.212-.032-.34-.329-.106-.085-.2-.139-.117-.182-.053-.138-.308.074v-.244l.085-.01.021-.107-.117-.319-.169-.01.031-.244-.2-.456-.061-.3.011-1.148.308-.552-.032-.319-.1-.149-.182-.085.061-.277.222-.255.149-.361.16-.042.148-.478-.053-.223-.2-.244-.1-.148-.021-.17-.159-.149-.011-.138-.159-.085-.139.031-.148.223-.107.011.255-.32-.021-.06h-.138l-.085-.043.212-.074v-.691l.138-.394-.031-.265.085-.361.149-.192.138-.426.053-.616-.415-.361-.234.061-.34-.075-.212-.3v-.287l-.149-.255-.52-.183-.213-.243-.182.06-.1-.169-.213-.032-.1-.372-.2-.244-.061-.01-.117.138-.1-.148-.487.074-.372-.149-.061-.573-.531-.17-.256-.287-.222-.085-.043-.319.117-.223-.01-.5-.244-.182-.127-.2-.17.061v-.223l-.17-.244-.234-.085-.053-.223h-.085l-.223-.3-.542-.351-.159-.191-.17-.435-.2-.244-.169-.031-.139.074-.2-.138-.031-.287-.266-.183-.265-.426-.043-.255-.117-.032-.2-.287-.308-.148-.7-.061-.159-.244-.043-.182-.255-.213v-.117l-.117-.276-.426-.638-.085-.319-.755-.243-.627.148-.3-.414-.51-.511-.223-.117h-.223l-.255-.243-.149-.032-.053-.106-.2-.106-.117-.542-.233-.213-.032-.308-.085-.085.286-.786-.127-.117-.01-.223-.2-.138v-.139l-.183-.182.032-.287-.255-.329-.4-.287-.138.061-.319-.043-.043-.3-.255-.382h-.182l-.33-.149-.01-.5-.074-.2.17-.3v-.287l-.1-.35-.234-.287-.435-.319v-.139l.106-.06-.043-.362.1-.382.061-.043.021-.319.223-.17-.33-.988-.329-.255-.061-.149-.446-.031-.149-.138-.148-.32-.149-.138-.127-.182.01-.223-.308-.319-.234-.107-.308.043-.127-.17-.872-.4-.01-.061.106-.061-.021-.243-.107-.149-.149-.061-.105-.5-.16-.043-.021.33.042.085-.1.107-.086-.043-.138.117-.138-.319.16-.138.021-.287.085-.011.1-.148-.117-.33h-.1l-.106.149.022.149.159.01v.061l-.521.255-.1.107.021-.223.234-.223.255-.595-.043-.426-.182-.4-.33-.415-.138-.1h-.148l.276-.351V119.8l-.1-.148.043-.5-.1-.393.213-.287.043-.435-.256-.149.032-.286-.053-.106-.182-.011-.011-.435-.17-.138.1-.468-.074-.2-.107-.074-.01-.139-.086-.085h-.2l-.308-.117-.818-.243-.061-.117.01-.2.468-.457.138-.487-.212-.68-.075-1.031-.17-.17-.06-.319.052-.139.107-.01-.011-.148.107-.107.061-.255-.053-.149.182-.393-.138-.712.5-.893-.1-1.126-.053-.107-.107-.01-.1-.308-.117-.1-.011-.182-.414-.7h-.1l-.223-.183h-.061l.032.1-.085.043-.2-.032-.224-.776-.17-.287-.446-.446,7.359-5.517,2.731-.627v-.892Z" transform="translate(2229 282)" fill="none" stroke="#3d3e40" stroke-miterlimit="10" stroke-width="2"/>
    <path id="Path_3131" data-name="Path 3131" d="M317.323,85.951l-2.561-1.573-1.753-2.954-.183-4.92-.933-1.85-.427-2,1.361-2.827,2.412-1.668,2.561-1.955.552-1.307.426-4.792.967.627,1.137,1.9,1.244.074-1.35,1.382-.085,2.635-.7.043v2.784l1.191,1.127,1.19,1.561,1.286,2.54,1.084,2.858L327,79.406l2.6,1.424.212.287,1.913,1.148-4.792.319-4.676,1.879-1.977,1.8Z" transform="translate(2229 282)" fill="none" stroke="#3d3e40" stroke-miterlimit="10" stroke-width="2"/>
    <path id="Path_3132" data-name="Path 3132" d="M311.309,4.712l.3.1.159-.032.457.074.061.085.138-.053.061.139.085-.011.213.17.276.1.84.148,1.031.319.542.011.148.095.234.032.2.138h.183l.393.277,1,.17.924.361.691.127,1.945.84.021,2.879-1.323-.117-1.074.967.086,2.221,1.157-.1.085,3.081.487,1.063.074,11.285.255,1.807-.744.573-1.742-.329v-.107l-1.265.032-1.616-.074-5.526.456-1.009-.074v5.961l-5.547-.1-.243.945-.17,1.074h-4.963l-.319-1.116-1.286-.01-2.041-3.708-6.3-5.93-3.889.372V21.522L281.322,18.1l-.436-5.207,2.093-.01,2.667-.574,7.3-2.476,3.2-.807,2.064-1.35.659.212L300,7.369l3.546-.88,1.584-.84.182.638-.182.69-1.148-.319-1.148.255-2.529.765-1.626.9-.606.616-1.136.511-.829.51-1.775.7-1.711.564-1.147,1.083-.383.893-.627-.061-.829.383-1.583.053-.382.573-.829.128-1.137-.256-.893.319-.191.7-.074,1.392h.648l1.523.255,3.124-.085.117-.616.51-1.456,1.137.319.935.764.893.532.712-.852.255-.765.765-.447,1.2-.881.573-.128.3.574.723.627,1.2-.319,1.826.266,1.35.1,1.19-.722,2.412-.638.9-1.307.638-1.5.69-.957,1.594.061.946.127.074,1.1.723.287.723-1.955L311.416,8,309.384,6.72l-1.466-.627-1.148-.149-.828-.233.967-.488,1.6-.414.382-.032.149.1.213-.1Z" transform="translate(2229 282)" fill="none" stroke="#3d3e40" stroke-miterlimit="10" stroke-width="2"/>
    <path id="Path_3133" data-name="Path 3133" d="M386.638,353.724l-2.583-1.286-2.624-2.328-1.328-1.02-1.3-3.4-.436-3.188.191-1.644-.807-1.615-.159-3.316-1.224-2.651-.681-1.137.117-2.487.978-2.157,1.892-1.955,2.8-1.211,2.8-2.622,1.765-2.094.731-1.615v-2.837l.552-1.69,1.645-2.9,1.413-2.093-.266-2.392-1.3-2.411-.978-.808-2.74-.138-2.74,1.084-2.01,1.487-4.452,1.827-1.222.744-2.01.67-1.955.138-2.2.4L367,309.55l-5.121.127-1.7-.67-5.165-4.506-2.313-2.827.73-1.2,1.042-1.01,1.522-1.02h1.4l1.286-.478,1.4-1.009.731-1.223.913-.138,1.286.68.244,1.488.68,1.827,1,.478.765.531,1.041,1.424h1.286l.488-.68.978-1.074,1.8-.127,1.523-.807,2.2-1.626,3.113-2.168,2.625-.882,6.46-.061,4.761,1.02,3.6,2.436,1.523,2.436.658,2.314,1.209,2.633.372,3.645.031,4.2-.212.818-1.849,5.846-2.093,3.349-6.132,4-2.009,3.294-1.827,1.944-.852,1.945v5.717l.852,2.689,1.644,2.614.755.68.074,3.793Zm-4.272-25.631,1.955.361,1.541-.265.978-1.435.648-1.53.329-1.7-2.848-.266-1.466,3.5Z" transform="translate(2229 282)" fill="none" stroke="#3d3e40" stroke-miterlimit="10" stroke-width="2"/>
    <path id="Path_3134" data-name="Path 3134" d="M387.816,323.526l-.318,1.7-.656,1.527-.967,1.435-1.552.265-1.955-.361,1.148-1.339,1.466-3.507Z" transform="translate(2229 282)" fill="none" stroke="#3d3e40" stroke-miterlimit="10" stroke-width="2"/>
    <path id="Path_3135" data-name="Path 3135" d="M194.535,219.672,196,216.739l1.052-2.348.628-1.881.426-2.359.829-1.891,1.678-1.18,1.679-.935,5.653-1.191,3.359-1.644,4.4-3.3,3.975-1.414,2.731-2.125,2.72-.712,3.984-3.549,5.026-3.305,2.72-2.136,2.518-2.372,1.254-5.919,1.679-5.7,1.254-3.559,1.678-3.082,1.212-4.612,2.667-.244,9.021-.308,1.616.032,35.5-1.179,2.582,1.5,3.071,2.136,3.963.532-.487,1.711-1.37,3.953-.061,4.559-.043,2.635-1.254,1.807-1.179,1.945-1.318,2.38-.8,2.984.138,2.38.659,6.408,3.56,8.171.521,6.238,1.19,3.858.265,5.047-.393,3.549-2.954-.2-1.657,1.456-2.583-.414-1.945-.521h-3.219l-.1-2.07-95.775-.192h-1.542Z" transform="translate(2229 282)" fill="none" stroke="#3d3e40" stroke-miterlimit="10" stroke-width="2"/>
    <path id="Path_3136" data-name="Path 3136" d="M306.219,55.782h0l4.708-.053.5,1.286-.183-.061.183.061.061,1.1,3.283.021,4.019,1.849-.436,4.92-.552,1.307-2.561,1.955-2.412,1.669-1.361,2.826.427,2,.935,1.849.182,5-2.07.7-.807-.2-.946-.553-.852.957-1.733-.319-.956-.946-.075-1.912-.967-.946-1.509.074-.1-3.379-2.221-.148-.723.616-1.53.127.149-1.944,1.466-.16.085-1.966-.106-4.282L299.5,65.59l.277-1.838-1.244-.935.487-1.924-1.136-.085-.139-.426.287-4.952,3.741-.468.159-1.052h2.572l.074.957,1.232.053Z" transform="translate(2229 282)" fill="none" stroke="#3d3e40" stroke-miterlimit="10" stroke-width="2"/>
    <path id="Path_3137" data-name="Path 3137" d="M26.958,1.089l.085.3-.01.372-.061.042.043.17-.075.107.011.127-.117.191.095.33-.053.127.266.213.053.106-.061.074.17.128-.074.159h-.061l.061.17-.086.277.089-.033.075.075-.022.138.255.265.278.639.107.061.01.183-.061.042.17.436-.032.106.16.183.021.182.16.2.148.01-.053.183-.435.106-.074.266-.107.074-.085.01-.075-.138-.116.1v.414l.169.361.16.17-.01.139.393.435h.1l.212.183,1.4.573,1.445.372,1.349.183,1.126.265h.415l.17.061.053-.042,1.5.042,1.243-.1.061-.075.053.128.393.031.074-.042.053.061.819.042,1.6-.308.946-.34.542-.074.01-.1.2.106.731-.01,1.275-.266,1.583-.5,1.127-.478,1.615-.446.011-.075.223.032,1.881-.712.159.061.01-.061.17-.01.213-.16h.148l.415-.212.361-.032.107-.1.542-.138.141-.111h.234l.061-.074.319-.075.159-.138.255-.032.256-.17h.255l.372-.212L55.2,5.51l.542-.3,1.073-.34.266-.17.2.011.414-.234.362-.043.276-.138.061.032.061-.075.148-.01.032-.1.1.075.159-.139h.436l.106-.1.107.032.127-.1.106.01.061-.106.223.031L60.08,3.8l.138-.01.1.043.2-.127.106.031.16-.127h.246l.372-.183.2.032.149-.074.329-.011.061-.1.33.01.074-.061L62.6,3.3l.574-.031.061.061.159-.043.061.074.16-.01.255.138.229-.01.266.138.212-.043.138.16.256.061.222.032.223-.061.288.2.426.01.021.061h.308L66.5,4.1l.213-.032.106.075.117-.011.061.1.085-.107.2.011.061.127.107-.061.223.032.286.212.086-.061.095.075.17-.043.061.1.021-.1h.117l.011.127.265.1.277-.053.2.1h.34l.339.191.277-.043.085.127.183-.031L70.543,5l.074-.032.2.1L70.926,5l.1.127L71.17,5.1l.183.1.052-.074.053.1.649.106.255.266.127-.011.011.075.212-.075.061.107.107-.043.061.061.233.01.086.128.117-.011.276.139.1-.053.117.095h.148l.074.1.16-.061.265.243.427.17.074-.031.977.3.16-.043.117.106.17-.01.053.107.426.01.159.138.1-.061.329.011.234.138.361.1.043.074.786.138.807.329.234-.042.128.106.116-.01.149.138.9.234.532.382.393-.042.117.042.021.107.244-.032.17.2.286-.043.107.2.255-.043.17.128.393-.043.383.2.319-.061.5.032.117.191.308.16h.2l.053-.075.436.139.861-.061.17.106.394-.01.074.1.149-.061.233.148.786.032.053.074.373.032.276.127.043.1.308.061.552.329.183-.032.446.234.852-.031,1.573-.266.574-.351.061.478.435.234.383.01.053.16.169.043.16-.043.183.127.7.032.649-.16h.053l-.022.1.117.032,1.275-.1.287.01.382.128.383-.061.5.265.957.032.319.127,2.029-.106.128.042.17.234.627.244.467.074.128.266-.011.169.255.16.086.138,1.392.383.329.2.061.159.361.075.2.159.394.074L109,13.779h.9l.319.061.085-.061.731.043.159.1.213-.1.308.061.053-.074.786-.061.2-.032.744-.074.107.074.183-.095.1.074.16-.032.148.127.266-.074.042.213.2.1.106.213.148.031.287.244h.17l.042.107-.053.276.362.532.339.182.853.061.117.138.138-.1h.487l.061.182.276.183.309-.2.148.435v.079l-.074.032.053.276.234.234.531.234.308-.032.532.2.1.138.744-.074.754.043.957-.022v-.06l.945.031.139.061,1.594.127.1.075h.436l.33.127-.255.138h-.234l-.1-.159-.106-.043-.394.074-.148-.138h-.33l-.117.043-.106.182-.361-.233-.16.169h-.106l-.061.3.061.17.807.043.043-.107.467.01.053-.06.521.042.042-.138.149-.074.149.339.286.1.447.032.255-.2v-.075l.2.043.107.106.117-.06.042-.16-.106-.127-.5-.043-.042-.074.467.061.16-.043.212.043.1-.061.574.053,1.339-.2.7-.032.648-.138.16.042.487-.042v.276l.393.128.149.127.021.478-.106.01-.17.308.01.4-.053.127.319.5v.17l.183.107.042.138.1.032.17.276.159.1.061.372-.042.183.435.711.1.488.117.138.021.234-.1.106.075.074-.011.139.138.01.053.16-.021.382.183.16.212.4.372.33-.042.1.255.234.573.415.287.329.383.2.329.277.521.234,1.859.382,3.252.01.021.107-.074-.061-.16.01.022.139.148.182.266.1.127.212.34.234h.861l.329-.061.075-.138h.361l.223-.1,1.3-.032.043.061-.2.263.1.308.061.138.414.183.022.074.648-.061.2.032.1.106.213.061.913.107.061-.16.159-.106-.042-.183-.16.032-.234.265-.223-.01v-.3l.223.032.022-.061h.436l.361-.127.2-.032.17-.061.69-.074.415-.127,1.084-.447h.276l.011-.061.659-.212.116-.107.287-.042.117-.16.468-.074.021-.1.117-.042.638-.16.116-.1.117.075.086-.128.223-.06.169-.183.16-.043.117.043.053-.107.308-.17v-.159l.159.061-.042-.183.148-.159.117.01.061-.234.107-.01.106-.33-.061-.159.213.042.393.213.022.2.074.032-.117.182.043.139-.1.127.01.243.117.17.117-.042-.053.106.107.139h-.1l-.106-.107-.043.138.107.1-.117.01-.043.183.107.243.117,1,.372.478.06.2.17.061v.061l.394.319.021.2-.138.383.212.35-.117.011-.117.127.17.51-.138.043-.021.17.212.414.117.075-.148.061.127.573.138.266.223.234.853.487.222.061.011.074,1.275.276,1.275.107.329-.043.893.075.117-.053.061.138.17.074.552-.043.807.061v-.061h.061l.086.107.372-.074.116.061.223-.061.731.031.16-.042.319.061.393-.16.372.043.468-.107.6.043.414-.043.415-.138.9.01.372.128.712.573.852.213.277.212.182-.042.022.074.2-.074.574-.043.552.032.17-.061.339.031.043.061.127-.061.277.061.946-.1.913.1,1.179.372.542-.061.925-.372.372-.042.436-.213.435-.074.021-.1.361-.031.447-.139,1.976-.138.139.17.414.213.277-.1.061.265.117.16.478.2.169.34.17.043.022.074.2.061.265.2.277.1.182-.061.34.127.17-.01.308.265.361.127.183-.1h.234l.1.127.255-.032.183.061.17-.127.415-.032.1-.159h.149l-.061.1.01.139h.366l.021.308.1-.011.053.1.286.01.043.061L190.5,36l.075.106.361-.032.308.107.053.061-.043.372.287.234-.074.138.042.107.6.319,2.083.573.542-.01.329.1.861-.06.861.06-.053.183.244.1.074.127.074-.043.043.16h-.053l-.053.276.2.183.061-.01v-.234h.117l.074.183.521.106.659-.043.637.043v.074l-.117-.01-.074.107-.043.243.183.213.053.2.287.212.552.234.021.061.34.074.255.17.34.032.521-.061.861.17-.053.308.2.2-.021.138.061.061-.053.213.085.2-.1.074v.244l.2.212v.1h.061l.277.319.478.276.182.234.542.287.468.127.223.183.372.16.17.265v.16l.542.573.68.351.319.043.957.339.106.075.053.2.138-.011.712.213.319.287.234.01.107-.1v.087l-.213.138.01.1.33.244.1-.011.107.213.107-.061.861.265.478.043.06.183-.913-.2-.255-.138-.16.061-.2-.074-.138-.183-.308-.106-.138-.2-.107-.01.17.287h-.107l-.138-.183-.021.043.1.148.222.075-.01.138-.234-.1-.061-.17.192.1.255.266.5.074.16.183.212-.043.17.183.255-.061.117-.128.17.032.457.319.329-.042.01-.107-.223-.085.053-.075,1,.277.659.032.276.127.542.042,1.424-.1,1.211.031.691-.074.372-.148.106.042,1.34-.414,1.445-.287.061-.1,1.031-.287,1.37-.616.521-.183.074.032.872-.351,1.169-.286.765-.287.339-.213.149.032.531-.308,2.274-1.062,1-.658.852-.447.1.061.9-.414.6-.34.159-.17.712-.351v-.061l.2-.074.2-.2,1.445-.765.053-.1.183-.061.1-.127.085.032.2-.183.074.032.011-.127.138-.107.117.01.148-.2.287-.17.032-.1.372-.2.287-.447h.092l.16-.159.061.031.148-.159.138-.011.542-.446.061-.127.183-.074.521-.457-.022,3.273.989,32.484v6.079l1.36,2.157,3.358,1.636,4.527.149,6.769,5.358,2.082,1.02,8.034,5.951,3.007.585,1.785,1.126,1.644,3.316-3.262.426-24.1,15.94-7.034,1.732-6.856,8.8-34.3,33.739-44.512,10.69-21.667,48.275L20.752,219.83h-.86l-.021-85.446-.521-.967-1.509-4.24-2.231-4.622-.511-1.6-.786-1.148-1.085-2.9-.127-.765.818-2.115.967-1.19.127-.776-.1-.457-1.849-4.59-1.8-4.028-.138-1.434.17-3.89-.33-1.795-2.857-9.7L5.483,85.238l.542-1.817,1.2-2.412,1.2-2.144L8.9,77.6l.648-2.4,2.455-2.07,1.137-1.435.818-1.827.712-1.126,1.732-1.809,1.02-3.538.106-.84-.042-.925.276-1.169,1.126-2.529.511-2.518.148-1.265,1.127-2.88.106-.711-1.35-4.633.021-1.1-.468-1.742-.839-1.328L17.6,40.2l-.308-1.881L16.045,34.6l-.7-1.371-1.009-2.391L14.081,29l.06-1.423.436-3.858L14.516,21.4l-.277-1.1-.669-1.074-.277-1.6-.117-1.35.107-.552,3.708-2.954,1.179-1.178L22.9,8.147l.415-.853.35-2.178.266-.786.287-.531.584-.712.731-.649.661-1.264.765-.086Z" transform="translate(2229 282)" fill="none" stroke="#3d3e40" stroke-miterlimit="10" stroke-width="2"/>
    <path id="Path_3138" data-name="Path 3138" d="M372.187,26.177l1.37.723.553.415.3.095.106.138.372.139.159.182.043.213.467.265.117.17.691.521.531.637.319.542.6.638.1.1.061.107.308.382.061.415v.107l.468.478.68.478.84.818.7.51.786.415,1.074.34.7.1v3.228l-3.273-.861L377.123,35.4l-3.39-1.232-2.062-1.031-2.338-.183-.243-.69.988-.8,1.392-2.094.468-1.02.51-.606-.265-1.572Zm0,0-1.02-.159-.1-.1.043-.16.061-.074V25.55l.159-.032.213.075.212.169.086-.031.074.031.2.16.085-.032-.021.287Zm-1.02-1.274-.01.648-.053.01-.022.128-.031.138-.532-.68.17-.032.106.266.011-.075h.223l.182-.881.086-.043-.128.521Zm-.712-3.305.032.074-.7,1.031-.148.107-.053.182-.234.213-.1.244.117.159.3.061.043.159.159.128-.149.308.2.3.35.182.223.011-.053.276.086.107-.649.8-.329.51-.277.744-.1-1.53.191-.415-.277-.467-.234-.787-.329.606.138.415-.414.234.1.552-.318.765-.427-.574-.233-.842-.372-.7.276-.511-.043-.51.34-.393.149.031.148-.159.415.183.871.042.183-.106.138.01.978-1.435Z" transform="translate(2229 282)" fill="none" stroke="#3d3e40" stroke-miterlimit="10" stroke-width="2"/>
    <path id="Path_3139" data-name="Path 3139" d="M345.589,271.115l2.146,2.72.488,1.69,1.03,1.36,1.743.563.468,3.178,1.275,3.825,1.234,1.881.861.9,2.9,1.827,4.282,1.286,1.924,1.413,1.105,2.752,2.168,2.976.361.138-.2,1.742,2.083.936-.978,1.073-.487.67H366.7l-1.031-1.413-.776-.532-.988-.478-.68-1.827-.244-1.487-1.286-.68-.913.138-.731,1.211-1.4,1.02-1.275.468h-1.4l-1.53,1.02-1.031,1.009-.731,1.2-.243-.287-.861-1.052-1.722-2.5-.956-.4-1.531-1.69-3.049-4-2.466-3.687-1.136-1.318-.149-.287-2.349-3.018-2.07-3.113-2.277-3.24-1.157-1.986-2.136-1.626-2.667-.5-3.188-3.676-2.679-3.464-.552-1.945.69-.213,1.265-1.041,1.827-1.02.913-.68,1.222-1.766.606-1.157,1.892.2.913,1.222.946,2.1,1.1,1.041.9,1.966,2.359.021.531.351,2.74,1.01,6.174,5.164Z" transform="translate(2229 282)" fill="none" stroke="#3d3e40" stroke-miterlimit="10" stroke-width="2"/>
    <path id="Path_3140" data-name="Path 3140" d="M355.5,33.4l.7.061.731-.191,1.041.4.061.478.383.287.318-.191.16-.415-.255-.286-.061-.5.234-.074.68.106.255.4.829.552.68-.06.715,1.285,2.082.085.2,6-1.806.053-.244,1.955-1.924,4.368.967,4.079.075,2.88-5.037,7.152-.277,1-5.358.319-.627.925-4.019-.2-.442-.935-2.4-.106.182,1.753,1.786.935.436,4.835,1.073,5.207-6.684,4.675-3.349,2.019h-4.877l-1.913-1.147-.213-.287L327,79.4l-2.264-1.766-1.083-2.858-1.287-2.54-1.193-1.559-1.19-1.127V66.769l.7-.042.085-2.636,1.35-1.381,2.146-2.115.978-2.519-.893-.818V50.363l1.4-1.244,9.372-.255.223-1.562,1.4-.765.17-1.732,2.412-.191.148-3.071,3.061-3.166.159-2.1,1.157-1.924,3.815.075.988-.2,4.421-.6,3.56-1.37-.223.478-.925.446Z" transform="translate(2229 282)" fill="none" stroke="#3d3e40" stroke-miterlimit="10" stroke-width="2"/>
    <path id="Path_3141" data-name="Path 3141" d="M396.371,32.043l.255.16v.159l.106.1.053.234-.085.042-.061.213-.234-.234h-.1l.011.127.286.266-.031.127-.436-.542.053-.3-.138-.212.318-.138Zm26.97-2.359.913.553-.031.1-.394-.243-.382-.043-.043-.107-.1-.031-.061.042.074.032.01.138h-.061l-.212-.372.127-.042.106.074.053-.1Zm-14.6-4.271.183.061,1.105-.043.521.061.2.1.893.06.372.139.148-.043.117.107.329.074.061-.127.372.2.1-.032,1.116.213.148-.032.2.074.213-.106.021.061-.159.319-.1-.02-.2.159-.213-.2-.117.032-.031-.107-.1.1-.17-.16-.234.061-.754-.266-.361.011-.139-.1-.711-.182-.183-.011-.107.075-.182-.139-.277-.061h-.6l-.276-.074-.521.01-.542.128-.361-.1h-.68l-.1.074-.373-.042-.584.127h-.17l.032-.1-.16.075-.042-.061-.149.01.043.33-.117-.011-.043.138-.061-.074-.182-.031-.1.127.5.2.053.2h.223l.117-.138-.043.127.149-.01v.061l-.659.106-.731.213-.765-.032-2.146,1.211-.7.606-.17.01-.148.128-.436.127-1.509.649.011.074-.149.095-.043.309-.085.074h-.234l-.061.17-.169.17h-.277l-.074-.1.021-.16.266-.159.627-.585,1.644-.924.756-.337.085-.139,1.339-.744,2.338-1.477.893-.34.648-.127,1.644-.074Zm53.663.426,3.942,13.081,2.72,7.98,4.208,8.83,1.382,5.748-.138,3.008,2.07,2.436-.988,2.784.117,1.689,3.337,2.178.977,3.654,5.663,15.907-.1.829,4.888,13.708-.031,2.635.861,1.488.212,1.031-.223,1.488-.446,1.5.191,1.594.223.914.627,1.19,1.2,1.413-2.54-.616-3.974.16-3.964-.776-3.687-.308-4.1-.627-.329-.287-1.523.127-2.784-1.137-2.795-.935-.967-.3-.085.032-6.419-3.911-4.1-.935-3.825-1.254-3.55-2.348-8.469-5.324-.053-.117-1.881-.913-8.714-2.041-4.527.074-1.083-.308-8.884-1.253-10.382-.309-7.024.457-.021-.127-.255.3-1.987-.075V96.216l-1.636-.159.138-12.093-1.105-4.1-.128-.01-.818-2.965-1.5-4.091-1.774-3.156-3.41-5.367-1.116-18.681-.255-7.246V35.114l1.786.01,1.774-.182.382-.061.17-.1.786-.1.053-.061,1.775-.436,1.031-.382.4-.234.234-.061.053.061.319-.234.531-.106.043-.1,1.08-.575.276-.234,1.084-.638.659-.276.861-.487.861-.574.265-.243.17-.061.277.584-.053.107-.16.032-.17-.139h-.148l-.415.183-1.212.711-.754.265-.16.138-.552.2-1.063.723-.531.213-.138.17-.213.061-.16.159-.319.043-.159.182-.138-.042-.117.234-.061-.061-.255.031-.043.1-.159.074-.149-.031-.17.042-.159.061-.061.107-.277.17-.106-.043-.138.043-.255.212-.266-.043-.3.1-.043.074h-.426l-.255.139h-.394l-.159.127-1.063.106-.487.266-.053-.061-.2.01-.043.061-.17-.031-.212.2-.213.061v.06l.255.011.053.074.234.061.255-.107-.1-.159.085-.17.149.138.117.011.329-.061.372.042.106-.127.5.074.053.075-.106.265.053.415-.468.01-.318.2.042.075.33.031.148.075h.426l.117-.16.542-.032.427-.4.06-.17.266-.183.308.01.542.277.84-.061.329-.138.383-.478.085-.011.584-.605.139-.107.182-.138.574-.16.308-.308.183-.032.061-.106.467-.01.117-.107.17-.01.1-.213.148.107.33-.372.169.01.107.16.234-.061.308.061.053.074.159-.074.149-.183.382.183.277.01.032.061.222-.011.022-.106.2.095.223-.127.182.1.149-.011-.043.139.128.074.061-.127.212-.139-.043-.372.043-.106-.032-.061-.117-.01-.042.095-.234.032-.053.127-.1-.074.053-.107-.17.011-.1.095h-.106l.01.17-.074-.042.061-.3.382-.277h.183l.4.277h.426l-.043.061.061.061h.33l.319.3.2.032.053.183.159.031-.061.1.075.061.212.01.17-.2.2.01.061.16-.106.061-.011.138.149.061.1.234.149.042.032.061-.086.043.1.106h-.16l-.159-.17-.053-.159.061-.043-.032-.106-.637-.032-.043.043.106.106.255.061-.085.043.053.061-.183.031-.117.107.183.061.021.17.183.1-.061.1.074.127-.148.1-.308.01-.117.127.212-.031.17.212.487.107.16.138h.967l.382-.487.287-.1.17-.2v-.092l-.415-.265h-.106l-.061.127-.212.061-.043-.2.149-.372-.011-.14.234-.128.117.139.17-.139.223-.042.107-.277.06-.031.731.148.383-.234-.075-.308-.265.107L404,32.742l.223-.446.022-.183.117-.061.233.032.163-.127-.032-.1.061.011.061-.2-.061-.169-.106.074-.086-.107-.116-.01-.32.138-.1-.032-.223.16-.521.01-.042.183-.223.061-.061.106.061.128-.117.127-.043.234.16.01.042.1-.06.074-.106-.032.074.2-.2.1.117.138.053.075-.011.138-.5-.34-.2-.042-.552.1-.84-.1v.106l-.308.1-.053.1-.183-.17-.222-.01.01-.265-.061-.1-.255.074-.2-.127.01-.107.16-.1.627.061.765-.16.52-.487.043-.138h.1l.106-.107.383-.828L403,29.8l.244-.17h.148l.427-.372.329.042.277-.1,2.411-1.5.256-.1.106.212.2-.032-.031.128-.17-.011-.149-.159-.053.061h-.182l.053.106h.212l-.01.043-.255.061-.106-.107h-.1l.021.1-.159.061-.043.138-.085.01-.01-.095-.1.01.011.138.574.16.212.2.021.159-.117.043.149.149.053.191.521.415v.319l.182.159.011.308.117.277.731.234.106.169.021.234.468.68-.447-.52-.159-.319L408.489,31l-.33.16-.182-.213h-.5l-.1-.159.1-.234-.117-.234-.169.032.06.35-.212.043-.287-.043.01.183.1.159v.17l-.1.139.234.06.053.139.106.042-.106.061-.031.138.212.032.061.234.265.127.086.2.17.011.222-.107.183.061V32.4l-.223.01-.159.2h-.17l-.074-.212-.17-.043-.2.277.222.042.011.446.106-.031.4.3.34.06.426.277h.183l.361-.138.182.061-.01.1-.053-.061-.4.061-.1.213-.183-.043-.138.107.117.138-.011.234.234.212-.021.074-.2.011-.106.159.265.011.043.106-.149.277-.053-.107-.265.011-.01.308.117-.16.06.127-.159.16-.053.159.053.043.521-.1.042.107.149-.127.372-.043.127-.127.16.074.361-.1.35-.149.383-.34.223-.1.031-.478.149-.107h.17l.712-.244.308.107h.2l.276-.043.149-.06.552-.829.266-.011.182.2-.339-.043-.149.127.043.127-.107.011.138.17.213.074.212-.032.022-.182.1-.107.255-.074.128.01-.011.061.1.032.34-.17.138-.2.308-.183.287.043-.043.159h-.1l-.139.127h.1v.061l.183.1v-.2l.382.042.085-.061.061-.3-.182.042-.075-.095.1-.2h.52l.139.106h.159l.011-.2.212-.1-.265-.106-.139.031-.255-.074-.053.138-.426.032-.361.3-.585.138v.1l-.255.095-.106.128-.17.031.061.1-.276.01-.106-.074-.074.127v-.17l.159.011.032-.1.382-.234.266.01.021-.106.372-.074.01-.075.16-.031.159-.139.2-.01.318-.159.138-.128.011-.138.223-.106.5-.061.5.1.7-.159.542.031.542-.17.138-.159V31.54l.1-.011.011-.159-.139-.8.478-.447.277-.584-.213-.34.011-.138.212-.061.223.074.117-.095.287.061.106-.1v-.061l-.287-.032-1.265-.648-.138-.17-.446-.127-.106.031-.061-.1-.372-.127-.957-.585-.861-.127-.053-.061-.892-.1h-.1l.01.127-.2.043-.183-.1-.06-.138h-.1l-.043.075-.106-.1-.053.032-.159-.183.2-.382.085.169.319.1.487.3,1.222.159,1.084.319.361.032.446.2.319.032.52.17,1.18.487,1.137.637.159.2.853.446-.213.138-.1-.106.042-.1-.127-.1-.521-.233-.074.06-.032.139.427-.032.042.074-.1.061.182.043.061.159-.042.061h-.157l-.01.061.148.043.17-.107.17.127.223.266-.011.127-.138.1.234-.043.182.061v.244l.255.233.521.183.01-.095-.223-.107-.138-.276.043-.061.148.01.011-.061h-.116l-.183-.127.148-.061.086.1.117-.011.01.234h.074l.17.244.053.212.319.061.308.213.061-.032-.659-.638.148-.01.183.276.223.107.4.372.233.01.6.231,1.35.243,1.456.1h1.795l2.529-.16.361-.095.649.01.117-.074.8-.1.818-.2.266.01.085-.1,1.7-.383.212-.127.319-.032,1.987-.68.234-.01.031-.061.266.032.276-.447h.053l-.053.17.266.107,1.157-.372.414-.1.787-.212.861-.383.73-.2.138-.127,1.684-.651.116-.138.17-.01.086-.1.542-.234.393-.042.542-.234.159.01.053-.159.84-.351,1.945-1.02,2.285-1.328,1.636-1.063,1.487-1.052.691-.637.361-.2,1.7-1.562,1.966,6.259Z" transform="translate(2229 282)" fill="none" stroke="#3d3e40" stroke-miterlimit="10" stroke-width="2"/>
    <path id="Path_3142" data-name="Path 3142" d="M453.765,516.37l-3.91,11.87-21.062,2.4-.243-.085-18.736-14.282Z" transform="translate(2229 282)" fill="none" stroke="#3d3e40" stroke-miterlimit="10" stroke-width="2"/>
    <path id="Path_3143" data-name="Path 3143" d="M575.818,502.28l.053.2.488.159.042.213.138.1.256.042.116.223-1.189-.117.1.532-.106-.032-.095-.159-.16.053v.127l-.106.042-.117.256-.085.01-.138-.127.106.031.255-.467-.01-.117-.128-.117-.01-.244.106-.01.17-.244.053-.372h.265Zm-42.59-32.687.16.085.255.287.106.244-.085.085-.011.276.085.043-.042.117.17.255v.085l-.086.011-.01.243h-.117l-.053.17-.308.213.053-.4-.074-.287.106-.223-.106-.4-.1-.139-.276-.031-.086-.086.1-.487.149-.031.414.286Zm-.616-.351.061.1-.074.2.074.542-.053.074-.16-.17-.148-.01-.086.074-.159-.138-.17.032-.329-.117-.011-.234.1-.127.382.031.266-.2.182.053.043-.1h.085Zm-5.568-11.529.17.138.1.957.339.234.107.17-.2.339.117.659.276.255-.043.4-.117-.011-.031.085.4.277.148-.032.01-.212.053.01.34.744-.074.744.329,1.445-.074.17.149.2-.16.457.01.457.628,1.156.01.128.1.074-.032.117.107.053-.053.117.1.085-.1.319-.16.01-.043-.138.2-.1-.022-.212-.085-.032-.085.127-.16-.159.043-.277h-.33l-.212.34.106.69.447.287.148.255.117-.01.021-.329-.1-.192.117.043.094-.094.139-.011.106.053-.287.117.011.159.117-.074.085.042-.032-.127.17.032.149.318.042.4.085.1-.085.085.33.243.106.213.117.085v.1l.265.182-.053.17.223.032.01.138-.106.117-.117-.031v.1l.223.139.107.426.17.085-.1-.138-.01-.33-.183-.286.223-.032.16.074-.1.053-.043.17.308.34v.287l.415.3-.043.34.213.117.053.1.149.031.106.372.149.043.106.183.17.085.138.372.182.16.106.212.149.043.053-.213-.061.011-.085-.159-.032-.34-.183-.319-.01-.329.107-.127h.17l.159.085.266-.053.182-.138v-.1l.149.011.182.243v.234l.32,1.031-.17.329-.139-.085-.042-.2-.277-.011-.148.287.042.255-.053.075.16.042.061.183.17.043.159.2.361.085.319-.032.043-.085-.1-.053-.01-.138-.223-.234-.2.032v.2l-.086-.085.106-.648.1-.074.061.031.117.372.169.138.053.17.309.415-.139.117v.085l.16.17h.117l.061.085-.17.34.095-.01.043-.1.183.5.426.457.159.4.309.2.339.446.213.1.053.2.074-.01.234.372.478.456.16.043.308.361h.372l.658.415.061.234-.255.159.075.085h.106l.01.128.436.1-.011-.212-.074-.085.149-.032.255.4-.085.031-.117-.085.053.17.2.032.042-.053.33.159.276.011.33.116.382-.138.1.1.637.212.011.16-.234-.053-.107.085.032-.2-.085.032-.1-.086-.212.032.042.085.17-.074.1.127-.117.372.095.487-.138.086.021.2.787-.183.031-.053-.138.011-.01-.086.372-.17.1-.3-.053-.117.128-.075-.043-.1.1-.011.2.086.148.446h.075l.031-.074.2.2.022.17.223.085.339-.1.415.011.265.138.447.138.148.139.086-.117.148-.011.532.138.085.256.085-.011.053-.16.107-.032.712-.031.212.074.138.17.16-.032.043.1.542.032.182.074.061.1.183-.01.159.074.043.128.16.085.276.053,1.275-.053.053.074.415-.042.255-.139-.043.139.308.074.075.159.182.117.308-.031.308.074.086-.138.159.085.255-.17.2.032.052.1.139-.042.1.053.086.138-.053.244.159.318.17.085.043.17.106-.032.053.075v.138l.138-.043.138.1.521-.01.138.182.17.075.138-.075.308.043.213.329-.043.183.319.265.117.2.106-.011.085.117.277.031.169-.085.011.606.329.584.585.266.212.287.2.6.095.1.061.7.17.255v.552l.159.51.061.532.234.532.117.031.1.234.117.053-.061.16.182.182.075.2.52.383.213.3.138.031.276.213-.042.053.085.138.117.01.212.266.373.127.1.16.17.031.107.139.648.339.117.17.255.16.393.085.542.329h.106l.16-.2.223-.01.594.542-.052.446-.128.2.011.638.308.84v.265l.595,1.074.212.085.415.372.255.01.765.487.308.043.095.17.139.032.659.456.159.075.521-.011.3.244.638.223.5.339.468.117.061.17.148.011.223.222.308.043.032.085.277.138.2.415.265.011.043.085.159.01.255.266h.075l-.075.212.712.426-.011.086.415.329.01.244.266.085-.043.127.16.16.138.074.117-.074.319.17.16-.043.021.117.117.01.053.117-.086.074-.01.372.223.4.913.468.2.34-.032.074.2.212h.117l.117.266.138.01.276-.117.32.086.222.308-.06.138.042.127.308.138.139.351.255.053.01.117.17.117.095.074.053.138h.234l.808.34.148-.01.053-.117.383.085.319-.138.223.053.06.085.149-.127-.043-.127.053-.183-.182-.043v-.127l.01-.053h.149l.2.34.308.308.606.4-.086.8.053.042.106-.116.149.637.361.255.585.266.319.308.117.031.159.383.4.446.138.287.372.085.308.2.427.032.127.053v.053l.212.01.032.086.542.382.085.127.308-.042.053.426-134.008,2.747,3.507-10.392,10-1.87.277-.1,1.031-.127,4.378-.807.35-.117.84-.086,1.456-.265.107-.085,1.073-.117,5.856-1.084,12.39-28.776,1.254.3,11.2,3.324,2.314-2.189,17.2-16.152Z" transform="translate(2229 282)" fill="none" stroke="#3d3e40" stroke-miterlimit="10" stroke-width="2"/>
    <path id="Path_3144" data-name="Path 3144" d="M348.745,149.188l.829-15.132,2.327-27.065.043-4.622-1.361-9.127-.688-5.188-1.306-4.526-.128-2.944,2.03-.191,19.786-.117,2.8.861,6.525.457,1.838-1.5,4.9-.552,6.216.3,1.116,4.1-.138,12.1,1.637.148v2.827l-2.731.627-7.365,5.526-.255-.361-.159-.106-.128-.487-.138-.234-.159-.01-.053-.2-.427-.394-.456-.042-.139-.128.106-.159.723-.659-.01-.085.287-.427-.128-.382.192-.3.06-.329v-.2l-.1-.183-.234-.191-.138.042-.319-.5-.552-.6-.542-.319-.138.085-.138-.606-.277-.35-.393-.149-.053.053.053.277-.266.061.053.085-.053.085-.243-.487-.149.01-.106-.074.075-.17.265-.16-.329-.138.222-.276-.031-.2-.191.061-.061-.106-.011.182h-.1v-.148l.074-.1.053-.043v-.1l-.106.061-.061-.138.4-.266.17-.212-.117-.277-.308-.329-.107-.061v.2l-.329.043-.244.138-.457.032v.17l-.074.042.351.532-.17-.061-.213-.426-.2-.213-.106-.061-.308.032.2,8.31-1.3,1.477-2.04,1.488-1.488,2.592-.372,3.337-.744,3.9.117,3.2.659.308.191.191.308.17.138.183.1.01.085.139.6.2.191.3.127.457.394.2.255.33.318.17.117.106.053.159.127.061-.052.183.1.074.085.244.107.074.183-.043.1.138.266.011.329.212.01.361-.06.139.3.393.106-.01.33.138.061.212.584.213.183.265.467.287.086.2.234.061.138.117.061.17.319.244.021.085.266.061.138.35.276.234-.117.2.053.213.191.107.149.042.085.457.149.287.361.255.1.2-.053.265.159.277.255.978-.053.212.075.2-.053.1.042.192.223.4h.1l.074.117-.032.117-.148.053-.053.085.042.468.5.361-.011.138.106.1.011.183-.117.031-.022.3.075.149.223.138.1.138.086.032.031.329.2.277-.085.223-.159.031.106.149-.043.223-.138.243.182.2-.074.139.107.042v.183l.169.382-.1.043-.149-.2-.01.182.032.075.169.031.277.277.061.319.138.243-.085.362h.106l.043.159.212.032v.106l-.01.1.021.148-.116.086.031.212.16.2-.1.117.043.2-.075.107.128.16-.022.243.128.107-.086.138v.117l.1.106-.01.436.138.031.043.107-5.707.2-4.187,2.487-4.553,1.243-8.533,5.25-7.045.106-5.48,1.042Z" transform="translate(2229 282)" fill="none" stroke="#3d3e40" stroke-miterlimit="10" stroke-width="2"/>
    <path id="Path_3145" data-name="Path 3145" d="M196.077,219.672l95.775.191.1,2.071-1.105.1-.1,2.381.829.828.182,2.062,1.1.5.478,2.709,1.01,2.168,1.477,1.966.552,2.274,1.2,1.753,1.478.829,4.186,4.091,2.242,2,1.053.563,2.3.255,1.753.415,2.858,1.644,1.817,2.984,1.913,3.942,1.955,4.559,2.38,3.942.552,1.945,2.68,3.464,3.187,3.677,2.668.5,2.136,1.626,1.157,1.987,2.263,3.241,2.07,3.113,2.349,3.018.148.287,1.137,1.318,2.466,3.687,3.049,4,1.53,1.69.957.4,1.722,2.5.861,1.052,2.561,3.114,5.164,4.506,1.7.67,5.122-.139,1.522-.467,2.2-.4,1.956-.138,2.009-.68,1.222-.744,4.453-1.817,2.019-1.488,2.74-1.084,2.74.138.978.808,1.3,2.412.266,2.4-1.413,2.094-1.645,2.9-.542,1.678V318l-.73,1.616-1.775,2.093-2.805,2.625-2.8,1.211-1.892,1.945-.977,2.157-.117,2.487.68,1.148,1.222,2.646.159,3.315.811,1.621-.2,1.644.446,3.177,1.3,3.4,1.34,1.031,2.614,2.327,2.593,1.275,3.708,1.721,2.848,2.68,1.7,2.136.415,1.965-.032,2.763.061,2.306,1.244,3.783.6,2.327,1.912,3.7-.6,3.528v3.061l-.7,3.708-.8,3.7-.022,3.634-.627,4.463v3.146l-.414,6.854-3.975,4.154-1.955.978-1.36.521-1.478,1.477.183,3.337,2.242,2.168,1.583,1.286.34,1.339-2.253,1.827-2.136.6-2.327.967-2.436,1.445-1.658,1.084-1.5,2.136-1.817,6.3-.383,3.485,1.478,1.753,5.5,1.307,2.848.382,1.827-.414,2.2-.117.511,2.1-.319,1.019-1.509,2.508-1.795,2.688-1.637,3.443-1.4,2.412-1.8,2.869-1.328,2.975-.84,2.519-1.307,2.314-1.01,2.136-1.806,3.528-1.743.978-1.594-.7-2.061-1.3-2.731-.542-2.753-.276-1.041-.4-5.834,1.721-9.181,2.572-2.4.786-1.711.244-2.178-.244-2.943.021-1.244.532-1.562,1.849-.892,1.944.223,2.359v4.608l.243,1.7-.51,1.679-.882,1.668-2.04,2.295-3.146,2.9-4.25-.127-3.2.967-4.591,2.369-.828,2.923,1.6,2.359,2.837-.276.988.085.192,2.295-.436.957-.075.913-1.317,3.688-2.795-.061-10.68.042-2.805-.085-6.78.1-.51-.075-39.391.149v.308l-5.856-.276-10.074-.053L226,516.369l-.255-.086-3.071.032-22.931-.117-4.379.053-26.268-.043-.881.075-2.168.021-2.01-.1-10.556.025-1.636-.053-4.262.085-1.945-.061-32.783.127-19.752-.1-1.827.053-.925-.061-4.8.074-59.029.074-6.652.266V219.811l.861-.011,112.745.022h.723Z" transform="translate(2229 282)" fill="none" stroke="#3d3e40" stroke-miterlimit="10" stroke-width="2"/>
  </g>
</svg>
