<svg width="109" height="109" viewBox="0 0 109 109" fill="none" xmlns="http://www.w3.org/2000/svg">
<path d="M54.2953 108.962C52.1463 108.962 50.0392 108.196 48.3631 106.809C46.4596 105.232 45.1906 103.295 44.4872 100.893C44.2777 100.836 44.0652 100.785 43.8407 100.734C43.302 100.609 42.7423 100.479 42.2065 100.226C40.0605 99.2195 38.8813 97.4894 38.7017 95.09C38.6179 93.9839 38.5461 92.8778 38.4772 91.7689C38.3425 89.6702 38.2019 87.5005 37.9834 85.3734C37.7888 83.4533 36.8251 81.9105 35.1969 80.9093C32.5151 79.2615 30.0818 77.3187 27.9628 75.1321C23.9791 71.0196 21.1776 66.1046 19.6362 60.5231C18.6964 57.1282 18.3253 53.7078 18.5258 50.3555C18.7712 46.2884 19.7679 42.366 21.4889 38.6932C23.3954 34.6262 25.9994 31.0697 29.2288 28.1229C34.5324 23.2844 40.7759 20.2271 47.7855 19.0387C50.1799 18.6332 52.1822 18.4431 54.0888 18.4431C54.4599 18.4431 54.8281 18.4516 55.1902 18.4658C61.263 18.7154 66.9468 20.3036 72.0858 23.1852C75.1267 24.8897 77.8653 26.9884 80.2298 29.419C84.8121 34.1355 87.8171 39.6547 89.1579 45.8233C89.8014 48.7786 89.996 51.8955 89.7416 55.0833C89.4632 58.5604 88.5743 61.9979 87.1017 65.302C85.1832 69.6044 82.4117 73.4361 78.856 76.6891C77.2697 78.1412 75.6026 79.392 73.8995 80.4101C71.565 81.8055 70.3618 83.8419 70.2211 86.6326C70.1044 88.9753 69.9428 91.7519 69.6285 94.5682C69.6046 94.7724 69.5926 94.9766 69.5776 95.1808C69.5387 95.7622 69.4998 96.3606 69.2574 96.9335C68.4313 98.9018 66.9677 100.15 64.9055 100.643C64.693 100.694 64.4805 100.748 64.268 100.802C64.1872 100.825 64.1094 100.847 64.0316 100.87C63.1756 103.763 61.5085 106.015 59.0751 107.561C57.6415 108.471 55.9864 108.956 54.2923 108.956L54.2953 108.962ZM47.986 100.89C48.6206 102.614 49.6681 103.925 51.1826 104.889C52.1613 105.513 53.1819 105.831 54.2115 105.831C54.861 105.831 55.5344 105.706 56.2108 105.456C57.429 105.011 58.4406 104.222 59.3954 102.975C59.8593 102.37 60.3083 101.701 60.5238 100.89H47.983H47.986ZM52.0895 97.5575C55.6601 97.5575 59.4583 97.5575 63.2265 97.583H63.2564C64.259 97.583 64.9714 97.2937 65.567 96.6471C66.1087 96.0572 66.2494 95.3453 66.2973 94.4547L66.3212 93.9754C66.3542 93.2976 66.3871 92.5999 66.4769 91.9022C66.5577 91.2527 66.5397 90.5947 66.5218 89.8942C66.5158 89.6758 66.5098 89.4575 66.5068 89.2391H41.7426C41.7665 91.0967 41.9102 93.0452 42.1886 95.3368C42.3442 96.6244 43.3738 97.5178 44.7446 97.5603C44.9122 97.566 45.0828 97.566 45.2504 97.566C45.4599 97.566 45.6694 97.566 45.8789 97.5603C46.0915 97.5603 46.304 97.5546 46.5165 97.5546H52.0924L52.0895 97.5575ZM66.9468 86.0144C66.9558 85.9832 66.9647 85.9576 66.9647 85.9406C67.1623 82.5231 68.8354 79.8145 71.9361 77.8916C75.0938 75.9319 77.7366 73.6147 79.7958 70.9998C85.3778 63.9066 87.4998 56.0221 86.0961 47.559C85.0485 41.2458 82.0076 35.6132 77.0602 30.8258C73.9265 27.7911 70.1583 25.4201 65.8663 23.7751C62.1669 22.357 58.2072 21.631 54.0948 21.6139H53.9721C52.0984 21.6139 50.1769 21.7869 48.2644 22.133C41.8923 23.2788 36.2534 26.061 31.5005 30.4032C29.4772 32.2523 27.6934 34.422 26.1939 36.8526C23.4852 41.2514 22.0097 46.0842 21.8121 51.2205C21.6565 55.2507 22.4107 59.3234 24.0629 63.3308C25.6402 67.1653 27.9239 70.58 30.848 73.4786C32.6379 75.254 34.6791 76.8508 36.9179 78.2235C38.7765 79.3636 40.0575 80.9518 40.8327 83.0818C41.1829 84.0404 41.2966 85.0416 41.3864 86.0172H66.9498L66.9468 86.0144Z" fill="#5DB869"/>
<path d="M6.6166 53.3192C5.10812 53.3192 3.60264 53.3192 2.09416 53.3164C1.8218 53.3164 1.53447 53.3107 1.25013 53.2455C0.537792 53.0838 0.0589102 52.5591 0.00503592 51.87C-0.0518313 51.1581 0.37617 50.5512 1.12442 50.2874C1.4327 50.1768 1.73201 50.1683 2.01335 50.1683H10.9415C11.2767 50.1683 11.606 50.1796 11.9382 50.3101C12.5966 50.571 13.0306 51.1921 12.9977 51.8217C12.9618 52.4882 12.459 53.0696 11.7766 53.2313C11.4503 53.3079 11.1121 53.3164 10.8188 53.3164C9.41807 53.3164 8.02033 53.3192 6.6196 53.3192H6.6166Z" fill="#BDE2C2"/>
<path d="M106.218 53.3164H99.8071C99.1456 53.3164 98.4842 53.3164 97.8257 53.3164H97.7688C97.4785 53.3164 97.1792 53.3164 96.8799 53.2597C96.1167 53.1207 95.569 52.5506 95.5211 51.8388C95.4702 51.09 96.0179 50.4179 96.826 50.2392C97.1373 50.1711 97.4486 50.1683 97.7539 50.1683C99.1815 50.1683 100.585 50.1654 101.986 50.1654C103.387 50.1654 106.443 50.1654 106.443 50.1654C106.658 50.1654 106.886 50.1683 107.113 50.2136C108.005 50.3838 108.568 51.0418 108.511 51.8501C108.457 52.6215 107.891 53.1746 107.032 53.2909C106.859 53.3136 106.691 53.3164 106.547 53.3164H106.215H106.218Z" fill="#BDE2C2"/>
<path d="M17.152 32.8706C16.8288 32.8706 16.4966 32.7855 16.1673 32.6153C15.3263 32.1843 14.4882 31.7248 13.6801 31.2795C13.3419 31.0923 13.0007 30.9052 12.6595 30.7208L11.0942 29.87C10.0945 29.3254 9.09483 28.7837 8.09516 28.242C7.56839 27.9556 7.02965 27.5585 7.02366 26.7729C7.02067 26.3333 7.18528 25.9334 7.48758 25.6413C7.78389 25.3576 8.19094 25.1988 8.63989 25.1988H8.69077C8.98408 25.1988 9.26243 25.2697 9.53779 25.42C10.4327 25.9079 11.3306 26.3928 12.2255 26.8778C14.0513 27.8676 15.9398 28.8915 17.7895 29.9097C18.6515 30.3861 18.9628 31.1973 18.5797 31.9829C18.3103 32.5388 17.7776 32.8678 17.155 32.8678L17.152 32.8706Z" fill="#BDE2C2"/>
<path d="M91.3757 32.8848C90.7172 32.8423 90.2204 32.5331 89.957 32.0113C89.6547 31.4043 89.7445 30.786 90.2024 30.3124C90.4299 30.0798 90.7172 29.9125 90.9926 29.7622C93.1955 28.5597 95.4013 27.36 97.6072 26.1631L98.5649 25.6441L98.7086 25.5647C98.9899 25.4059 99.3102 25.2272 99.7142 25.1988C99.7651 25.196 99.816 25.1932 99.8669 25.1932C100.492 25.1932 100.989 25.4683 101.304 25.993C101.651 26.5687 101.54 27.3515 101.046 27.8109C100.819 28.0208 100.549 28.1683 100.286 28.3129L100.25 28.3328C98.5799 29.246 96.9068 30.1564 95.2367 31.0668L92.6418 32.4792C92.2916 32.6692 91.8935 32.8876 91.3907 32.8876H91.3757V32.8848Z" fill="#BDE2C2"/>
<path d="M32.6827 18.0943C32.2906 18.0943 31.9165 17.9383 31.5723 17.6263C31.3568 17.4306 31.2072 17.1754 31.0785 16.9513L31.0246 16.8606C29.6269 14.4839 28.2351 12.1043 26.8463 9.7248C26.5081 9.14339 26.3735 8.65274 26.4393 8.22164C26.5081 7.7707 26.7925 7.41051 27.2863 7.15242C27.5138 7.0333 27.7562 6.97374 28.0076 6.97374C28.6811 6.97374 29.3156 7.41618 29.7466 8.18761C30.6684 9.84109 31.6501 11.5059 32.5959 13.1168C33.0299 13.8542 33.4639 14.5945 33.8949 15.3319C33.9248 15.3829 33.9548 15.4311 33.9847 15.4793C34.1673 15.7828 34.3768 16.1232 34.3528 16.5628C34.3079 17.2151 33.9667 17.6802 33.3382 17.9553C33.1197 18.0489 32.8982 18.0971 32.6827 18.0971V18.0943Z" fill="#BDE2C2"/>
<path d="M75.8331 18.0971C75.6026 18.0971 75.3691 18.0432 75.1357 17.9355C74.4982 17.6405 74.1869 17.1442 74.154 16.3727C74.133 16.16 74.2797 15.9076 74.4353 15.641L74.4742 15.5758C75.9199 13.0913 77.4134 10.5218 78.9219 7.97207C79.4187 7.12973 80.0233 6.95389 80.4423 6.95389C80.7147 6.95389 80.99 7.02763 81.2624 7.17227C81.9897 7.55799 82.292 8.3124 82.0136 9.0498C81.9209 9.29938 81.7862 9.52911 81.6545 9.75317C80.2807 12.11 78.9069 14.4583 77.5271 16.8038L77.4912 16.8634C77.3356 17.1272 77.162 17.4278 76.9076 17.6518C76.5783 17.9468 76.2162 18.0943 75.8301 18.0943L75.8331 18.0971Z" fill="#BDE2C2"/>
<path d="M99.8909 78.1384C99.7413 78.1384 99.5916 78.1185 99.442 78.0816C99.1726 78.0164 98.9361 77.8888 98.7087 77.7668L98.571 77.6931C96.2843 76.4991 94.0007 75.2994 91.717 74.1025L91.1423 73.8019L91.0017 73.731C90.846 73.6516 90.6844 73.5693 90.5318 73.4644C89.8074 72.9624 89.586 72.1229 89.996 71.4195C90.2833 70.9232 90.8191 70.6282 91.4237 70.6282C91.6571 70.6282 91.8876 70.6736 92.1091 70.7615C92.3844 70.8693 92.6418 71.0083 92.8902 71.1444C92.9681 71.187 93.0459 71.2295 93.1237 71.2692L95.997 72.7724C97.4516 73.5353 98.9032 74.2954 100.358 75.0555C100.935 75.3561 101.519 75.7758 101.495 76.604C101.495 77.0209 101.331 77.4123 101.028 77.6988C100.729 77.9824 100.325 78.1412 99.8909 78.1412V78.1384Z" fill="#BDE2C2"/>
<path d="M8.82249 78.144C8.78059 78.144 8.74168 78.144 8.69978 78.1355C7.93057 78.127 7.38884 77.7924 7.12844 77.1741C6.86805 76.5445 6.99974 75.9347 7.49659 75.4951C7.71508 75.3022 7.97247 75.1661 8.22389 75.0356L8.30171 74.9959C10.8069 73.6743 13.315 72.3555 15.8232 71.0395C16.305 70.7871 16.76 70.6566 17.176 70.6566C17.7896 70.6566 18.2774 70.9431 18.5558 71.4621C19.0137 72.3214 18.6067 73.1666 17.4424 73.7792C14.9043 75.115 12.3602 76.4424 9.81617 77.7697C9.76828 77.7952 9.7174 77.8207 9.66951 77.8491C9.40613 77.9937 9.13077 78.1412 8.82548 78.1412L8.82249 78.144Z" fill="#BDE2C2"/>
<path d="M54.2894 12.6262C54.1457 12.6262 53.9961 12.6092 53.8434 12.5751C53.2358 12.439 52.8168 12.0306 52.6582 11.4265C52.6013 11.2024 52.6043 10.9812 52.6073 10.7657V10.621C52.6073 8.2018 52.6073 5.77973 52.6073 3.36049V2.32813V2.21185C52.6073 2.10124 52.6043 1.9878 52.6133 1.87719C52.7001 0.955438 53.3585 0.337158 54.2535 0.337158C55.2052 0.345667 55.8697 0.995144 55.8906 1.91689C55.9146 2.99746 55.9086 4.09222 55.9056 5.15294C55.9056 5.51313 55.9026 5.87332 55.9026 6.23351V6.49443V7.67427C55.9026 8.69812 55.9026 9.72197 55.9056 10.7458C55.9056 11.1996 55.8817 11.6392 55.5464 12.0306C55.2142 12.4191 54.7802 12.6262 54.2864 12.6262H54.2894Z" fill="#BDE2C2"/>
<path d="M54.427 75.5972C53.6308 75.5972 52.8347 75.5915 52.0386 75.5802C51.0209 75.566 50.5331 75.1746 50.2966 74.1904C50.2009 73.7991 50.1799 73.3992 50.159 73.0135C50.135 72.6079 50.1141 72.1881 50.0033 71.7769C47.3814 71.1926 44.9571 70.2142 42.7902 68.8642C42.6225 68.9833 42.4609 69.0996 42.2963 69.2187C41.8055 69.5704 41.3415 69.905 40.8597 70.2284C40.3898 70.546 40.0216 70.6878 39.6654 70.6878C39.2554 70.6878 38.8633 70.4978 38.3994 70.0695C37.3189 69.0769 36.2235 68.0388 35.14 66.981C34.2541 66.1159 34.2331 65.4608 35.0562 64.471C35.3495 64.1193 35.6458 63.7676 35.9421 63.4188C36.1457 63.1777 36.3492 62.9395 36.5497 62.6984C36.5497 62.6984 36.5497 62.6927 36.5497 62.6899C35.1879 60.611 34.2511 58.3818 33.7632 56.0533L33.1347 55.9767C32.5211 55.903 31.9165 55.8292 31.309 55.764C29.7496 55.5995 29.2737 55.1089 29.2677 53.6738C29.2617 52.3323 29.2557 50.9681 29.2677 49.6294C29.2827 48.4467 29.7825 47.9277 31.0575 47.7689C31.285 47.7405 31.5155 47.715 31.7459 47.6923C32.3715 47.6243 33.015 47.5562 33.6585 47.4115C34.308 45.0349 35.2507 42.973 36.5407 41.1238C36.3073 40.6955 35.984 40.3325 35.6428 39.9468C35.4932 39.7795 35.3435 39.6121 35.2029 39.4391C33.9248 37.8764 33.9548 37.4652 35.4453 36.0499C35.7117 35.7975 35.9781 35.5423 36.2444 35.287C36.864 34.6943 37.5045 34.0845 38.148 33.4917C38.6478 33.0294 39.0698 32.8224 39.5158 32.8224C39.9169 32.8224 40.3149 32.9897 40.8028 33.3613C41.3475 33.7782 41.8743 34.2008 42.431 34.6489C42.6255 34.8049 42.8201 34.9637 43.0206 35.1225C45.0768 33.9342 47.3066 33.0805 49.6471 32.5813C49.8028 32.0368 49.8596 31.4752 49.9165 30.9279C49.9614 30.4939 50.0063 30.043 50.1021 29.6005C50.3385 28.4916 50.8414 28.0719 51.9488 28.0492C52.709 28.035 53.4812 28.0265 54.2504 28.0265C55.0196 28.0265 55.7918 28.035 56.561 28.0492C57.7073 28.0719 58.2251 28.5086 58.4077 29.6062C58.5244 30.3096 58.6202 31.0101 58.719 31.7532C58.7549 32.0169 58.7908 32.2864 58.8297 32.5615C61.2241 33.1089 63.3971 33.9569 65.4562 35.148L66.001 34.7141C66.5367 34.2859 67.0695 33.8604 67.6082 33.4407C68.1649 33.0068 68.5839 32.8224 69 32.8224C69.4519 32.8224 69.8829 33.0408 70.4336 33.5541C71.4722 34.5213 72.4898 35.4855 73.4536 36.413C74.4592 37.3829 74.4921 37.9814 73.6002 39.0846C73.292 39.4675 72.9777 39.8447 72.6634 40.2219C72.4449 40.4857 72.2264 40.7466 72.0109 41.0104C72.002 41.0245 71.993 41.0501 71.981 41.0813C71.981 41.0841 71.981 41.0869 71.978 41.0898C73.3099 43.0694 74.2737 45.1908 74.8423 47.3917C75.3571 47.5448 75.8869 47.5902 76.4017 47.6356C76.71 47.664 77.0272 47.6923 77.3415 47.7434C78.832 47.9844 79.2421 48.4297 79.2481 49.8223C79.254 51.0645 79.257 52.4032 79.2481 53.7588C79.2391 55.0578 78.7392 55.5797 77.3415 55.7498C76.8207 55.8122 76.2999 55.8803 75.7462 55.9483L75.1147 56.0278C74.8633 57.0942 74.54 58.3222 74.0372 59.502C73.6242 60.4777 73.0824 61.4732 72.2983 62.7097C72.424 62.8544 72.5497 62.999 72.6754 63.1408C73.0495 63.5662 73.4326 64.0058 73.8008 64.4454C74.6268 65.4353 74.5879 66.1386 73.6601 67.0405C72.6425 68.0275 71.5979 69.0173 70.5593 69.9759C70.0206 70.4723 69.6225 70.6765 69.1855 70.6765C68.8114 70.6765 68.4343 70.5233 67.9165 70.166C67.4616 69.8483 67.0126 69.5222 66.5517 69.1875C66.399 69.0769 66.2434 68.9634 66.0878 68.85C63.8221 70.2454 61.4546 71.204 58.8626 71.7684L58.8058 72.242C58.7369 72.8036 58.6711 73.3538 58.6082 73.904C58.4676 75.0895 57.9498 75.5575 56.7556 75.5717C55.9774 75.5802 55.1992 75.5858 54.424 75.5858L54.427 75.5972ZM55.4626 72.398C55.4745 72.2619 55.4835 72.1257 55.4955 71.9924C55.5344 71.5075 55.5703 71.0508 55.6362 70.5885C55.7978 69.4739 56.2078 69.0542 57.3302 68.8613C60.1317 68.3849 62.6668 67.3667 64.8576 65.8323C65.3455 65.492 65.7136 65.3473 66.0938 65.3473C66.4739 65.3473 66.8779 65.5033 67.4316 65.889C67.8447 66.1755 68.2547 66.4676 68.6528 66.7484L68.9491 66.9583L70.4546 65.526L70.263 65.3048C69.9847 64.9815 69.7033 64.6553 69.422 64.3292C68.3325 63.0586 68.3176 62.7579 69.2574 61.3966C70.7718 59.2099 71.6518 57.0374 71.9571 54.7515C72.1157 53.5603 72.6485 53.2654 73.7888 53.0526C74.0791 52.9988 74.3754 52.9732 74.6598 52.9477C75.1117 52.908 75.5427 52.8683 75.9587 52.7293C75.9378 52.4372 75.9468 52.1536 75.9587 51.8785C75.9707 51.4814 75.9827 51.1014 75.9079 50.7383C75.7253 50.7128 75.5457 50.6901 75.3691 50.6646C74.8453 50.5937 74.3395 50.5256 73.8367 50.4689C72.5138 50.3214 72.0289 50.052 71.7565 48.7474C71.2657 46.3877 70.254 44.184 68.7516 42.2015C68.0572 41.2855 68.0781 40.6927 68.8354 39.7625C69.2095 39.303 69.5926 38.8464 69.9787 38.3841L70.3558 37.9331C69.85 37.3829 69.3831 36.9405 68.8862 36.5321L68.3984 36.915C67.9015 37.3035 67.4286 37.6779 66.9498 38.0494C66.429 38.4522 66.0369 38.6876 65.582 38.6876C65.1719 38.6876 64.7738 38.4862 64.3039 38.1856C62.2058 36.8412 59.8952 35.9393 57.435 35.5082C56.1809 35.287 55.7888 34.89 55.6062 33.6562C55.5164 33.0493 55.4476 32.4565 55.3728 31.8269C55.3488 31.6255 55.3249 31.4213 55.301 31.2143C54.9418 31.1746 54.5946 31.1547 54.2534 31.1547C53.9122 31.1547 53.562 31.1746 53.2148 31.2171C53.1909 31.4128 53.1669 31.6085 53.146 31.8014C53.0771 32.3913 53.0083 32.9727 52.9275 33.5541C52.7449 34.8928 52.3588 35.2785 50.9701 35.5309C48.3631 36.0017 46.1543 36.8667 44.2148 38.1714C43.7629 38.4777 43.3738 38.679 42.9518 38.679C42.5028 38.679 42.1047 38.4522 41.572 38.0579C41.3056 37.8622 41.0542 37.6495 40.8088 37.4425C40.4257 37.1163 40.0635 36.8072 39.6565 36.5746L38.1989 37.9643L38.564 38.4039C38.983 38.9116 39.4051 39.4164 39.8241 39.9241C40.3927 40.6161 40.4197 41.362 39.8989 42.0257C38.3066 44.0621 37.2621 46.3253 36.6994 48.9431C36.4869 49.9329 36.0559 50.2987 34.9215 50.4491C34.3379 50.5256 33.7542 50.5994 33.1586 50.6731L32.593 50.744C32.5421 51.5211 32.5451 52.1507 32.5989 52.7322C33.0629 52.8456 33.5417 52.8853 34.0057 52.9279C34.3528 52.9591 34.715 52.9902 35.0682 53.0498C36.2803 53.2568 36.6904 53.5178 36.8849 54.7373C37.28 57.2133 38.2318 59.4737 39.7912 61.6518C40.4616 62.5849 40.4287 63.1777 39.6625 64.0853C39.3302 64.4795 38.995 64.868 38.6598 65.2566L38.3784 65.5856L39.8271 67.0207C39.8271 67.0207 39.851 67.015 39.86 67.0122C40.0725 66.859 40.303 66.6917 40.5364 66.5243C40.8686 66.2861 41.2039 66.045 41.5421 65.8125C42.003 65.4977 42.3771 65.3559 42.7542 65.3559C43.1134 65.3559 43.4726 65.4806 43.9245 65.7643C44.1131 65.8834 44.3016 66.0053 44.4872 66.1244C44.9062 66.3967 45.3372 66.6775 45.7802 66.9129C47.5311 67.8545 49.4376 68.504 51.4459 68.8443C52.6611 69.0485 53.0951 69.4768 53.2268 70.5999C53.2837 71.082 53.3465 71.5613 53.4064 72.0321L53.4543 72.3952H55.4656L55.4626 72.398Z" fill="#BDE2C2"/>
<path d="M54.1666 63.1834C50.988 63.1834 47.998 62.0007 45.7443 59.8537C43.4546 57.6727 42.2035 54.7742 42.2215 51.6913C42.2574 45.4206 47.6598 40.3183 54.2654 40.3183H54.3133C57.5278 40.3297 60.5417 41.5265 62.8015 43.6877C65.0702 45.8573 66.3093 48.7389 66.2913 51.8019C66.3153 54.7515 65.0492 57.6727 62.8164 59.8112C60.5567 61.9752 57.4978 63.172 54.1995 63.1805H54.1666V63.1834ZM54.2594 43.4438C49.4826 43.4438 45.5557 47.1676 45.5108 51.7423C45.4899 53.9148 46.4117 56.059 48.0459 57.6302C49.1833 58.7249 51.1826 60.0296 54.2474 60.0437H54.2953C56.6628 60.0437 58.8597 59.1872 60.4759 57.633C62.1101 56.0618 63.0289 53.9233 62.996 51.7679C62.996 49.5386 62.0951 47.4484 60.449 45.88C58.8028 44.3116 56.6089 43.4466 54.2714 43.4438L54.2624 43.1602V43.4438H54.2594Z" fill="#BDE2C2"/>
</svg>
