<svg width="117" height="111" viewBox="0 0 117 111" fill="none" xmlns="http://www.w3.org/2000/svg">
<g clip-path="url(#clip0_30_45)">
<path d="M107.425 61.6648C107.282 61.6648 107.15 61.645 107.03 61.6024C106.264 61.333 106.01 60.9218 106.093 60.0766C106.114 59.8724 106.135 59.6682 106.156 59.464C106.24 58.684 106.327 57.8786 106.285 57.0816C105.983 51.2193 106.031 45.2549 106.075 39.4862C106.102 36.2246 106.126 32.8524 106.09 29.5341C106.051 26.1222 106.063 22.6536 106.072 19.2985C106.075 17.7613 106.081 16.2241 106.081 14.6869V12.9285L105.582 13.3511C105.447 13.4645 105.33 13.5609 105.225 13.6488C105.022 13.819 104.86 13.9523 104.705 14.097C104.423 14.3607 104.142 14.6302 103.864 14.8968C103.391 15.3505 102.903 15.8185 102.409 16.2581C102.074 16.5559 101.703 16.7119 101.334 16.7119C100.966 16.7119 100.574 16.5417 100.254 16.2212C99.7242 15.6937 99.6943 15.1577 100.158 14.5848C100.287 14.4288 100.44 14.2841 100.601 14.1338L100.748 13.9949C101.191 13.5723 101.637 13.1525 102.083 12.7299C103.073 11.794 104.097 10.824 105.094 9.85975C105.573 9.39746 105.986 8.88979 106.33 8.45586C106.692 7.99641 107.183 7.74399 107.713 7.74399C108.162 7.74399 108.61 7.93401 108.979 8.28002C110.604 9.81154 112.268 11.3601 113.875 12.8547C114.498 13.4333 115.12 14.0119 115.743 14.5933V16.4027C115.632 16.4425 115.524 16.485 115.417 16.5304C114.938 16.7317 114.6 16.8225 114.327 16.8225C113.929 16.8225 113.579 16.6381 113.028 16.1447C112.561 15.7249 112.1 15.3023 111.639 14.8797C111.241 14.5167 110.846 14.1537 110.445 13.7907C110.319 13.6744 110.185 13.5779 110.017 13.4532C109.93 13.3908 109.835 13.3199 109.727 13.2348L109.239 12.8632V23.7711C109.239 33.6097 109.236 43.7829 109.248 53.7888C109.248 54.6964 109.296 55.6153 109.344 56.5059C109.38 57.2092 109.419 57.9353 109.434 58.65C109.446 59.1974 109.38 59.776 109.245 60.3716C109.074 61.109 108.147 61.6592 107.428 61.6592L107.425 61.6648Z" fill="#BDE2C2"/>
<path d="M16.1862 16.8083C15.8809 16.8083 15.5757 16.6779 15.3272 16.4396C14.6987 15.8412 14.0732 15.2399 13.4446 14.6387C12.3402 13.5808 11.2358 12.5229 10.1224 11.4707C9.72431 11.0935 9.26937 10.7787 8.96409 10.5745C8.39541 10.1973 8.08713 9.70093 8.1021 9.17908C8.11706 8.66574 8.4433 8.1921 9.02095 7.84893L9.06286 7.82624C9.28434 7.69577 9.51181 7.55964 9.70336 7.37245C11.2867 5.82392 12.861 4.27254 14.4383 2.72117L15.5727 1.60373H16.8926C17.8264 2.48294 17.8204 3.03882 16.9135 4.01729C16.4346 4.53347 15.9348 5.04681 15.4529 5.54597C15.1357 5.87213 14.8214 6.19829 14.5071 6.52728C14.3725 6.66909 14.2527 6.81373 14.1031 6.99808C14.0283 7.08884 13.9445 7.19094 13.8487 7.30722L13.4626 7.76668H25.1204C31.7289 7.76101 38.3375 7.75817 44.9491 7.75817C49.4805 7.75817 54.0149 7.75817 58.5434 7.76384C60.1147 7.76384 61.7219 7.83758 63.3142 7.97939C63.9906 8.03895 64.4935 8.30271 64.7299 8.71679C64.9753 9.14788 64.9245 9.71511 64.5892 10.3164C64.3348 10.7702 63.9278 10.9744 63.2723 10.9744C63.2394 10.9744 63.2035 10.9744 63.1706 10.9744C62.4762 10.9517 61.7818 10.9261 61.0874 10.9006C59.3874 10.8382 57.6305 10.773 55.9005 10.7702C49.3817 10.7617 42.863 10.7588 36.3412 10.7588H13.6152L14.0492 11.2325C14.163 11.3572 14.2617 11.465 14.3485 11.5614C14.5161 11.7486 14.6508 11.8961 14.7975 12.0379C15.0908 12.3187 15.3871 12.5966 15.6804 12.8746C16.1174 13.2858 16.5723 13.7112 17.0033 14.1395C17.4044 14.5366 17.6019 15.0045 17.554 15.4555C17.5091 15.9036 17.2248 16.3233 16.7579 16.6353C16.5843 16.7516 16.3868 16.8112 16.1802 16.8112L16.1862 16.8083Z" fill="#BDE2C2"/>
<path d="M101.2 109.692C100.9 109.692 100.613 109.584 100.344 109.375C99.829 108.972 99.6823 108.271 99.9966 107.71C100.149 107.435 100.392 107.179 100.631 106.947C101.074 106.513 101.526 106.085 101.978 105.659C102.265 105.387 102.553 105.117 102.84 104.842C102.978 104.712 103.106 104.57 103.265 104.4C103.346 104.312 103.433 104.218 103.534 104.111L103.938 103.682L103.334 103.637C103.196 103.626 103.07 103.614 102.957 103.606C102.735 103.586 102.544 103.569 102.352 103.569H89.1858C83.7445 103.575 78.3032 103.575 72.8619 103.575C68.2138 103.575 63.5686 103.575 58.9205 103.569C57.7951 103.569 56.6488 103.504 55.5384 103.444C55.0325 103.416 54.5297 103.387 54.0239 103.365C53.8952 103.359 53.7575 103.351 53.6408 103.322C52.8866 103.138 52.4196 102.548 52.5543 101.949C52.7219 101.204 53.2158 100.792 53.9431 100.792C54.0119 100.792 54.0838 100.795 54.1556 100.804L54.5596 100.846C55.1612 100.911 55.7868 100.977 56.4063 100.982C56.7445 100.982 57.0558 100.92 57.3521 100.858C57.5257 100.821 57.6903 100.787 57.855 100.767C57.9896 100.75 58.1213 100.73 58.256 100.71C58.7139 100.645 59.1449 100.582 59.5789 100.582C69.1207 100.574 78.6594 100.574 88.2011 100.574H103.295L103.585 100.038L102.663 99.1559C102.086 98.6028 101.505 98.0526 100.927 97.4996C100.856 97.4315 100.784 97.3634 100.712 97.2982C100.517 97.1195 100.332 96.9494 100.179 96.7622C99.6644 96.1297 99.7122 95.3725 100.299 94.8364C100.595 94.5642 100.948 94.4224 101.319 94.4224C101.67 94.4224 102.02 94.55 102.334 94.7939C102.511 94.9329 102.669 95.0945 102.84 95.2704C102.84 95.2704 103.899 96.3538 104.381 96.8473C105.396 97.8853 106.411 98.9233 107.431 99.9529C107.74 100.265 108.099 100.526 108.446 100.778L108.479 100.804C108.952 101.147 109.215 101.567 109.245 102.02C109.272 102.469 109.068 102.908 108.649 103.297C107.368 104.485 106.093 105.673 104.815 106.865L102.741 108.796C102.684 108.85 102.627 108.904 102.571 108.958C102.418 109.105 102.274 109.241 102.116 109.358C101.813 109.582 101.502 109.695 101.194 109.695L101.2 109.692Z" fill="#BDE2C2"/>
<path d="M9.63751 103.594C9.24542 103.594 8.85334 103.421 8.50016 103.095C7.26704 101.955 6.03691 100.809 4.80978 99.6635C3.96275 98.8751 3.11573 98.0867 2.26571 97.2982C1.87662 96.938 1.68806 96.5778 1.63718 96.0928C1.60127 95.7695 1.73894 95.4207 2.00832 95.1371C2.30163 94.8308 2.70269 94.6549 3.10974 94.6549C3.36714 94.6549 3.62155 94.723 3.86698 94.8563C4.13635 95.0038 4.3728 95.2193 4.62421 95.4462L4.75291 95.5625C5.38144 96.1269 6.00399 96.6969 6.67143 97.3067L7.96142 98.4865L8.03325 97.9222C8.04822 97.7974 8.06618 97.6924 8.08114 97.596C8.11107 97.4031 8.13502 97.2528 8.13502 97.0912C8.13502 92.766 8.13502 88.4381 8.13502 84.113C8.13502 74.782 8.13501 65.4511 8.14399 56.1202C8.14399 55.0027 8.20984 53.8598 8.2697 52.7593C8.29664 52.2602 8.32657 51.761 8.34752 51.2619C8.3535 51.1399 8.36248 51.0094 8.39241 50.8988C8.55703 50.2749 9.06285 49.8381 9.62254 49.8381C9.69438 49.8381 9.76321 49.8438 9.83505 49.858C10.697 50.0281 11.143 50.5812 11.0532 51.3725L11.0053 51.7894C10.9395 52.3509 10.8706 52.9323 10.8646 53.5109C10.8646 53.8229 10.9305 54.1207 10.9963 54.41C11.0352 54.5745 11.0712 54.7305 11.0921 54.8864C11.1101 55.0141 11.131 55.1417 11.152 55.2693C11.2208 55.7033 11.2867 56.1117 11.2867 56.5201C11.2956 67.7739 11.2956 79.0277 11.2956 90.2787V98.2171L11.9062 98.3986L15.2734 95.2193C15.6954 94.8194 15.9857 94.6492 16.2401 94.6492C16.4077 94.6492 16.5993 94.7201 16.8417 94.8761C17.4732 95.2732 17.7067 96.0418 17.3894 96.6601C17.2697 96.8926 17.0722 97.1309 16.7729 97.4088C16.1174 98.0158 15.4589 98.6142 14.7975 99.2154C14.0313 99.9131 13.262 100.614 12.5018 101.32C12.0409 101.748 11.6099 102.21 11.1909 102.659L10.9006 102.968C10.5145 103.379 10.0775 103.594 9.63751 103.594Z" fill="#BDE2C2"/>
<path d="M81.9607 15.9291C81.7901 15.9291 81.6195 15.9008 81.4519 15.844C81.3801 15.8213 81.3052 15.7788 81.2244 15.7363C81.1406 15.6909 81.0568 15.6483 80.97 15.6115C78.3601 14.5734 75.7532 13.5354 73.1433 12.5002C73.0326 12.4548 72.9188 12.418 72.8021 12.3783C72.6016 12.3102 72.416 12.2478 72.2544 12.157C71.7216 11.8507 71.5151 11.2523 71.7246 10.634C71.9132 10.0725 72.428 9.73496 73.0984 9.72646C73.1463 9.7378 73.2002 9.74915 73.257 9.76333C73.4306 9.80303 73.6252 9.84841 73.8137 9.90513C76.9414 10.8467 79.6322 11.8819 82.0445 13.0646L82.1852 13.1327C82.4007 13.2376 82.6072 13.3369 82.7898 13.4588C83.4542 13.8956 83.6099 14.46 83.2537 15.135C82.9903 15.6313 82.5084 15.9291 81.9607 15.9291Z" fill="#BDE2C2"/>
<path d="M93.3551 24.3241C93.0139 24.3241 92.6817 24.1965 92.3914 23.9526C91.272 23.0138 90.1047 21.9814 88.7219 20.7052C88.2311 20.2514 88.1143 19.6842 88.3807 19.0602C88.5902 18.5724 89.2517 18.2207 89.958 18.2179C90.0119 18.2406 90.0718 18.2633 90.1376 18.2888C90.3531 18.371 90.6225 18.476 90.8021 18.6376C92.2986 20.0018 93.412 21.0682 94.4057 22.0949C94.9085 22.6139 94.7678 23.4931 94.3069 23.9356C94.0435 24.188 93.7053 24.3269 93.3581 24.3269L93.3551 24.3241Z" fill="#BDE2C2"/>
<path d="M43.9374 101.493C43.7698 101.465 43.5424 101.428 43.3269 101.362C40.2381 100.418 37.5893 99.3913 35.2248 98.22L35.0931 98.1547C34.9075 98.064 34.7309 97.9789 34.5753 97.8768C33.9109 97.44 33.7642 96.9068 34.1114 96.1949C34.3688 95.6703 34.7429 95.415 35.2547 95.415C35.3894 95.415 35.5361 95.432 35.6917 95.4661C35.8623 95.5029 36.0359 95.5795 36.2185 95.6589C36.3023 95.6958 36.3861 95.7327 36.4699 95.7638L44.1919 98.8155C44.2816 98.8524 44.3744 98.8836 44.4672 98.9148C44.551 98.9432 44.6318 98.9715 44.7156 99.0056C45.5567 99.3374 45.865 99.8366 45.6854 100.582C45.5746 101.039 45.2963 101.504 44.0632 101.516C44.0272 101.51 43.9853 101.501 43.9404 101.493H43.9374Z" fill="#BDE2C2"/>
<path d="M27.7572 92.7944C27.6614 92.7575 27.5716 92.7263 27.4848 92.6951C27.2454 92.61 27.0598 92.5448 26.8892 92.4541C25.3838 91.6458 24.0997 90.6134 23.0761 89.3825C22.5254 88.7189 22.5374 87.8907 23.1091 87.3632C23.3964 87.0966 23.7466 86.9576 24.1207 86.9576C24.4948 86.9576 24.8899 87.1023 25.2371 87.3802C26.4553 88.3502 27.5058 89.2067 28.4546 90.0008C28.8736 90.3525 29.113 90.7836 29.128 91.2118C29.143 91.6004 28.9724 91.9748 28.6431 92.2952C28.4785 92.4541 28.2391 92.5647 27.9847 92.6838C27.9069 92.7207 27.829 92.7547 27.7542 92.7944H27.7572Z" fill="#BDE2C2"/>
<path d="M11.7775 43.539C11.3256 43.539 10.9455 43.383 10.709 43.1022C10.4726 42.8215 10.3977 42.4329 10.4995 42.0075C10.6102 41.5424 10.7808 41.0744 10.9485 40.6206L11.0562 40.32C12.0259 37.6171 13.0675 35.3142 14.2348 33.2835C14.564 32.7134 14.977 32.4241 15.4649 32.4241C15.7343 32.4241 16.0276 32.5121 16.3329 32.6879C16.728 32.9148 16.9824 33.2183 16.9405 33.9585C16.9315 33.9869 16.9195 34.0237 16.9075 34.0663C16.8567 34.2393 16.7788 34.5002 16.6591 34.7384C15.2524 37.481 14.157 39.9796 13.3129 42.379C13.0495 43.1306 12.6186 43.4851 11.9152 43.5333C11.8673 43.5362 11.8224 43.539 11.7775 43.539Z" fill="#BDE2C2"/>
<path d="M20.6728 27.7133C20.3884 27.7133 20.1041 27.6197 19.8527 27.4382C19.3079 27.0496 19.1314 26.2442 19.4755 25.7138C20.5051 24.1227 21.8251 22.7756 23.3934 21.7177C23.5161 21.6354 23.6957 21.5957 23.8244 21.5645C23.8573 21.556 23.8902 21.5503 23.9172 21.5418C24.438 21.5617 24.8929 21.7886 25.1683 22.1686C25.4257 22.5203 25.4885 22.9514 25.3389 23.3485C25.2461 23.598 25.0635 23.8703 24.8091 24.1312C23.9711 25.0048 23.1001 25.8755 22.2561 26.7206L21.7622 27.217C21.442 27.5403 21.0648 27.7105 20.6728 27.7105V27.7133Z" fill="#BDE2C2"/>
<path d="M101.966 79.1327C101.771 79.1327 101.574 79.0703 101.373 78.9483C100.778 78.5825 100.556 78.1826 100.661 77.6494C100.715 77.3714 100.841 77.0878 100.96 76.8127L101.002 76.7163C101.765 74.9664 102.535 73.2165 103.301 71.4694L104.256 69.2969C104.295 69.2062 104.33 69.1154 104.366 69.0246C104.432 68.8545 104.495 68.6928 104.579 68.5538C104.818 68.171 105.231 67.9526 105.71 67.9526C105.863 67.9526 106.022 67.9753 106.174 68.0206C106.779 68.1936 107.138 68.6616 107.162 69.3054C107.153 69.3395 107.144 69.3763 107.135 69.416C107.102 69.5465 107.063 69.711 107.009 69.8726C106.016 72.9073 104.899 75.5194 103.597 77.8536C103.355 78.2875 102.96 78.6449 102.672 78.8661C102.436 79.0476 102.199 79.1383 101.963 79.1383L101.966 79.1327Z" fill="#BDE2C2"/>
<path d="M93.4838 89.9668C92.9481 89.9639 92.4812 89.7455 92.1968 89.374C91.9394 89.0365 91.8736 88.6139 92.0172 88.2169C92.0951 88.0013 92.2327 87.7773 92.4063 87.5787C93.3761 86.4811 94.253 85.497 95.1689 84.5384C95.3993 84.2973 95.7286 84.0903 96.0458 83.9853C96.1985 83.9343 96.3541 83.9088 96.5098 83.9088C96.9677 83.9088 97.3867 84.13 97.6651 84.5129C98.12 85.1453 98.102 85.67 97.6082 86.2145C97.0156 86.8669 96.3631 87.4993 95.7316 88.1091C95.5161 88.319 95.2976 88.5288 95.0821 88.7387L95.0222 88.7954C94.7439 89.0705 94.4536 89.3542 94.1423 89.5867C93.9597 89.7257 93.7352 89.8335 93.5736 89.9129C93.5407 89.9299 93.5108 89.9441 93.4808 89.9583L93.4838 89.9668Z" fill="#BDE2C2"/>
<path d="M61.7459 84.3115C61.4975 84.3115 61.2491 84.3115 61.0036 84.3087C60.7552 84.3087 60.5068 84.3087 60.2554 84.3087H57.1875C56.4004 84.3087 55.6162 84.3087 54.829 84.3087C53.1679 84.3058 52.9704 84.1441 52.722 82.6013C52.5334 81.4328 52.3209 80.253 52.1144 79.11C52.0246 78.6108 51.9318 78.1117 51.845 77.6153L51.8181 77.4622L46.9305 75.4684L43.5035 78.0464C43.3598 78.1542 43.2191 78.262 43.0755 78.3726C42.8121 78.574 42.5517 78.7753 42.2823 78.9682C41.8453 79.2802 41.4084 79.4418 40.9893 79.4418C40.5254 79.4418 40.0735 79.2461 39.6485 78.8632C37.5504 76.9687 35.6528 75.2358 33.842 73.5653C32.9681 72.7599 32.9232 72.0565 33.6834 71.1404C34.4855 70.1733 35.2966 69.2147 36.1077 68.2532C36.4609 67.8335 37.281 66.8635 37.281 66.8635L35.1769 62.1895L34.1772 62.0591C33.4769 61.9655 32.7286 61.8662 31.9744 61.7783C31.1274 61.6762 30.2983 61.5911 29.5171 61.523C28.1703 61.4068 27.7123 60.9501 27.7004 59.7079C27.6884 58.3437 27.6914 56.954 27.6944 55.6097C27.6944 55.0311 27.6944 54.4525 27.6944 53.8739V53.406C27.6944 53.0685 27.6914 52.731 27.6944 52.3906C27.7123 51.0066 28.0146 50.6719 29.4034 50.5046C30.3252 50.394 31.268 50.2947 32.1779 50.2011C32.7705 50.1387 33.3631 50.0763 33.9558 50.0111C34.2162 49.9827 34.4735 49.9374 34.722 49.8948C34.8357 49.875 34.9494 49.8551 35.0632 49.8381L35.2248 49.8126L37.3079 45.1953C37.3079 45.1953 35.7486 43.332 35.2936 42.7903C35.1021 42.5634 34.9105 42.3393 34.719 42.1124C34.3718 41.704 34.0276 41.2985 33.6894 40.8844C32.9172 39.9428 32.9561 39.3047 33.836 38.4481C34.8118 37.5009 35.8174 36.5536 36.7901 35.6347C37.2032 35.2461 37.6132 34.8576 38.0233 34.469C38.2058 34.296 38.3884 34.1202 38.571 33.9472C38.984 33.5501 39.412 33.1417 39.843 32.7531C40.3159 32.3277 40.723 32.1292 41.121 32.1292C41.4832 32.1292 41.8693 32.288 42.3302 32.634C43.3628 33.3998 44.4014 34.1882 45.404 34.9512C45.832 35.2773 46.8227 36.0261 46.8227 36.0261L51.8121 34.0266L51.9527 32.9715C52.0545 32.2143 52.1623 31.4202 52.261 30.6232C52.3089 30.2403 52.3478 29.8603 52.3867 29.4774C52.4316 29.052 52.4735 28.6266 52.5304 28.2011C52.6591 27.2227 53.135 26.8199 54.1706 26.8114C55.5683 26.8001 56.969 26.7944 58.3668 26.7944C59.7645 26.7944 61.1652 26.8001 62.563 26.8114C63.6016 26.8199 63.9098 27.0752 64.0595 28.0508C64.2121 29.0463 64.3348 30.0645 64.4546 31.0515C64.5144 31.5563 64.5743 32.0611 64.6401 32.566C64.6731 32.8326 64.718 33.0963 64.7628 33.3629L64.8496 33.8876L69.7342 35.8616L73.5713 32.963C73.6671 32.8893 73.7628 32.8155 73.8586 32.7418C74.0831 32.566 74.2956 32.4015 74.5231 32.2512C74.8583 32.0299 75.1935 31.9165 75.5197 31.9165C75.8969 31.9165 76.256 32.0668 76.5912 32.3618C77.115 32.8212 77.6298 33.3147 78.1237 33.7912C78.3242 33.984 78.5277 34.1769 78.7283 34.3698L79.8626 35.4418C80.8413 36.3664 81.856 37.3222 82.8407 38.2723C83.6907 39.0948 83.7296 39.6875 82.9903 40.6263C82.1792 41.6587 81.3382 42.7024 80.5241 43.7092C80.1739 44.1431 79.3658 45.15 79.3658 45.15L81.4728 49.8324L82.4665 49.9572C83.116 50.0395 83.7864 50.1246 84.4569 50.2011C84.9028 50.2522 85.3488 50.2976 85.7978 50.3401C86.2407 50.3826 86.6837 50.428 87.1267 50.4791C88.5244 50.6379 88.8895 51.0179 88.8925 52.3197C88.9015 54.7957 88.9015 57.2943 88.8925 59.7448C88.8865 61.0778 88.5872 61.3756 87.1147 61.5202C85.7948 61.6478 84.4569 61.7981 83.1609 61.9428C82.5863 62.008 82.0086 62.0704 81.431 62.1328L81.2603 62.1527L79.1772 66.6508L79.7249 67.3144C80.0601 67.7229 80.4223 68.1625 80.7845 68.5964C81.0478 68.9112 81.3172 69.226 81.5836 69.5408C81.9727 69.9974 82.3588 70.4512 82.7389 70.9135C83.4991 71.8381 83.4692 72.4706 82.6252 73.2505C80.6737 75.0571 78.6714 76.8864 76.4985 78.8434C76.0615 79.2376 75.6754 79.422 75.2863 79.422C74.9301 79.422 74.544 79.266 74.0981 78.9427C73.3049 78.3641 72.5058 77.7657 71.7336 77.1871C71.3205 76.8779 70.9045 76.566 70.4885 76.2568C70.3448 76.1491 70.1982 76.0498 70.0545 75.9534L69.7372 75.735L64.8227 77.7231L64.7359 78.3839C64.685 78.781 64.6282 79.2149 64.5743 79.6489L64.4606 80.5621C64.3468 81.4697 64.2271 82.4113 64.1253 83.3387C64.0385 84.13 63.9667 84.2463 63.0868 84.2831C62.6947 84.3001 62.2757 84.3058 61.7309 84.3058L61.7459 84.3115ZM46.7838 72.4224C47.113 72.4224 47.5081 72.584 48.1217 72.8846C49.259 73.4405 50.4533 73.9227 51.6086 74.3878L52.1084 74.5892C52.3957 74.7055 52.692 74.782 52.9794 74.8558C53.2008 74.9125 53.4133 74.9664 53.6139 75.0373C54.3352 75.2869 54.7243 75.7463 54.8021 76.4383C54.862 76.9715 54.9398 77.5104 55.0176 78.0294L55.0326 78.1287C55.1433 78.8746 55.257 79.6205 55.3738 80.4004L55.5563 81.5973H55.9454C56.975 81.603 57.9837 81.6058 58.9893 81.6058C59.8483 81.6058 60.7043 81.6058 61.5633 81.5973H61.8207L61.8566 81.3534C61.9315 80.8429 62.0153 80.3466 62.0961 79.8587C62.2816 78.7328 62.4582 77.6692 62.5241 76.583C62.5899 75.5223 63.1406 75.1309 64.0685 74.8161C65.4123 74.3594 67.1692 73.7327 68.8393 72.9215C69.3482 72.6748 69.8031 72.5557 70.2281 72.5557C70.7968 72.5557 71.3265 72.7655 71.8982 73.2165C72.7033 73.8489 73.5324 74.4474 74.3315 75.0259C74.6727 75.2727 75.0079 75.5138 75.3342 75.7548L75.5437 75.908L80.0362 71.6311L78.9527 70.3236C78.2344 69.4614 77.4981 68.5709 76.7618 67.6803C75.9238 66.665 75.9567 66.4352 76.5673 65.3036C77.2018 64.1323 77.7465 62.9496 78.3422 61.6336C78.4948 61.2933 78.6025 60.9388 78.7043 60.5928C78.7642 60.3942 78.824 60.1929 78.8899 59.9972C79.1443 59.2683 79.6232 58.9336 80.4432 58.9138C81.3621 58.8911 82.2869 58.8088 83.1819 58.7294L83.6967 58.6841C84.2025 58.6415 84.7083 58.5791 85.2411 58.5167C85.4925 58.4855 85.7529 58.4543 86.0252 58.4231L86.2886 58.3919V58.1395C86.2886 57.5921 86.2886 57.0504 86.2886 56.5087C86.2946 55.2665 86.2976 53.9817 86.2647 52.7026L86.2587 52.4502L85.9923 52.4275C85.4296 52.3793 84.8819 52.3311 84.3431 52.2829C83.101 52.1723 81.9278 52.0673 80.7396 51.9822C79.5633 51.8972 79.3478 51.8064 78.9677 50.7457C78.4319 49.2482 77.6807 47.2941 76.5972 45.4364C76.259 44.8578 76.3009 44.3076 76.7199 43.7517C76.8696 43.556 77.0222 43.3632 77.1779 43.1732C77.2707 43.0569 77.3634 42.9406 77.4562 42.8215L80.3864 39.0948L75.7113 34.9086L75.5138 35.0334C75.4389 35.0816 75.3791 35.1185 75.3282 35.1469C75.2294 35.2064 75.1636 35.249 75.1007 35.2943C73.8676 36.2104 72.6315 37.1265 71.3984 38.0454C70.7848 38.502 70.4226 38.6722 70.0635 38.6722C69.7492 38.6722 69.3871 38.5417 68.8124 38.2212C67.4446 37.4555 65.9391 36.84 64.3438 36.3891C62.3146 35.8162 62.1559 35.6375 61.9165 33.638C61.8147 32.773 61.692 31.9278 61.5663 31.0316C61.5094 30.6317 61.4526 30.2261 61.3957 29.8177L61.3628 29.571H55.1253L55.0775 29.8007C55.0625 29.8688 55.0505 29.9283 55.0385 29.9851C55.0116 30.0985 54.9907 30.1978 54.9817 30.3056C54.835 31.8541 54.6914 33.4055 54.5537 34.954C54.4759 35.8389 54.2514 36.097 53.3475 36.321C53.1799 36.3636 53.0123 36.4033 52.8447 36.443C52.6501 36.4884 52.4556 36.5337 52.264 36.5848C50.5371 37.0272 48.9807 37.8299 47.8194 38.4793C47.4123 38.7091 47.0292 38.8197 46.6551 38.8197C46.1882 38.8197 45.7333 38.6467 45.2664 38.2893C44.982 38.0738 44.6947 37.8582 44.4044 37.6455L40.9534 35.0873L36.7452 39.5684L37.8976 40.9553C38.6817 41.8969 39.4449 42.813 40.2052 43.7347C40.8786 44.5544 40.9085 44.9855 40.3638 45.9441L40.3249 46.0093C39.864 46.8204 39.3851 47.6571 39.002 48.5221C38.7386 49.1149 38.5411 49.736 38.3525 50.3401C38.2866 50.5471 38.2208 50.7542 38.152 50.9584C37.8287 51.934 37.284 52.3935 36.3861 52.4445C36.0988 52.4615 35.8204 52.5069 35.548 52.5495C35.4134 52.5722 35.2787 52.592 35.147 52.609L31.1333 53.1422V59.0216L31.3698 59.0698C31.5075 59.0981 31.6422 59.1265 31.7739 59.1549C32.0642 59.2172 32.3365 59.2768 32.6239 59.3137L32.7286 59.3279C34.0426 59.4924 35.3984 59.6597 36.7423 59.7873C37.4097 59.8497 37.8018 60.1191 38.0083 60.6609L38.0921 60.8792C38.1759 61.1061 38.2657 61.3387 38.3645 61.5684C38.5351 61.9541 38.7027 62.337 38.8733 62.7227C39.3402 63.7891 39.8221 64.8895 40.3369 65.9588C40.8636 67.0507 40.7888 67.5867 39.9957 68.4517C39.2983 69.209 38.6009 69.9634 37.9065 70.715L36.835 71.875L36.9817 72.0593C37.8287 73.1314 40.4985 75.5932 41.2437 75.9902L41.4173 76.0838L42.7881 75.0628C43.698 74.3821 44.6109 73.7015 45.5268 73.0236C46.1343 72.5727 46.4666 72.4138 46.7898 72.4138L46.7838 72.4224Z" fill="#5DB869"/>
</g>
<ellipse cx="58.6855" cy="55.6479" rx="10.1303" ry="9.59936" fill="#5DB869"/>
<defs>
<clipPath id="clip0_30_45">
<rect width="116.084" height="110" fill="white" transform="translate(0.643494 0.647949)"/>
</clipPath>
</defs>
</svg>
