<svg width="522" height="315" viewBox="0 0 522 315" fill="none" xmlns="http://www.w3.org/2000/svg">
<path d="M241.739 154.574H230.091L228.706 157.784C228.254 158.853 228.024 159.739 228.024 160.434C228.024 161.36 228.397 162.037 229.14 162.476C229.579 162.737 230.656 162.928 232.372 163.058V163.957H221.407V163.058C222.589 162.88 223.562 162.389 224.327 161.585C225.087 160.782 226.03 159.127 227.146 156.616L238.936 130.311H239.397L251.287 157.345C252.421 159.909 253.355 161.52 254.085 162.185C254.637 162.689 255.414 162.98 256.418 163.058V163.957H240.47V163.058H241.126C242.408 163.058 243.307 162.88 243.824 162.524C244.18 162.263 244.358 161.89 244.358 161.407C244.358 161.116 244.31 160.816 244.21 160.508C244.176 160.36 243.937 159.756 243.481 158.683L241.73 154.574H241.739ZM240.909 152.775L236 141.424L230.943 152.775H240.909Z" fill="#1E1E1E"/>
<path d="M272.296 132.887V146.306H272.952C275.042 146.306 276.558 145.65 277.496 144.338C278.435 143.026 279.034 141.089 279.295 138.53H280.22V155.79H279.295C279.099 153.909 278.691 152.371 278.066 151.172C277.44 149.973 276.714 149.165 275.889 148.752C275.064 148.34 273.865 148.131 272.292 148.131V157.419C272.292 159.235 272.37 160.343 272.522 160.751C272.674 161.155 272.965 161.49 273.387 161.746C273.808 162.007 274.49 162.137 275.429 162.137H277.397C280.477 162.137 282.944 161.425 284.799 160C286.654 158.575 287.988 156.403 288.8 153.483H289.7L288.218 163.962H259.724V163.062H260.819C261.774 163.062 262.543 162.893 263.13 162.554C263.551 162.328 263.877 161.937 264.103 161.385C264.281 160.994 264.372 159.974 264.372 158.323V136.636C264.372 135.146 264.333 134.229 264.251 133.89C264.09 133.321 263.79 132.887 263.351 132.578C262.734 132.127 261.892 131.896 260.823 131.896H259.728V130.997H287.323V140.746H286.398C285.929 138.365 285.268 136.653 284.417 135.615C283.565 134.577 282.362 133.817 280.807 133.33C279.899 133.039 278.196 132.891 275.702 132.891H272.301L272.296 132.887Z" fill="#1E1E1E"/>
<path d="M306.916 148.93V158.171C306.916 159.952 307.025 161.077 307.242 161.538C307.459 161.998 307.846 162.367 308.397 162.645C308.949 162.919 309.979 163.058 311.486 163.058V163.957H294.613V163.058C296.138 163.058 297.167 162.915 297.71 162.632C298.253 162.35 298.636 161.981 298.853 161.525C299.07 161.073 299.183 159.952 299.183 158.171V136.775C299.183 134.994 299.075 133.869 298.853 133.408C298.636 132.948 298.249 132.579 297.697 132.3C297.146 132.027 296.116 131.888 294.609 131.888V130.989H309.927C313.915 130.989 316.83 131.262 318.68 131.814C320.527 132.366 322.034 133.382 323.203 134.864C324.371 136.345 324.954 138.087 324.954 140.077C324.954 142.51 324.08 144.517 322.33 146.107C321.213 147.11 319.649 147.866 317.638 148.366L325.562 159.526C326.6 160.969 327.339 161.868 327.773 162.224C328.438 162.728 329.207 163.002 330.084 163.049V163.949H319.701L309.075 148.926H306.912L306.916 148.93ZM306.916 132.765V147.206H308.302C310.557 147.206 312.242 146.997 313.359 146.585C314.475 146.172 315.357 145.425 315.996 144.347C316.634 143.27 316.956 141.862 316.956 140.129C316.956 137.618 316.369 135.763 315.192 134.56C314.015 133.361 312.125 132.761 309.514 132.761H306.912L306.916 132.765Z" fill="#1E1E1E"/>
<path d="M350.628 130.528C355.881 130.333 360.147 131.866 363.427 135.124C366.707 138.383 368.349 142.457 368.349 147.354C368.349 151.537 367.124 155.212 364.678 158.392C361.437 162.606 356.858 164.713 350.941 164.713C345.024 164.713 340.424 162.702 337.183 158.683C334.62 155.508 333.343 151.737 333.343 147.38C333.343 142.484 335.006 138.404 338.338 135.137C341.671 131.87 345.767 130.337 350.628 130.532V130.528ZM350.92 132.083C347.905 132.083 345.611 133.621 344.038 136.701C342.757 139.23 342.118 142.862 342.118 147.592C342.118 153.218 343.109 157.376 345.085 160.065C346.462 161.946 348.391 162.884 350.872 162.884C352.54 162.884 353.935 162.48 355.051 161.668C356.476 160.63 357.588 158.975 358.383 156.698C359.178 154.422 359.573 151.45 359.573 147.788C359.573 143.426 359.169 140.168 358.357 138.005C357.545 135.841 356.515 134.312 355.26 133.421C354.004 132.531 352.557 132.083 350.92 132.083Z" fill="#1E1E1E"/>
<path d="M407.713 130.237L407.982 141.224H406.987C406.518 138.469 405.362 136.254 403.525 134.572C401.687 132.896 399.697 132.057 397.556 132.057C395.9 132.057 394.593 132.5 393.628 133.382C392.664 134.264 392.182 135.281 392.182 136.432C392.182 137.162 392.351 137.809 392.694 138.378C393.163 139.138 393.919 139.894 394.953 140.637C395.714 141.171 397.473 142.118 400.227 143.483C404.085 145.381 406.687 147.171 408.03 148.856C409.359 150.542 410.024 152.471 410.024 154.643C410.024 157.397 408.951 159.769 406.8 161.755C404.654 163.74 401.926 164.731 398.62 164.731C397.582 164.731 396.604 164.626 395.679 164.413C394.753 164.201 393.598 163.805 392.203 163.223C391.426 162.897 390.783 162.737 390.283 162.737C389.862 162.737 389.414 162.897 388.945 163.223C388.476 163.549 388.094 164.04 387.803 164.704H386.903V152.258H387.803C388.515 155.76 389.888 158.431 391.925 160.269C393.958 162.107 396.152 163.028 398.503 163.028C400.319 163.028 401.765 162.532 402.843 161.546C403.92 160.556 404.459 159.409 404.459 158.092C404.459 157.315 404.25 156.559 403.837 155.833C403.425 155.104 402.795 154.413 401.952 153.757C401.109 153.101 399.619 152.245 397.477 151.194C394.48 149.721 392.325 148.461 391.009 147.427C389.697 146.389 388.689 145.229 387.981 143.952C387.277 142.67 386.925 141.263 386.925 139.72C386.925 137.096 387.889 134.859 389.818 133.008C391.747 131.162 394.18 130.237 397.112 130.237C398.181 130.237 399.219 130.367 400.223 130.628C400.983 130.823 401.913 131.184 403.008 131.71C404.102 132.235 404.867 132.5 405.306 132.5C405.745 132.5 406.057 132.37 406.301 132.109C406.544 131.849 406.77 131.227 406.983 130.237H407.713Z" fill="#1E1E1E"/>
<path d="M445.174 130.989V139.912H444.3C443.783 137.853 443.206 136.375 442.576 135.476C441.941 134.577 441.077 133.86 439.973 133.326C439.357 133.035 438.279 132.887 436.741 132.887H434.287V158.319C434.287 160.004 434.378 161.06 434.565 161.477C434.752 161.898 435.116 162.267 435.66 162.585C436.203 162.902 436.945 163.058 437.884 163.058H438.979V163.957H421.719V163.058H422.813C423.769 163.058 424.538 162.889 425.125 162.55C425.546 162.324 425.881 161.933 426.119 161.381C426.298 160.99 426.389 159.969 426.389 158.319V132.887H424.008C421.788 132.887 420.176 133.356 419.169 134.299C417.757 135.611 416.866 137.483 416.492 139.916H415.567V130.993H445.178L445.174 130.989Z" fill="#1E1E1E"/>
<path d="M465.744 154.574H454.097L452.711 157.784C452.259 158.853 452.029 159.739 452.029 160.434C452.029 161.36 452.402 162.037 453.145 162.476C453.584 162.737 454.661 162.928 456.377 163.058V163.957H445.412V163.058C446.594 162.88 447.567 162.389 448.327 161.585C449.088 160.782 450.03 159.127 451.147 156.616L462.937 130.311H463.398L475.288 157.345C476.422 159.909 477.356 161.52 478.086 162.185C478.638 162.689 479.415 162.98 480.419 163.058V163.957H464.471V163.058H465.127C466.408 163.058 467.308 162.88 467.825 162.524C468.181 162.263 468.359 161.89 468.359 161.407C468.359 161.116 468.311 160.816 468.216 160.508C468.181 160.36 467.942 159.756 467.486 158.683L465.735 154.574H465.744ZM464.914 152.775L460.005 141.424L454.948 152.775H464.914Z" fill="#1E1E1E"/>
<path d="M495.963 148.93V158.171C495.963 159.952 496.072 161.077 496.289 161.538C496.506 161.998 496.893 162.367 497.444 162.645C497.996 162.919 499.026 163.058 500.533 163.058V163.957H483.66V163.058C485.185 163.058 486.214 162.915 486.757 162.632C487.3 162.35 487.683 161.981 487.9 161.525C488.117 161.073 488.23 159.952 488.23 158.171V136.775C488.23 134.994 488.121 133.869 487.9 133.408C487.683 132.948 487.296 132.579 486.744 132.3C486.193 132.027 485.163 131.888 483.656 131.888V130.989H498.973C502.962 130.989 505.877 131.262 507.727 131.814C509.574 132.366 511.081 133.382 512.25 134.864C513.418 136.345 514 138.087 514 140.077C514 142.51 513.127 144.517 511.376 146.107C510.26 147.11 508.696 147.866 506.685 148.366L514.609 159.526C515.647 160.969 516.385 161.868 516.82 162.224C517.485 162.728 518.253 163.002 519.131 163.049V163.949H508.748L498.122 148.926H495.959L495.963 148.93ZM495.963 132.765V147.206H497.349C499.603 147.206 501.289 146.997 502.405 146.585C503.522 146.172 504.404 145.425 505.043 144.347C505.681 143.27 506.003 141.862 506.003 140.129C506.003 137.618 505.416 135.763 504.239 134.56C503.061 133.361 501.172 132.761 498.561 132.761H495.959L495.963 132.765Z" fill="#1E1E1E"/>
<path d="M492.5 114.845H189.485V115.979H492.5V114.845Z" fill="#1E1E1E"/>
<path d="M521.316 202.083H269.916V203.217H521.316V202.083Z" fill="#1E1E1E"/>
<path d="M272.296 182.512H267.965L267.205 184.276C267.018 184.71 266.922 185.036 266.922 185.249C266.922 185.418 267.005 185.57 267.166 185.701C267.326 185.831 267.678 185.913 268.217 185.953V186.257H264.694V185.953C265.163 185.87 265.463 185.761 265.602 185.631C265.884 185.366 266.193 184.832 266.536 184.024L270.472 174.818H270.759L274.651 184.124C274.964 184.871 275.251 185.357 275.507 185.579C275.763 185.801 276.119 185.926 276.576 185.953V186.257H272.162V185.953C272.609 185.931 272.909 185.857 273.065 185.731C273.222 185.605 273.3 185.449 273.3 185.271C273.3 185.027 273.191 184.645 272.97 184.124L272.292 182.516L272.296 182.512ZM272.066 181.899L270.168 177.377L268.221 181.899H272.066Z" fill="#1E1E1E"/>
<path d="M289.543 175.07V175.374C289.148 175.444 288.848 175.574 288.644 175.752C288.353 176.021 288.092 176.434 287.871 176.99L283.97 186.509H283.665L279.473 176.864C279.26 176.369 279.108 176.065 279.021 175.956C278.882 175.787 278.713 175.652 278.513 175.557C278.313 175.461 278.04 175.4 277.701 175.37V175.066H282.271V175.37C281.754 175.418 281.419 175.509 281.263 175.635C281.107 175.761 281.033 175.921 281.033 176.121C281.033 176.395 281.159 176.825 281.411 177.407L284.256 183.967L286.898 177.49C287.154 176.851 287.284 176.408 287.284 176.16C287.284 176 287.206 175.848 287.045 175.704C286.885 175.557 286.615 175.457 286.237 175.396C286.211 175.392 286.163 175.383 286.098 175.37V175.066H289.548L289.543 175.07Z" fill="#1E1E1E"/>
<path d="M297.924 185.953V186.257H293.132V185.953H293.527C293.988 185.953 294.326 185.818 294.535 185.549C294.665 185.37 294.73 184.949 294.73 184.28V177.051C294.73 176.486 294.696 176.113 294.622 175.93C294.565 175.791 294.452 175.674 294.283 175.574C294.04 175.444 293.788 175.374 293.523 175.374H293.127V175.07H297.919V175.374H297.515C297.059 175.374 296.725 175.509 296.516 175.778C296.377 175.956 296.307 176.378 296.307 177.047V184.276C296.307 184.84 296.342 185.218 296.416 185.396C296.473 185.535 296.586 185.653 296.764 185.753C296.998 185.883 297.25 185.948 297.515 185.948H297.919L297.924 185.953Z" fill="#1E1E1E"/>
<path d="M309.023 182.512H304.692L303.932 184.276C303.745 184.71 303.649 185.036 303.649 185.249C303.649 185.418 303.732 185.57 303.893 185.701C304.053 185.831 304.405 185.913 304.944 185.953V186.257H301.421V185.953C301.89 185.87 302.19 185.761 302.329 185.631C302.611 185.366 302.919 184.832 303.263 184.024L307.199 174.818H307.485L311.378 184.124C311.691 184.871 311.977 185.357 312.234 185.579C312.49 185.801 312.846 185.926 313.302 185.953V186.257H308.889V185.953C309.336 185.931 309.636 185.857 309.792 185.731C309.948 185.605 310.027 185.449 310.027 185.271C310.027 185.027 309.918 184.645 309.697 184.124L309.019 182.516L309.023 182.512ZM308.793 181.899L306.894 177.377L304.948 181.899H308.793Z" fill="#1E1E1E"/>
<path d="M324.359 175.07L324.485 177.694H324.172C324.111 177.234 324.029 176.903 323.924 176.704C323.755 176.386 323.529 176.147 323.242 176C322.96 175.848 322.586 175.774 322.126 175.774H320.549V184.319C320.549 185.005 320.623 185.436 320.77 185.605C320.979 185.835 321.3 185.953 321.735 185.953H322.121V186.257H317.377V185.953H317.773C318.246 185.953 318.581 185.809 318.781 185.522C318.902 185.344 318.963 184.945 318.963 184.319V175.774H317.616C317.095 175.774 316.721 175.813 316.504 175.891C316.217 175.995 315.974 176.195 315.77 176.495C315.566 176.79 315.444 177.194 315.405 177.698H315.092L315.223 175.074H324.354L324.359 175.07Z" fill="#1E1E1E"/>
<path d="M333.078 185.953V186.257H328.286V185.953H328.681C329.142 185.953 329.481 185.818 329.689 185.549C329.819 185.37 329.885 184.949 329.885 184.28V177.051C329.885 176.486 329.85 176.113 329.776 175.93C329.719 175.791 329.607 175.674 329.437 175.574C329.194 175.444 328.942 175.374 328.677 175.374H328.281V175.07H333.073V175.374H332.669C332.213 175.374 331.879 175.509 331.67 175.778C331.531 175.956 331.462 176.378 331.462 177.047V184.276C331.462 184.84 331.496 185.218 331.57 185.396C331.627 185.535 331.74 185.653 331.918 185.753C332.152 185.883 332.404 185.948 332.669 185.948H333.073L333.078 185.953Z" fill="#1E1E1E"/>
<path d="M342.626 174.814C344.077 174.814 345.337 175.365 346.402 176.469C347.466 177.572 347.996 178.949 347.996 180.596C347.996 182.242 347.462 183.706 346.388 184.827C345.315 185.948 344.016 186.509 342.496 186.509C340.975 186.509 339.664 185.961 338.612 184.866C337.565 183.772 337.04 182.355 337.04 180.618C337.04 178.88 337.643 177.39 338.855 176.269C339.907 175.296 341.162 174.809 342.626 174.809V174.814ZM342.47 175.418C341.471 175.418 340.667 175.787 340.063 176.53C339.312 177.455 338.934 178.806 338.934 180.587C338.934 182.368 339.325 183.819 340.107 184.801C340.706 185.548 341.497 185.922 342.483 185.922C343.534 185.922 344.399 185.514 345.085 184.693C345.772 183.872 346.11 182.581 346.11 180.817C346.11 178.902 345.732 177.477 344.981 176.534C344.377 175.787 343.539 175.413 342.474 175.413L342.47 175.418Z" fill="#1E1E1E"/>
<path d="M351.389 175.07H354.426L361.264 183.459V177.008C361.264 176.321 361.185 175.891 361.033 175.722C360.829 175.491 360.508 175.374 360.069 175.374H359.682V175.07H363.575V175.374H363.179C362.706 175.374 362.371 175.518 362.171 175.804C362.05 175.982 361.989 176.382 361.989 177.008V186.439H361.694L354.317 177.429V184.319C354.317 185.005 354.391 185.436 354.539 185.605C354.747 185.835 355.069 185.953 355.503 185.953H355.898V186.257H352.006V185.953H352.392C352.87 185.953 353.209 185.809 353.409 185.522C353.531 185.344 353.591 184.945 353.591 184.319V176.538C353.266 176.16 353.022 175.909 352.853 175.787C352.684 175.665 352.44 175.552 352.114 175.448C351.954 175.4 351.715 175.374 351.389 175.374V175.07Z" fill="#1E1E1E"/>
<path d="M381.108 174.814V178.684H380.804C380.704 177.942 380.526 177.351 380.274 176.912C380.018 176.473 379.653 176.121 379.179 175.865C378.706 175.604 378.215 175.478 377.711 175.478C377.138 175.478 376.664 175.652 376.29 176.004C375.917 176.352 375.73 176.751 375.73 177.194C375.73 177.538 375.847 177.846 376.086 178.128C376.425 178.541 377.237 179.093 378.519 179.779C379.562 180.34 380.278 180.77 380.661 181.07C381.043 181.369 381.338 181.721 381.543 182.13C381.751 182.538 381.851 182.964 381.851 183.407C381.851 184.254 381.521 184.984 380.865 185.596C380.209 186.209 379.362 186.517 378.328 186.517C378.002 186.517 377.698 186.491 377.411 186.443C377.242 186.417 376.886 186.317 376.351 186.144C375.817 185.97 375.474 185.883 375.33 185.883C375.187 185.883 375.083 185.926 375.004 186.009C374.926 186.092 374.865 186.261 374.826 186.522H374.522V182.686H374.826C374.97 183.489 375.161 184.089 375.404 184.488C375.647 184.888 376.017 185.218 376.512 185.483C377.012 185.748 377.555 185.879 378.15 185.879C378.836 185.879 379.379 185.696 379.779 185.336C380.179 184.971 380.378 184.545 380.378 184.05C380.378 183.776 380.305 183.498 380.152 183.216C380 182.933 379.766 182.673 379.449 182.434C379.236 182.269 378.649 181.917 377.694 181.382C376.738 180.848 376.056 180.418 375.652 180.101C375.248 179.784 374.939 179.432 374.731 179.045C374.522 178.658 374.418 178.237 374.418 177.777C374.418 176.973 374.726 176.282 375.343 175.7C375.96 175.118 376.742 174.831 377.694 174.831C378.289 174.831 378.919 174.979 379.583 175.27C379.892 175.409 380.109 175.478 380.235 175.478C380.378 175.478 380.496 175.435 380.587 175.352C380.678 175.266 380.752 175.096 380.804 174.835H381.108V174.814Z" fill="#1E1E1E"/>
<path d="M389.245 175.683V180.105H391.704C392.343 180.105 392.768 180.01 392.981 179.818C393.268 179.567 393.429 179.119 393.459 178.48H393.763V182.373H393.459C393.381 181.83 393.303 181.478 393.229 181.326C393.129 181.135 392.968 180.983 392.742 180.874C392.516 180.766 392.169 180.709 391.704 180.709H389.245V184.397C389.245 184.893 389.267 185.192 389.31 185.301C389.354 185.41 389.432 185.492 389.541 185.557C389.649 185.622 389.858 185.653 390.166 185.653H392.065C392.699 185.653 393.155 185.609 393.442 185.523C393.729 185.436 394.002 185.262 394.267 185.001C394.606 184.662 394.958 184.145 395.314 183.459H395.644L394.68 186.265H386.061V185.961H386.456C386.721 185.961 386.969 185.896 387.208 185.77C387.386 185.683 387.503 185.549 387.568 185.375C387.633 185.197 387.664 184.84 387.664 184.293V177.025C387.664 176.317 387.594 175.878 387.451 175.713C387.251 175.492 386.921 175.383 386.46 175.383H386.065V175.079H394.684L394.81 177.529H394.489C394.376 176.943 394.245 176.534 394.106 176.317C393.967 176.095 393.759 175.93 393.485 175.813C393.264 175.731 392.877 175.691 392.321 175.691H389.254L389.245 175.683Z" fill="#1E1E1E"/>
<path d="M410.415 186.256H407.43L403.642 181.026C403.36 181.039 403.134 181.043 402.956 181.043C402.886 181.043 402.808 181.043 402.725 181.043C402.643 181.043 402.556 181.035 402.469 181.03V184.28C402.469 184.984 402.547 185.422 402.699 185.592C402.908 185.835 403.221 185.957 403.638 185.957H404.076V186.261H399.285V185.957H399.706C400.18 185.957 400.518 185.805 400.723 185.496C400.84 185.327 400.896 184.923 400.896 184.284V177.055C400.896 176.351 400.818 175.913 400.666 175.743C400.453 175.5 400.132 175.378 399.71 175.378H399.289V175.074H403.364C404.55 175.074 405.428 175.161 405.992 175.335C406.557 175.509 407.035 175.826 407.426 176.291C407.817 176.755 408.017 177.312 408.017 177.954C408.017 178.641 407.791 179.24 407.343 179.744C406.896 180.248 406.201 180.609 405.258 180.817L407.569 184.028C408.099 184.766 408.551 185.253 408.929 185.496C409.307 185.739 409.802 185.892 410.415 185.957V186.261V186.256ZM402.469 180.505C402.573 180.505 402.665 180.505 402.743 180.505C402.821 180.505 402.882 180.505 402.934 180.505C404.003 180.505 404.806 180.274 405.349 179.81C405.892 179.349 406.162 178.758 406.162 178.046C406.162 177.333 405.944 176.777 405.506 176.343C405.067 175.904 404.489 175.687 403.768 175.687C403.451 175.687 403.016 175.739 402.473 175.843V180.496L402.469 180.505Z" fill="#1E1E1E"/>
<path d="M423.865 175.07V175.374C423.469 175.444 423.17 175.574 422.966 175.752C422.674 176.021 422.414 176.434 422.192 176.99L418.291 186.509H417.987L413.795 176.864C413.582 176.369 413.43 176.065 413.343 175.956C413.204 175.787 413.034 175.652 412.835 175.557C412.635 175.461 412.361 175.4 412.022 175.37V175.066H416.592V175.37C416.075 175.418 415.741 175.509 415.585 175.635C415.428 175.761 415.354 175.921 415.354 176.121C415.354 176.395 415.48 176.825 415.732 177.407L418.578 183.967L421.219 177.49C421.475 176.851 421.606 176.408 421.606 176.16C421.606 176 421.528 175.848 421.367 175.704C421.206 175.557 420.937 175.457 420.559 175.396C420.533 175.392 420.485 175.383 420.42 175.37V175.066H423.869L423.865 175.07Z" fill="#1E1E1E"/>
<path d="M432.245 185.953V186.257H427.453V185.953H427.849C428.309 185.953 428.648 185.818 428.857 185.549C428.987 185.37 429.052 184.949 429.052 184.28V177.051C429.052 176.486 429.017 176.113 428.943 175.93C428.887 175.791 428.774 175.674 428.605 175.574C428.361 175.444 428.109 175.374 427.844 175.374H427.449V175.07H432.241V175.374H431.837C431.381 175.374 431.046 175.509 430.838 175.778C430.699 175.956 430.629 176.378 430.629 177.047V184.276C430.629 184.84 430.664 185.218 430.738 185.396C430.794 185.535 430.907 185.653 431.085 185.753C431.32 185.883 431.572 185.948 431.837 185.948H432.241L432.245 185.953Z" fill="#1E1E1E"/>
<path d="M445.791 174.814L446.047 178.615H445.791C445.447 177.477 444.961 176.656 444.331 176.156C443.697 175.656 442.941 175.404 442.055 175.404C441.312 175.404 440.643 175.591 440.043 175.969C439.444 176.347 438.97 176.947 438.627 177.772C438.284 178.598 438.11 179.623 438.11 180.848C438.11 181.86 438.271 182.738 438.596 183.481C438.922 184.223 439.409 184.793 440.06 185.188C440.712 185.583 441.455 185.783 442.293 185.783C443.019 185.783 443.662 185.627 444.214 185.318C444.77 185.01 445.378 184.389 446.047 183.468L446.303 183.633C445.743 184.627 445.087 185.357 444.34 185.818C443.592 186.278 442.702 186.509 441.677 186.509C439.822 186.509 438.388 185.822 437.371 184.445C436.611 183.424 436.233 182.216 436.233 180.831C436.233 179.714 436.485 178.689 436.985 177.755C437.484 176.821 438.175 176.095 439.053 175.583C439.93 175.07 440.89 174.809 441.929 174.809C442.737 174.809 443.536 175.009 444.322 175.404C444.552 175.526 444.718 175.587 444.817 175.587C444.965 175.587 445.096 175.535 445.204 175.431C445.348 175.283 445.447 175.074 445.508 174.814H445.795H445.791Z" fill="#1E1E1E"/>
<path d="M453.376 175.683V180.105H455.834C456.473 180.105 456.899 180.01 457.112 179.818C457.398 179.567 457.559 179.119 457.59 178.48H457.894V182.373H457.59C457.511 181.83 457.433 181.478 457.359 181.326C457.259 181.135 457.099 180.983 456.873 180.874C456.647 180.766 456.299 180.709 455.834 180.709H453.376V184.397C453.376 184.893 453.397 185.192 453.441 185.301C453.484 185.41 453.562 185.492 453.671 185.557C453.78 185.622 453.988 185.653 454.297 185.653H456.195C456.829 185.653 457.285 185.609 457.572 185.523C457.859 185.436 458.133 185.262 458.398 185.001C458.736 184.662 459.088 184.145 459.444 183.459H459.775L458.81 186.265H450.191V185.961H450.586C450.851 185.961 451.099 185.896 451.338 185.77C451.516 185.683 451.633 185.549 451.699 185.375C451.764 185.197 451.794 184.84 451.794 184.293V177.025C451.794 176.317 451.725 175.878 451.581 175.713C451.381 175.492 451.051 175.383 450.591 175.383H450.196V175.079H458.815L458.941 177.529H458.619C458.506 176.943 458.376 176.534 458.237 176.317C458.098 176.095 457.889 175.93 457.616 175.813C457.394 175.731 457.007 175.691 456.451 175.691H453.384L453.376 175.683Z" fill="#1E1E1E"/>
<path d="M470.875 174.814V178.684H470.57C470.471 177.942 470.292 177.351 470.04 176.912C469.784 176.473 469.419 176.121 468.946 175.865C468.472 175.604 467.981 175.478 467.477 175.478C466.904 175.478 466.43 175.652 466.057 176.004C465.683 176.352 465.496 176.751 465.496 177.194C465.496 177.538 465.614 177.846 465.853 178.128C466.191 178.541 467.004 179.093 468.285 179.779C469.328 180.34 470.045 180.77 470.427 181.07C470.809 181.369 471.105 181.721 471.309 182.13C471.518 182.538 471.617 182.964 471.617 183.407C471.617 184.254 471.287 184.984 470.631 185.596C469.975 186.209 469.128 186.517 468.094 186.517C467.768 186.517 467.464 186.491 467.178 186.443C467.008 186.417 466.652 186.317 466.118 186.144C465.583 185.97 465.24 185.883 465.097 185.883C464.953 185.883 464.849 185.926 464.771 186.009C464.693 186.092 464.632 186.261 464.593 186.522H464.289V182.686H464.593C464.736 183.489 464.927 184.089 465.17 184.488C465.414 184.888 465.783 185.218 466.278 185.483C466.778 185.748 467.321 185.879 467.916 185.879C468.602 185.879 469.146 185.696 469.545 185.336C469.945 184.971 470.145 184.545 470.145 184.05C470.145 183.776 470.071 183.498 469.919 183.216C469.767 182.933 469.532 182.673 469.215 182.434C469.002 182.269 468.416 181.917 467.46 181.382C466.504 180.848 465.822 180.418 465.418 180.101C465.014 179.784 464.706 179.432 464.497 179.045C464.289 178.658 464.184 178.237 464.184 177.777C464.184 176.973 464.493 176.282 465.11 175.7C465.727 175.118 466.509 174.831 467.46 174.831C468.055 174.831 468.685 174.979 469.35 175.27C469.658 175.409 469.875 175.478 470.001 175.478C470.145 175.478 470.262 175.435 470.353 175.352C470.444 175.266 470.518 175.096 470.57 174.835H470.875V174.814Z" fill="#1E1E1E"/>
<path d="M198.222 234.118C191.436 238.397 183.708 242.672 175.332 246.894L157.147 237.124L152.42 222.579L162.29 215.407L198.222 234.118Z" fill="#1E1E1E"/>
<path d="M132.284 20.3174L110.61 73.383C124.842 68.5913 138.675 64.7118 151.169 61.5014L132.284 20.3174Z" fill="#1E1E1E"/>
<path d="M96.1178 108.863L74.7308 161.225L60.3294 196.479L20.5747 293.808L55.5985 274.133L126.906 94.657C115.137 99.7789 104.824 104.597 96.1134 108.863H96.1178Z" fill="#1E1E1E"/>
<path d="M214.674 199.989L197.809 163.219L160.131 81.0549C151.803 84.261 143.935 87.4367 136.559 90.5385L200.411 230.855L200.385 232.736C201.663 231.906 202.909 231.072 204.108 230.243L204.187 230.19C209.487 226.706 217.176 220.494 221.46 214.799L214.669 199.993L214.674 199.989Z" fill="#1E1E1E"/>
<path d="M234.836 243.949C227.107 249.618 217.189 255.844 204.46 262.538L256.079 290.268L234.84 243.949H234.836Z" fill="#1E1E1E"/>
<path d="M338.934 24.1707C337.226 27.7505 334.268 29.6185 330.528 30.6655C324.906 32.2381 319.358 34.054 313.754 35.6918C312.195 36.148 311.308 36.9951 310.956 38.6025C310.535 40.5357 309.914 42.4255 309.301 44.5977C310.088 44.3935 310.687 44.2197 311.291 44.085C312.764 43.7592 313.793 44.3022 314.223 45.7532C314.593 47 313.719 48.1556 312.255 48.4597C311.903 48.5336 311.539 48.5683 311.182 48.5944C309.164 48.7247 307.873 49.7862 307.312 51.7788C305.352 58.7297 303.415 65.6849 301.408 72.6184C301.138 73.5524 301.72 74.9513 299.926 75.2293C298.132 75.5074 297.428 75.0512 297.454 73.0354C297.546 66.2323 297.654 59.4334 297.75 52.6303C297.798 49.2591 297.806 45.8879 297.88 42.5167C297.91 41.1266 297.541 40.4749 295.977 40.8963C289.296 42.6905 282.636 44.5977 275.689 45.1711C275.194 45.2102 274.512 45.8227 274.325 46.318C273.078 49.6414 271.801 52.9648 270.85 56.3794C270.485 57.6957 269.785 57.8608 268.834 57.8521C267.605 57.8391 267.001 57.0528 266.996 55.8494C266.988 53.1386 266.931 50.4277 267.04 47.7255C267.096 46.2659 266.788 45.41 265.146 45.384C264.772 45.3796 264.273 44.9886 264.081 44.6367C263.986 44.4543 264.359 43.8417 264.664 43.6549C266.175 42.7166 265.797 41.7261 264.989 40.514C263.621 38.4635 262.4 36.3131 261.071 34.2365C260.384 33.1635 260.033 32.1252 261.184 31.2042C262.226 30.3701 263.021 30.5699 264.09 31.5604C266.605 33.8846 269.338 35.9786 272.049 38.0812C272.462 38.4027 273.3 38.5113 273.808 38.3332C280.164 36.1176 286.485 33.8064 292.832 31.5691C295.074 30.7784 295.143 30.7046 293.827 28.6063C288.514 20.1436 283.192 11.6896 277.888 3.22253C276.758 1.41964 277.301 0.255372 279.391 0.0120912C279.73 -0.0270075 280.194 0.129387 280.446 0.36398C286.837 6.38518 293.201 12.4281 299.648 18.5362C300.778 17.8932 301.786 17.272 302.837 16.7333C304.405 15.934 305.765 16.3293 306.325 17.6717C306.881 19.0054 306.156 20.2956 304.527 20.8387C304.027 21.0081 303.515 21.1384 302.733 21.3643C304.714 23.1716 306.43 24.944 308.385 26.3994C309.041 26.8903 310.357 26.8208 311.269 26.5992C317.403 25.0917 323.503 23.4235 329.637 21.9074C332.995 21.0776 336.219 21.3252 338.938 23.8102V24.1707H338.934Z" fill="#1E1E1E"/>
<path d="M33.8681 157.063C33.8681 157.063 19.0931 147.162 61.1416 122.921C61.1416 122.921 139.652 75.1945 260.436 45.2666C228.519 48.3988 196.636 54.4982 165.496 62.0226C136.915 68.9257 108.477 77.0278 81.4599 88.7574C67.8231 94.6787 54.5643 101.525 42.0788 109.614C30.4882 117.121 16.8732 126.071 8.97087 137.626C-12.6594 169.262 34.107 187.599 56.9711 191.865L57.8616 192.021L68.2923 166.481C67.2149 166.399 43.1214 164.522 33.8637 157.067L33.8681 157.063Z" fill="#1E1E1E"/>
<path d="M162.29 215.407L152.42 222.579L157.147 237.124L162.216 252.729L136.568 234.096L110.923 252.729L120.72 222.579L95.0708 203.947H126.771L136.568 173.797L146.364 203.947H178.069L162.29 215.407Z" fill="#1E1E1E"/>
<path d="M257.782 208.669C254.989 177.642 213.674 169.462 204.373 168.006C204.373 168.006 217.671 197 217.68 197.018C218.088 197.847 221.455 198.899 222.376 199.424C224.049 200.38 225.691 201.492 226.907 203.017C229.905 206.775 228.341 211.493 226.008 215.181C220.134 224.469 206.367 233.501 206.367 233.501C197.687 239.492 187.074 245.491 175.284 251.365C107.226 285.272 0 315 0 315C97.9379 304.509 161.595 277.926 161.595 277.926C174.758 272.535 186.119 267.369 195.928 262.465C214.335 253.259 227.281 244.97 236.382 237.811C259.555 219.578 257.782 208.673 257.782 208.673V208.669Z" fill="#1E1E1E"/>
</svg>
