<svg width="118" height="118" viewBox="0 0 118 118" fill="none" xmlns="http://www.w3.org/2000/svg">
<g clip-path="url(#clip0_40_23)">
<path d="M117.359 113.009C109.588 99.5486 101.819 86.0873 94.0501 72.6253C93.9056 72.3578 93.7439 72.0999 93.5661 71.8533C93.3647 71.5756 93.1027 71.3475 92.7998 71.1864C92.497 71.0253 92.1614 70.9354 91.8186 70.9236C91.4758 70.9117 91.1349 70.9782 90.8216 71.118C90.5084 71.2578 90.2312 71.4672 90.0111 71.7303C89.7467 72.0516 89.5143 72.3979 89.3171 72.7643C82.6838 84.2569 76.0504 95.7499 69.4171 107.243C68.4171 108.978 67.4081 110.711 66.4171 112.419H21.4171C25.5231 105.311 29.5761 98.2923 33.6381 91.2563C31.9149 91.3502 30.1865 91.2458 28.4871 90.9453C28.2751 91.3263 28.1151 91.6213 27.9461 91.9133C23.9461 98.8386 19.9461 105.765 15.9461 112.692C15.7273 113.046 15.5313 113.414 15.3591 113.792C15.1952 114.137 15.1214 114.518 15.1447 114.899C15.1679 115.28 15.2875 115.649 15.492 115.971C15.6966 116.293 15.9796 116.558 16.3146 116.742C16.6495 116.925 17.0254 117.02 17.4071 117.018C17.7071 117.032 18.0141 117.018 18.3181 117.018C50.4801 117.018 82.6411 117.018 114.801 117.018C115.142 117.048 115.485 117.043 115.824 117.002C116.268 116.936 116.694 116.78 117.075 116.543C117.427 116.211 117.737 115.837 117.997 115.429V114.068C117.785 113.714 117.565 113.368 117.36 113.009M71.7381 112.424L91.7251 77.7963L111.725 112.424H71.7381ZM59.7101 46.1483C59.9101 46.4973 60.0271 46.6943 60.1421 46.8883C64.4554 54.2476 68.7704 61.6063 73.0871 68.9643C73.3042 69.3646 73.558 69.7438 73.8451 70.0973C74.1824 70.4587 74.6272 70.7018 75.1135 70.7906C75.5998 70.8794 76.1018 70.8092 76.5451 70.5903C77.0235 70.3476 77.3976 69.9395 77.5979 69.4418C77.7982 68.9442 77.8111 68.3907 77.6341 67.8843C77.4328 67.354 77.1803 66.8446 76.8801 66.3633C72.3041 58.5423 67.7491 50.7103 63.1131 42.9243C62.2657 41.626 61.8515 40.0926 61.9301 38.5443C62.0301 36.9983 61.9511 35.4443 61.9511 33.8633C62.3511 33.6693 62.6841 33.5023 63.0241 33.3403C71.2728 29.4123 79.5161 25.4859 87.7541 21.5613C88.2746 21.3354 88.7815 21.0793 89.2721 20.7943C89.616 20.6051 89.9038 20.3284 90.1064 19.9922C90.3089 19.656 90.419 19.2723 90.4255 18.8798C90.432 18.4874 90.3347 18.1002 90.1434 17.7575C89.9521 17.4148 89.6736 17.1287 89.3361 16.9283C88.9514 16.6858 88.5481 16.4742 88.1301 16.2953L62.8971 4.26627C62.5971 4.12227 62.2971 3.96627 61.9971 3.80727C61.9741 3.34127 61.9541 2.92827 61.9381 2.51527C61.932 2.15309 61.833 1.79854 61.6508 1.48551C61.4685 1.17247 61.209 0.911407 60.8971 0.727267C60.7101 0.606267 60.5271 0.474267 60.3421 0.348267H58.9741C58.3141 0.848267 57.5861 1.30527 57.4511 2.22027C57.4005 2.63389 57.3808 3.05071 57.3921 3.46727C57.3874 15.6193 57.3874 27.7699 57.3921 39.9193C57.4201 40.5225 57.2784 41.1215 56.9831 41.6483C53.7771 47.1516 50.5858 52.6629 47.4091 58.1823C47.2631 58.4353 47.0941 58.6733 46.9251 58.9333C48.39 59.4682 49.8107 60.1172 51.1741 60.8743C54.0331 55.9743 56.7931 51.0743 59.7091 46.1463M62.0091 8.95627C68.9231 12.2443 75.7411 15.4893 82.7771 18.8363L62.0091 28.7303V8.95627Z" fill="#A1D6A8"/>
<path d="M28.4862 90.9473C27.9362 90.8283 27.4752 90.7084 27.0092 90.6324C19.2783 89.3661 12.1485 85.6795 6.64613 80.1033C5.21113 78.6923 3.79406 77.2633 2.37806 75.8333C2.10719 75.5674 1.86582 75.2731 1.65809 74.9554C1.42015 74.6077 1.29599 74.1947 1.30262 73.7735C1.30925 73.3522 1.44644 72.9433 1.6952 72.6033C1.86164 72.3504 2.05433 72.1158 2.27015 71.9034C4.35515 69.8554 6.38506 67.7423 8.55506 65.7863C11.9238 62.7671 15.8347 60.4142 20.0802 58.8523C24.7038 57.1133 29.6239 56.2995 34.5612 56.4573C38.3931 56.5699 42.1842 57.2784 45.7982 58.5573C46.1522 58.6823 46.5112 58.7953 46.9262 58.9343C48.3913 59.4689 49.8124 60.1176 51.1762 60.8743C52.0712 61.4203 52.9202 61.9124 53.7452 62.4454C56.0688 63.9576 58.2237 65.7143 60.1732 67.6854C61.5162 69.0303 62.8631 70.3683 64.1991 71.7153C64.4713 71.9802 64.7198 72.2683 64.942 72.5763C65.1949 72.9135 65.3379 73.3205 65.351 73.7417C65.364 74.163 65.2466 74.5781 65.015 74.9303C64.8622 75.1923 64.6757 75.433 64.4601 75.6463C62.0951 77.9463 59.8072 80.3463 57.3202 82.5123C54.2928 85.1138 50.8346 87.167 47.1012 88.5793C45.1339 89.369 43.0966 89.9717 41.0162 90.3793C39.3452 90.6853 37.6432 90.8373 35.9542 91.0423C35.2052 91.1333 34.4542 91.1833 33.6412 91.2543C33.2502 91.2893 32.841 91.3044 32.441 91.3044C31.1153 91.2907 29.793 91.1713 28.4862 90.9473ZM20.5492 73.7923C20.5293 75.4761 20.8465 77.147 21.4821 78.7063C22.1176 80.2657 23.0587 81.6822 24.2499 82.8724C25.4411 84.0626 26.8584 85.0024 28.4183 85.6366C29.9783 86.2709 31.6493 86.5867 33.3331 86.5654C35.0162 86.5813 36.6855 86.2612 38.2433 85.6238C39.8011 84.9864 41.216 84.0446 42.4052 82.8534C43.5943 81.6623 44.5338 80.2459 45.1686 78.6871C45.8034 77.1282 46.1209 75.4583 46.1022 73.7753C46.1157 72.0991 45.7959 70.437 45.1613 68.8855C44.5267 67.3341 43.59 65.9242 42.4056 64.738C41.2213 63.5518 39.8128 62.6129 38.2623 61.9759C36.7119 61.3389 35.0504 61.0163 33.3742 61.0273H33.3302C31.6472 61.007 29.9771 61.3234 28.4181 61.9578C26.8591 62.5922 25.4426 63.5319 24.2518 64.7215C23.0611 65.9111 22.1201 67.3266 21.4843 68.8851C20.8484 70.4435 20.5306 72.1133 20.5492 73.7963V73.7923ZM48.0492 83.1124C52.7692 80.8513 56.3191 77.4653 59.7711 73.8193C56.3411 70.1873 52.7981 66.7844 48.0531 64.5334C51.5781 70.8074 51.5562 76.9044 48.0492 83.1124ZM6.88416 73.8204C10.3412 77.4654 13.8911 80.8763 18.6061 83.0983C15.0871 76.8833 15.0831 70.8083 18.6061 64.5203C13.8561 66.7963 10.3122 70.1794 6.88416 73.8204ZM33.1842 80.6293C32.2884 80.6278 31.4021 80.4467 30.5775 80.0967C29.753 79.7467 29.0068 79.235 28.3834 78.5917C27.7601 77.9484 27.2722 77.1867 26.9484 76.3515C26.6245 75.5163 26.4714 74.6247 26.4982 73.7293C26.4829 72.8299 26.6505 71.9367 26.9911 71.1042C27.3317 70.2716 27.8381 69.517 28.4794 68.8862C29.1206 68.2553 29.8833 67.7614 30.7213 67.4345C31.5593 67.1076 32.4551 66.9543 33.3541 66.9843C34.262 66.9653 35.1642 67.1319 36.0053 67.474C36.8464 67.8162 37.6085 68.3266 38.2452 68.9739C38.882 69.6213 39.3799 70.392 39.7081 71.2386C40.0364 72.0852 40.1882 72.9899 40.1542 73.8973C40.1559 74.7857 39.9815 75.6657 39.6412 76.4864C39.301 77.3071 38.8016 78.0522 38.1718 78.6788C37.5419 79.3053 36.7942 79.8009 35.9718 80.1369C35.1494 80.4729 34.2684 80.6426 33.38 80.6363L33.1842 80.6293ZM33.2921 71.6193C33.0083 71.6134 32.7262 71.6646 32.4625 71.7697C32.1988 71.8748 31.9589 72.0318 31.757 72.2314C31.5551 72.4309 31.3954 72.669 31.2872 72.9314C31.179 73.1939 31.1245 73.4755 31.1271 73.7593C31.1137 74.053 31.16 74.3464 31.2633 74.6216C31.3666 74.8969 31.5248 75.1483 31.7282 75.3606C31.9315 75.573 32.1759 75.7419 32.4464 75.857C32.717 75.9721 33.0081 76.031 33.3021 76.0303C33.5961 76.0364 33.8882 75.9831 34.161 75.8736C34.4338 75.764 34.6817 75.6004 34.8898 75.3927C35.0978 75.1851 35.2617 74.9375 35.3717 74.6648C35.4818 74.3922 35.5357 74.1003 35.5302 73.8063C35.5382 73.5152 35.4862 73.2255 35.3778 72.9551C35.2694 72.6848 35.1067 72.4395 34.8998 72.2345C34.6928 72.0296 34.4461 71.8692 34.1747 71.7634C33.9033 71.6575 33.6132 71.6085 33.3222 71.6193H33.2921ZM78.1281 76.8963C78.1469 76.307 78.3899 75.7471 78.8075 75.3309C79.2251 74.9146 79.7858 74.6733 80.3751 74.6563C80.6767 74.656 80.9753 74.7155 81.2538 74.8311C81.5323 74.9467 81.7853 75.1163 81.9979 75.3301C82.2106 75.5439 82.3789 75.7976 82.493 76.0767C82.6072 76.3558 82.6651 76.6548 82.6632 76.9563C82.6552 77.5467 82.4166 78.1104 81.9987 78.5274C81.5807 78.9444 81.0165 79.1815 80.4262 79.1883H80.4042C79.7996 79.183 79.2214 78.9393 78.7955 78.5101C78.3697 78.0808 78.1305 77.5009 78.13 76.8963H78.1281ZM23.4132 54.0373C23.1278 53.851 22.8622 53.6363 22.6202 53.3963C21.2202 52.007 19.8234 50.612 18.4301 49.2114C17.9376 48.7901 17.5977 48.2182 17.463 47.5843C17.3717 47.1562 17.4138 46.7105 17.5836 46.3071C17.7535 45.9037 18.0432 45.562 18.4132 45.3283C18.7694 45.0734 19.1947 44.9328 19.6327 44.9253C20.0706 44.9178 20.5004 45.0437 20.8651 45.2863C21.0335 45.3741 21.1899 45.4833 21.3302 45.6113C22.9452 47.2173 24.5661 48.8114 26.1581 50.4454C26.3871 50.6476 26.5686 50.8979 26.6896 51.1785C26.8106 51.4591 26.8681 51.7629 26.858 52.0683C26.8839 52.4885 26.7857 52.9072 26.5756 53.272C26.3654 53.6369 26.0527 53.9318 25.6762 54.1203C25.343 54.302 24.9706 54.3998 24.5912 54.4053C24.1716 54.4003 23.7628 54.2723 23.4152 54.0373H23.4132ZM40.723 53.9703C40.254 53.6386 39.9304 53.1396 39.8187 52.5761C39.7071 52.0126 39.816 51.4277 40.1232 50.9423C40.2603 50.7156 40.4216 50.5044 40.6041 50.3123C42.1288 48.779 43.6586 47.2483 45.1932 45.7203C45.423 45.4655 45.7041 45.2626 46.0182 45.1247C46.3323 44.9868 46.672 44.9171 47.015 44.9203C47.3308 44.9307 47.6413 45.006 47.9266 45.1415C48.212 45.2771 48.4664 45.4701 48.674 45.7083C48.8815 45.9465 49.0378 46.2249 49.1329 46.5262C49.2281 46.8274 49.2602 47.1451 49.2272 47.4593C49.1785 48.0259 48.912 48.5517 48.484 48.9263C46.914 50.5263 45.3491 52.1263 43.7301 53.6733C43.28 54.1287 42.6704 54.3913 42.0302 54.4053C41.56 54.4017 41.1031 54.249 40.7252 53.9693L40.723 53.9703ZM31.161 49.1124C31.0562 48.6715 31.0002 48.2204 30.994 47.7673C30.976 45.9466 30.976 44.1257 30.994 42.3044C31 41.8513 31.0578 41.4002 31.1661 40.9603C31.276 40.4757 31.5512 40.0446 31.9445 39.7409C32.3377 39.4372 32.8246 39.2801 33.3212 39.2963C33.8174 39.2818 34.3035 39.4389 34.6974 39.7411C35.0913 40.0434 35.3686 40.4723 35.483 40.9554C35.5858 41.397 35.6423 41.848 35.6513 42.3013C35.6763 43.2113 35.6591 44.1224 35.6591 45.0334C35.6591 45.9444 35.6763 46.8553 35.6513 47.7643C35.642 48.2169 35.5876 48.6675 35.4891 49.1093C35.3717 49.5898 35.1032 50.0201 34.7233 50.3368C34.3433 50.6536 33.8719 50.8402 33.3781 50.8693H33.3041C32.8047 50.8487 32.3256 50.666 31.9393 50.3488C31.553 50.0316 31.2806 49.5971 31.1632 49.1113L31.161 49.1124Z" fill="#5DB869"/>
</g>
<defs>
<clipPath id="clip0_40_23">
<rect width="117.205" height="116.698" fill="white" transform="translate(0.791138 0.348267)"/>
</clipPath>
</defs>
</svg>
